<svg xmlns="http://www.w3.org/2000/svg" xmlns:xlink="http://www.w3.org/1999/xlink" xmlns:lucid="lucid" width="3020" height="953.92"><g transform="translate(720 280)" lucid:page-tab-id="0_0"><path d="M-1000-500h3500v1500h-3500z" fill="#fff"/><path d="M28.67 417.57l70 56.38-70 56.38-70-56.38zM779.33 423.98l79.34 56.38-79.34 56.38L700 480.36zM1534.33 408.12L1600 464.5l-65.67 56.38-65.66-56.38z" stroke="#fc9432" stroke-width="2" fill-opacity="0"/><path d="M337.33-161.82h300v288h-300z" stroke="#1071e5" stroke-width="2" fill="#fff"/><path d="M337.33-124.22h300" stroke="#1071e5" stroke-width="2" fill="none"/><use xlink:href="#a" transform="matrix(1,0,0,1,345.3333333333335,-153.81817701031125) translate(111.55 14.6)"/><use xlink:href="#b" transform="matrix(1,0,0,1,349.3333333333335,-116.21817701031125) translate(0 67.10000000000001)"/><use xlink:href="#c" transform="matrix(1,0,0,1,349.3333333333335,-116.21817701031125) translate(217.9 67.10000000000001)"/><use xlink:href="#d" transform="matrix(1,0,0,1,349.3333333333335,-116.21817701031125) translate(0 88.70000000000002)"/><use xlink:href="#e" transform="matrix(1,0,0,1,349.3333333333335,-116.21817701031125) translate(215.75 88.70000000000002)"/><use xlink:href="#f" transform="matrix(1,0,0,1,349.3333333333335,-116.21817701031125) translate(0 110.30000000000001)"/><use xlink:href="#g" transform="matrix(1,0,0,1,349.3333333333335,-116.21817701031125) translate(0 131.9)"/><use xlink:href="#h" transform="matrix(1,0,0,1,349.3333333333335,-116.21817701031125) translate(0 153.50000000000003)"/><use xlink:href="#i" transform="matrix(1,0,0,1,349.3333333333335,-116.21817701031125) translate(0 175.1)"/><path d="M-141.33-160h300v285h-300z" stroke="#fe7070" stroke-width="2" fill="#fff"/><path d="M-141.33-122.4h300" stroke="#fe7070" stroke-width="2" fill="none"/><use xlink:href="#j" transform="matrix(1,0,0,1,-133.33333333333326,-152.00000000000003) translate(112.55 14.6)"/><use xlink:href="#k" transform="matrix(1,0,0,1,-129.33333333333326,-114.40000000000003) translate(0 65.60000000000001)"/><use xlink:href="#e" transform="matrix(1,0,0,1,-129.33333333333326,-114.40000000000003) translate(187.9 65.60000000000001)"/><use xlink:href="#f" transform="matrix(1,0,0,1,-129.33333333333326,-114.40000000000003) translate(0 87.20000000000002)"/><use xlink:href="#l" transform="matrix(1,0,0,1,-129.33333333333326,-114.40000000000003) translate(0 108.80000000000001)"/><use xlink:href="#m" transform="matrix(1,0,0,1,-129.33333333333326,-114.40000000000003) translate(0 130.4)"/><use xlink:href="#n" transform="matrix(1,0,0,1,-129.33333333333326,-114.40000000000003) translate(0 152.00000000000003)"/><use xlink:href="#i" transform="matrix(1,0,0,1,-129.33333333333326,-114.40000000000003) translate(0 173.6)"/><path d="M229.03-17h-68.86v-1h68.86zm106.8-.32h-68.85v-1h68.85z" stroke="#ba23f6" stroke-width=".05" fill="#ba23f6"/><path d="M160.18-17h-.5v-1h.5z" fill="#ba23f6"/><path d="M160.2-16.98h-.56v-1.04h.56zm-.5-1v.96h.45v-.96z" stroke="#ba23f6" stroke-width=".05" fill="#ba23f6"/><path d="M336.33-17.32h-.5v-1h.5z" fill="#ba23f6"/><path d="M336.36-17.3h-.56v-1.04h.56zm-.5-1v.96h.45v-.95z" stroke="#ba23f6" stroke-width=".05" fill="#ba23f6"/><use xlink:href="#o" transform="matrix(1,0,0,1,229.02500000000012,-28.459088505155623) translate(0 14.4)"/><use xlink:href="#p" transform="matrix(1,0,0,1,229.02500000000012,-28.459088505155623) translate(15 14.4)"/><use xlink:href="#q" transform="matrix(1,0,0,1,229.02500000000012,-28.459088505155623) translate(25 14.4)"/><path d="M837.33-161.82h300v301h-300z" stroke="#cc4e00" stroke-width="2" fill="#fff"/><path d="M837.33-124.22h300" stroke="#cc4e00" stroke-width="2" fill="none"/><use xlink:href="#r" transform="matrix(1,0,0,1,845.3333333333335,-153.81817701031125) translate(110.525 14.6)"/><use xlink:href="#s" transform="matrix(1,0,0,1,849.3333333333335,-116.21817701031125) translate(0 62.800000000000004)"/><use xlink:href="#t" transform="matrix(1,0,0,1,849.3333333333335,-116.21817701031125) translate(215.9 62.800000000000004)"/><use xlink:href="#u" transform="matrix(1,0,0,1,849.3333333333335,-116.21817701031125) translate(0 84.4)"/><use xlink:href="#v" transform="matrix(1,0,0,1,849.3333333333335,-116.21817701031125) translate(215.75 84.4)"/><use xlink:href="#w" transform="matrix(1,0,0,1,849.3333333333335,-116.21817701031125) translate(0 106.00000000000001)"/><use xlink:href="#v" transform="matrix(1,0,0,1,849.3333333333335,-116.21817701031125) translate(217.9 106.00000000000001)"/><use xlink:href="#x" transform="matrix(1,0,0,1,849.3333333333335,-116.21817701031125) translate(0 127.60000000000002)"/><use xlink:href="#y" transform="matrix(1,0,0,1,849.3333333333335,-116.21817701031125) translate(217.85000000000002 127.60000000000002)"/><use xlink:href="#z" transform="matrix(1,0,0,1,849.3333333333335,-116.21817701031125) translate(0 149.20000000000002)"/><use xlink:href="#A" transform="matrix(1,0,0,1,849.3333333333335,-116.21817701031125) translate(0 170.8)"/><use xlink:href="#B" transform="matrix(1,0,0,1,849.3333333333335,-116.21817701031125) translate(0 192.4)"/><path d="M-441.33 444.5h240v59h-240z" stroke="#54c45e" stroke-width="2" fill="#fff"/><use xlink:href="#C" transform="matrix(1,0,0,1,-433.33333333333326,452.5) translate(82.55 25.1)"/><path d="M297.33-252a8 8 0 0 1 8-8h836.75a8 8 0 0 1 8 8v25.16a8 8 0 0 1-8 8H305.33a8 8 0 0 1-8-8z" stroke="#000" stroke-opacity="0" stroke-width="2" fill="#fff" fill-opacity="0"/><use xlink:href="#D" transform="matrix(1,0,0,1,301.3333333333335,-256) translate(226.7396296296296 25.782777777777778)"/><use xlink:href="#E" transform="matrix(1,0,0,1,301.3333333333335,-256) translate(348.8914814814815 25.782777777777778)"/><use xlink:href="#F" transform="matrix(1,0,0,1,301.3333333333335,-256) translate(472.3544444444444 25.782777777777778)"/><use xlink:href="#G" transform="matrix(1,0,0,1,301.3333333333335,-256) translate(488.3062962962963 25.782777777777778)"/><path d="M573.8-220.2H883.2M573.84-220.2h-1.03M883.15-220.2h1.03" stroke="#a9afb8" stroke-width="2" fill="none"/><path d="M297.33-210.84a8 8 0 0 1 8-8h837.7a8 8 0 0 1 8 8v2.84a8 8 0 0 1-8 8h-837.7a8 8 0 0 1-8-8z" stroke="#000" stroke-opacity="0" stroke-width="2" fill="#fff" fill-opacity="0"/><use xlink:href="#H" transform="matrix(1,0,0,1,301.33333333333394,-214.8447760431012) translate(359.1762551440329 14.917037037037037)"/><use xlink:href="#I" transform="matrix(1,0,0,1,301.33333333333394,-214.8447760431012) translate(416.0274897119341 14.917037037037037)"/><use xlink:href="#J" transform="matrix(1,0,0,1,301.33333333333394,-214.8447760431012) translate(441.4788271604938 14.917037037037037)"/><path d="M1297.33-161.82h300v278h-300z" stroke="#54c45e" stroke-width="2" fill="#fff"/><path d="M1297.33-124.22h300" stroke="#54c45e" stroke-width="2" fill="none"/><use xlink:href="#K" transform="matrix(1,0,0,1,1305.3333333333335,-153.81817701031127) translate(103.57499999999999 14.6)"/><use xlink:href="#L" transform="matrix(1,0,0,1,1309.3333333333335,-116.21817701031128) translate(0 61.6)"/><use xlink:href="#e" transform="matrix(1,0,0,1,1309.3333333333335,-116.21817701031128) translate(195.9 61.6)"/><use xlink:href="#f" transform="matrix(1,0,0,1,1309.3333333333335,-116.21817701031128) translate(0 83.20000000000002)"/><use xlink:href="#l" transform="matrix(1,0,0,1,1309.3333333333335,-116.21817701031128) translate(0 104.80000000000001)"/><use xlink:href="#m" transform="matrix(1,0,0,1,1309.3333333333335,-116.21817701031128) translate(0 126.40000000000002)"/><use xlink:href="#n" transform="matrix(1,0,0,1,1309.3333333333335,-116.21817701031128) translate(0 148.00000000000003)"/><use xlink:href="#i" transform="matrix(1,0,0,1,1309.3333333333335,-116.21817701031128) translate(0 169.6)"/><path d="M835.83.02v1h-77.05v-1zm-197-17.34v-1h77.05v1z" stroke="#d916a8" stroke-width=".05" fill="#d916a8"/><path d="M638.85-17.32h-.52v-1h.52z" fill="#d916a8"/><path d="M638.87-17.3h-.56v-1.04h.57zm-.5-1v.96h.45v-.95z" stroke="#d916a8" stroke-width=".05" fill="#d916a8"/><path d="M836.33 1.02h-.5v-1h.5z" fill="#d916a8"/><path d="M836.36 1.04h-.56V0h.56zm-.5-1V1h.45V.03z" stroke="#d916a8" stroke-width=".05" fill="#d916a8"/><use xlink:href="#M" transform="matrix(1,0,0,1,715.8833333333334,-19.449637684468545) translate(0 14.4)"/><use xlink:href="#p" transform="matrix(1,0,0,1,715.8833333333334,-19.449637684468545) translate(17.950000000000003 14.4)"/><use xlink:href="#N" transform="matrix(1,0,0,1,715.8833333333334,-19.449637684468545) translate(27.950000000000003 14.4)"/><path d="M1199.83-4.62h-61v-1h61zm96-17.7h-61v-1h61z" stroke="#d916a8" stroke-width=".05" fill="#d916a8"/><path d="M1138.85-4.62h-.52v-1h.52z" fill="#d916a8"/><path d="M1138.87-4.6h-.56v-1.04h.57zm-.5-1v.96h.45v-.95z" stroke="#d916a8" stroke-width=".05" fill="#d916a8"/><path d="M1296.33-22.32h-.5v-1h.5z" fill="#d916a8"/><path d="M1296.36-22.3h-.56v-1.04h.56zm-.5-1v.96h.45v-.95z" stroke="#d916a8" stroke-width=".05" fill="#d916a8"/><use xlink:href="#o" transform="matrix(1,0,0,1,1199.8333333333335,-24.767989744393663) translate(0 14.4)"/><use xlink:href="#p" transform="matrix(1,0,0,1,1199.8333333333335,-24.767989744393663) translate(15 14.4)"/><use xlink:href="#O" transform="matrix(1,0,0,1,1199.8333333333335,-24.767989744393663) translate(25 14.4)"/><path d="M296.38 212.74a8 8 0 0 1 8-8h836.75a8 8 0 0 1 8 8v25.15a8 8 0 0 1-8 8H304.38a8 8 0 0 1-8-8z" stroke="#000" stroke-opacity="0" stroke-width="2" fill="#fff" fill-opacity="0"/><use xlink:href="#D" transform="matrix(1,0,0,1,300.37594737213476,208.7376119782166) translate(279.0383950617284 25.782777777777778)"/><use xlink:href="#P" transform="matrix(1,0,0,1,300.37594737213476,208.7376119782166) translate(401.19024691358027 25.782777777777778)"/><path d="M572.86 244.55h309.36M572.88 244.55h-1.02M882.2 244.55h1.02" stroke="#a9afb8" stroke-width="2" fill="none"/><path d="M296.38 253.9a8 8 0 0 1 8-8h837.7a8 8 0 0 1 8 8v2.84a8 8 0 0 1-8 8h-837.7a8 8 0 0 1-8-8z" stroke="#000" stroke-opacity="0" stroke-width="2" fill="#fff" fill-opacity="0"/><use xlink:href="#H" transform="matrix(1,0,0,1,300.3759473721352,249.89283593511533) translate(359.1762551440329 14.917037037037037)"/><use xlink:href="#I" transform="matrix(1,0,0,1,300.3759473721352,249.89283593511533) translate(416.0274897119341 14.917037037037037)"/><use xlink:href="#J" transform="matrix(1,0,0,1,300.3759473721352,249.89283593511533) translate(441.4788271604938 14.917037037037037)"/><path d="M268.67 444.5h240v59h-240z" stroke="#54c45e" stroke-width="2" fill="#fff"/><use xlink:href="#a" transform="matrix(1,0,0,1,276.66666666666674,452.5) translate(81.55 25.1)"/><path d="M1068.67 444.5h240v59h-240z" stroke="#54c45e" stroke-width="2" fill="#fff"/><use xlink:href="#r" transform="matrix(1,0,0,1,1076.6666666666667,452.5) translate(80.525 25.1)"/><path d="M-91.33 443.5h240v60h-240z" fill="none"/><use xlink:href="#Q" transform="matrix(1,0,0,1,-91.33333333333326,443.5) translate(95.525 33.6)"/><path d="M658.67 452h240v60h-240z" fill="none"/><use xlink:href="#R" transform="matrix(1,0,0,1,658.6666666666667,452) translate(88.575 33.6)"/><path d="M-199.83 474.13H-43.2" stroke="#e81313" fill="none"/><path d="M-199.82 474.63h-.5v-1h.5zM-42.93 473.95l.85.68h-1.14v-1h.7z" stroke="#e81313" stroke-width=".05" fill="#e81313"/><path d="M100.76 473.95h83.18a.02.02 0 0 1 .02.03.02.02 0 0 0 .03.02h83.17" stroke="#e81313" fill="none"/><path d="M100.77 474.45h-1.13l.62-.5-.62-.5h1.13zM267.67 474.5h-.52v-1h.52z" stroke="#e81313" stroke-width=".05" fill="#e81313"/><path d="M847.63 470.93h219.54" stroke="#e81313" fill="none"/><path d="M847.63 471.3l-1-.72v-.15h1zM1067.67 471.43h-.52v-1h.52z" stroke="#e81313" stroke-width=".05" fill="#e81313"/><path d="M-91.33 374.5h240v60h-240z" stroke="#000" stroke-opacity="0" stroke-width="2" fill="#fff" fill-opacity="0"/><use xlink:href="#S" transform="matrix(1,0,0,1,-86.33333333333326,379.5) translate(96.025 30.025)"/><use xlink:href="#T" transform="matrix(1,0,0,1,-86.33333333333326,379.5) translate(111.025 30.025)"/><use xlink:href="#U" transform="matrix(1,0,0,1,-86.33333333333326,379.5) translate(121.025 30.025)"/><path d="M668.67 374.5h240v60h-240z" stroke="#000" stroke-opacity="0" stroke-width="2" fill="#fff" fill-opacity="0"/><use xlink:href="#V" transform="matrix(1,0,0,1,673.6666666666667,379.5) translate(93.55 30.025)"/><use xlink:href="#T" transform="matrix(1,0,0,1,673.6666666666667,379.5) translate(111.5 30.025)"/><use xlink:href="#W" transform="matrix(1,0,0,1,673.6666666666667,379.5) translate(121.5 30.025)"/><path d="M-485.08 324.5c13.1 0 23.75 10.63 23.75 23.75S-471.97 372-485.08 372h-112.5c-13.12 0-23.75-10.63-23.75-23.75s10.63-23.75 23.75-23.75z" stroke="#6db1ff" stroke-width="2" fill="#fff"/><use xlink:href="#X" transform="matrix(1,0,0,1,-616.3333333333333,329.5) translate(43.55 21.525)"/><path d="M-165.08 309.5c13.1 0 23.75 10.63 23.75 23.75S-151.97 357-165.08 357h-112.5c-13.12 0-23.75-10.63-23.75-23.75s10.63-23.75 23.75-23.75z" stroke="#6db1ff" stroke-width="2" fill="#fff"/><use xlink:href="#Y" transform="matrix(1,0,0,1,-296.33333333333326,314.5) translate(43.074999999999996 21.525)"/><path d="M-563.75 515c13.12 0 23.75 10.64 23.75 23.76 0 13.1-10.63 23.75-23.75 23.75h-112.5c-13.12 0-23.75-10.63-23.75-23.74 0-13.12 10.63-23.75 23.75-23.75z" stroke="#6db1ff" stroke-width="2" fill="#fff"/><use xlink:href="#Z" transform="matrix(1,0,0,1,-695,520.0074066887173) translate(47.575 21.525)"/><path d="M-143.75 575.92c13.12 0 23.75 10.63 23.75 23.75 0 13.1-10.63 23.75-23.75 23.75h-112.5c-13.12 0-23.75-10.64-23.75-23.75 0-13.12 10.63-23.75 23.75-23.75z" stroke="#6db1ff" stroke-width="2" fill="#fff"/><use xlink:href="#aa" transform="matrix(1,0,0,1,-275,580.9157894005797) translate(37.599999999999994 21.525)"/><path d="M-321.33 443v-30.25a12 12 0 0 1 12-12h61.5a12 12 0 0 0 12-12V358.5" stroke="#e81313" fill="none"/><path d="M-320.83 443.5h-1v-.5h1zM-235.33 358.5h-1v-.5h1z" stroke="#e81313" stroke-width=".05" fill="#e81313"/><path d="M-442.83 474h-88.5a12 12 0 0 1-12-12v-88.5" stroke="#e81313" fill="none"/><path d="M-442.33 474.5h-.52v-1h.52zM-542.83 373.5h-1v-.5h1z" stroke="#e81313" stroke-width=".05" fill="#e81313"/><path d="M-442.83 493.33H-608a12 12 0 0 0-12 12v8.18" stroke="#e81313" fill="none"/><path d="M-442.33 493.83h-.52v-1h.52zM-619.5 514h-1v-.5h1z" stroke="#e81313" stroke-width=".05" fill="#e81313"/><path d="M-321.33 505v22.7a12 12 0 0 0 12 12h107.83a12 12 0 0 1 12 12v22.72" stroke="#e81313" fill="none"/><path d="M-320.83 505h-1v-.5h1zM-189 574.92h-1v-.52h1z" stroke="#e81313" stroke-width=".05" fill="#e81313"/><path d="M644.92 309.5c13.1 0 23.75 10.63 23.75 23.75S658.03 357 644.92 357h-112.5c-13.12 0-23.75-10.63-23.75-23.75s10.63-23.75 23.75-23.75z" stroke="#6db1ff" stroke-width="2" fill="#fff"/><use xlink:href="#Y" transform="matrix(1,0,0,1,513.6666666666667,314.5) translate(43.074999999999996 21.525)"/><path d="M294.92 324.5c13.1 0 23.75 10.63 23.75 23.75S308.03 372 294.92 372h-112.5c-13.12 0-23.75-10.63-23.75-23.75s10.63-23.75 23.75-23.75z" stroke="#6db1ff" stroke-width="2" fill="#fff"/><use xlink:href="#ab" transform="matrix(1,0,0,1,163.66666666666674,329.5) translate(27.124999999999993 21.525)"/><path d="M274.92 562.5c13.1 0 23.75 10.64 23.75 23.76 0 13.1-10.64 23.75-23.75 23.75h-112.5c-13.12 0-23.75-10.63-23.75-23.74 0-13.12 10.63-23.75 23.75-23.75z" stroke="#6db1ff" stroke-width="2" fill="#fff"/><use xlink:href="#ac" transform="matrix(1,0,0,1,143.66666666666674,567.5074066887173) translate(26.624999999999993 21.525)"/><path d="M634.92 584.5c13.1 0 23.75 10.63 23.75 23.75S648.03 632 634.92 632h-112.5c-13.12 0-23.75-10.63-23.75-23.75s10.63-23.75 23.75-23.75z" stroke="#6db1ff" stroke-width="2" fill="#fff"/><use xlink:href="#ad" transform="matrix(1,0,0,1,503.66666666666674,589.5) translate(30.75 21.525)"/><path d="M309.17 443v-22.75a12 12 0 0 0-12-12h-46.5a12 12 0 0 1-12-12V373.5" stroke="#e81313" fill="none"/><path d="M309.67 443.5h-1v-.5h1zM239.17 373.5h-1v-.5h1z" stroke="#e81313" stroke-width=".05" fill="#e81313"/><path d="M440.2 443v-30.25a12 12 0 0 1 12-12h124.47a12 12 0 0 0 12-12V358.5" stroke="#e81313" fill="none"/><path d="M440.7 443.5h-1v-.5h1zM589.17 358.5h-1v-.5h1z" stroke="#e81313" stroke-width=".05" fill="#e81313"/><path d="M388.67 505v16a12 12 0 0 1-12 12h-146a12 12 0 0 0-12 12v16" stroke="#e81313" fill="none"/><path d="M389.17 505h-1v-.5h1zM219.17 561.5h-1v-.5h1z" stroke="#e81313" stroke-width=".05" fill="#e81313"/><path d="M435.28 505v27a12 12 0 0 0 12 12h119.4a12 12 0 0 1 12 12v27" stroke="#e81313" fill="none"/><path d="M435.78 505h-1v-.5h1zM579.17 583.5h-1v-.5h1z" stroke="#e81313" stroke-width=".05" fill="#e81313"/><path d="M1076.25 324.5c13.12 0 23.75 10.63 23.75 23.75S1089.37 372 1076.25 372h-112.5c-13.12 0-23.75-10.63-23.75-23.75s10.63-23.75 23.75-23.75z" stroke="#6db1ff" stroke-width="2" fill="#fff"/><use xlink:href="#ae" transform="matrix(1,0,0,1,945,329.5) translate(41.074999999999996 21.525)"/><path d="M1444.92 575.92c13.1 0 23.75 10.63 23.75 23.75 0 13.1-10.64 23.75-23.75 23.75h-112.5c-13.12 0-23.75-10.64-23.75-23.75 0-13.12 10.63-23.75 23.75-23.75z" stroke="#6db1ff" stroke-width="2" fill="#fff"/><use xlink:href="#af" transform="matrix(1,0,0,1,1313.6666666666667,580.9157894005797) translate(55.55 21.525)"/><path d="M1092.07 559.66c14.7 0 26.6 11.9 26.6 26.6 0 14.7-11.9 26.6-26.6 26.6h-106.8c-14.7 0-26.6-11.9-26.6-26.6 0-14.7 11.9-26.6 26.6-26.6z" stroke="#6db1ff" stroke-width="2" fill="#fff"/><use xlink:href="#ag" transform="matrix(1,0,0,1,963.6666666666667,564.6574066887173) translate(50.025 25.4)"/><path d="M1038.67 558.16v-14.58a12 12 0 0 1 12-12h126a12 12 0 0 0 12-12V505" stroke="#e81313" fill="none"/><path d="M1039.17 558.66h-1v-.5h1zM1189.17 505h-1v-.5h1z" stroke="#e81313" stroke-width=".05" fill="#e81313"/><path d="M1248.73 505v22.7a12 12 0 0 0 12 12h115.94a12 12 0 0 1 12 12v22.72" stroke="#e81313" fill="none"/><path d="M1249.23 505h-1v-.5h1zM1389.17 574.92h-1v-.52h1z" stroke="#e81313" stroke-width=".05" fill="#e81313"/><path d="M1010 373.5v22.75a12 12 0 0 0 12 12h81.54a12 12 0 0 1 12 12V443" stroke="#e81313" fill="none"/><path d="M1010.5 373.5h-1v-.5h1zM1116.04 443.5h-1v-.5h1z" stroke="#e81313" stroke-width=".05" fill="#e81313"/><path d="M-383.75 591c13.12 0 23.75 10.63 23.75 23.75s-10.63 23.75-23.75 23.75h-112.5c-13.12 0-23.75-10.63-23.75-23.75S-509.37 591-496.25 591z" stroke="#6db1ff" stroke-width="2" fill="#fff"/><use xlink:href="#ah" transform="matrix(1,0,0,1,-515,596) translate(41.05 21.525)"/><path d="M-440 589v-35.75a6 6 0 0 1 6-6h21.33a6 6 0 0 0 6-6V505.5" stroke="#e81313" stroke-width="2" fill="none"/><path d="M-439 590h-2v-1.03h2zM-405.67 505.53h-2v-1.03h2z" stroke="#e81313" stroke-width=".05" fill="#e81313"/><path d="M510.17 474h196.55" stroke="#e81313" fill="none"/><path d="M510.18 474.5h-.5v-1h.5zM706.7 474.36v-.86h1.23z" stroke="#e81313" stroke-width=".05" fill="#e81313"/><path d="M1760 443.5h240v59h-240z" stroke="#54c45e" stroke-width="2" fill="#fff"/><g><use xlink:href="#ai" transform="matrix(1,0,0,1,1768,451.5) translate(73.57499999999999 25.1)"/></g><path d="M1310.17 460h161.7" stroke="#e81313" fill="none"/><path d="M1310.18 460.5h-.5v-1h.5zM1471.86 460.44v-.94h1.1z" stroke="#e81313" stroke-width=".05" fill="#e81313"/><path d="M1420 440.5a6 6 0 0 1 6-6h228a6 6 0 0 1 6 6v48a6 6 0 0 1-6 6h-228a6 6 0 0 1-6-6z" fill="none"/><g><use xlink:href="#aj" transform="matrix(1,0,0,1,1420,434.5) translate(105.67901234567901 33.55555555555556)"/></g><path d="M1602.04 464.5h156.46" stroke="#e81313" fill="none"/><path d="M1602.05 465h-1.1l.6-.5-.6-.5h1.1zM1759 465h-.5v-1h.5z" stroke="#e81313" stroke-width=".05" fill="#e81313"/><path d="M1414.33 363.98h240v60h-240z" stroke="#000" stroke-opacity="0" stroke-width="2" fill="#fff" fill-opacity="0"/><g><use xlink:href="#S" transform="matrix(1,0,0,1,1419.3333333333335,368.9836583558231) translate(97.5 30.025)"/><use xlink:href="#T" transform="matrix(1,0,0,1,1419.3333333333335,368.9836583558231) translate(112.5 30.025)"/><use xlink:href="#ak" transform="matrix(1,0,0,1,1419.3333333333335,368.9836583558231) translate(122.5 30.025)"/></g><path d="M1325.28 318.24c13.12 0 23.75 10.63 23.75 23.75 0 13.1-10.63 23.74-23.75 23.74h-112.5c-13.12 0-23.75-10.64-23.75-23.75 0-13.13 10.63-23.76 23.75-23.76z" stroke="#6db1ff" stroke-width="2" fill="#fff"/><g><use xlink:href="#al" transform="matrix(1,0,0,1,1194.0277777777778,323.2372685185185) translate(44.55 21.525)"/></g><path d="M1269.03 367.24v25.88a12 12 0 0 1-12 12h-3.8a12 12 0 0 0-12 12V443" stroke="#e81313" fill="none"/><path d="M1269.53 367.25h-1v-.5h1zM1241.72 443.5h-1v-.5h1z" stroke="#e81313" stroke-width=".05" fill="#e81313"/><path d="M1804.92 355c13.1 0 23.75 10.63 23.75 23.75s-10.64 23.75-23.75 23.75h-112.5c-13.12 0-23.75-10.63-23.75-23.75S1679.3 355 1692.42 355z" stroke="#6db1ff" stroke-width="2" fill="#fff"/><g><use xlink:href="#am" transform="matrix(1,0,0,1,1673.6666666666667,360) translate(43.55 21.525)"/></g><path d="M2124.92 340c13.1 0 23.75 10.63 23.75 23.75s-10.64 23.75-23.75 23.75h-112.5c-13.12 0-23.75-10.63-23.75-23.75S1999.3 340 2012.42 340z" stroke="#6db1ff" stroke-width="2" fill="#fff"/><g><use xlink:href="#an" transform="matrix(1,0,0,1,1993.666666666667,345) translate(43.074999999999996 21.525)"/></g><path d="M2256.25 449.75c13.12 0 23.75 10.63 23.75 23.75s-10.63 23.75-23.75 23.75h-112.5c-13.12 0-23.75-10.63-23.75-23.75s10.63-23.75 23.75-23.75z" stroke="#6db1ff" stroke-width="2" fill="#fff"/><g><use xlink:href="#ao" transform="matrix(1,0,0,1,2125,454.75) translate(47.575 21.525)"/></g><path d="M2146.25 606.42c13.12 0 23.75 10.63 23.75 23.75 0 13.1-10.63 23.75-23.75 23.75h-112.5c-13.12 0-23.75-10.64-23.75-23.75 0-13.12 10.63-23.75 23.75-23.75z" stroke="#6db1ff" stroke-width="2" fill="#fff"/><g><use xlink:href="#ap" transform="matrix(1,0,0,1,2015,611.4157894005797) translate(37.599999999999994 21.525)"/></g><path d="M1876.25 584.5c13.12 0 23.75 10.63 23.75 23.75S1889.37 632 1876.25 632h-112.5c-13.12 0-23.75-10.63-23.75-23.75s10.63-23.75 23.75-23.75z" stroke="#6db1ff" stroke-width="2" fill="#fff"/><g><use xlink:href="#aq" transform="matrix(1,0,0,1,1745,589.5) translate(41.05 21.525)"/></g><path d="M1967.37 504v38.46a12 12 0 0 0 12 12H2078a12 12 0 0 1 12 12v38.46" stroke="#e81313" fill="none"/><path d="M1967.87 504h-1v-.5h1zM2090.5 605.42h-1v-.52h1z" stroke="#e81313" stroke-width=".05" fill="#e81313"/><path d="M1748.67 404v7a12 12 0 0 0 12 12H1868a12 12 0 0 1 12 12v7" stroke="#e81313" fill="none"/><path d="M1749.17 404h-1v-.5h1zM1880.5 442.5h-1v-.5h1z" stroke="#e81313" stroke-width=".05" fill="#e81313"/><path d="M1966.67 442v-14.5a12 12 0 0 1 12-12h95.98a12 12 0 0 0 12-12V389" stroke="#e81313" fill="none"/><path d="M1967.17 442.5h-1v-.5h1zM2087.15 389h-1v-.5h1z" stroke="#e81313" stroke-width=".05" fill="#e81313"/><path d="M2001.5 473.5h117" stroke="#e81313" fill="none"/><path d="M2001.5 474h-.5v-1h.5zM2119 473.47l.02.53h-.53v-1h.55z" stroke="#e81313" stroke-width=".05" fill="#e81313"/><path d="M1830.33 504v79" stroke="#e81313" fill="none"/><path d="M1830.83 504h-1v-.5h1zM1830.83 583.5h-1v-.5h1z" stroke="#e81313" stroke-width=".05" fill="#e81313"/><defs><path fill="#333" d="M182-130c37 4 62 22 62 59C244 23 116-4 24 0v-248c84 5 203-23 205 63 0 31-19 50-47 55zM76-148c40-3 101 13 101-30 0-44-60-28-101-31v61zm0 110c48-3 116 14 116-37 0-48-69-32-116-35v72" id="ar"/><path fill="#333" d="M133-34C117-15 103 5 69 4 32 3 11-16 11-54c-1-60 55-63 116-61 1-26-3-47-28-47-18 1-26 9-28 27l-52-2c7-38 36-58 82-57s74 22 75 68l1 82c-1 14 12 18 25 15v27c-30 8-71 5-69-32zm-48 3c29 0 43-24 42-57-32 0-66-3-65 30 0 17 8 27 23 27" id="as"/><path fill="#333" d="M135-150c-39-12-60 13-60 57V0H25l-1-190h47c2 13-1 29 3 40 6-28 27-53 61-41v41" id="at"/><path fill="#333" d="M190-63c-7 42-38 67-86 67-59 0-84-38-90-98-12-110 154-137 174-36l-49 2c-2-19-15-32-35-32-30 0-35 28-38 64-6 74 65 87 74 30" id="au"/><path fill="#333" d="M110-194c64 0 96 36 96 99 0 64-35 99-97 99-61 0-95-36-95-99 0-62 34-99 96-99zm-1 164c35 0 45-28 45-65 0-40-10-65-43-65-34 0-45 26-45 65 0 36 10 65 43 65" id="av"/><path fill="#333" d="M137-138c1-29-70-34-71-4 15 46 118 7 119 86 1 83-164 76-172 9l43-7c4 19 20 25 44 25 33 8 57-30 24-41C81-84 22-81 20-136c-2-80 154-74 161-7" id="aw"/><g id="a"><use transform="matrix(0.05,0,0,0.05,0,0)" xlink:href="#ar"/><use transform="matrix(0.05,0,0,0.05,12.950000000000001,0)" xlink:href="#as"/><use transform="matrix(0.05,0,0,0.05,22.950000000000003,0)" xlink:href="#at"/><use transform="matrix(0.05,0,0,0.05,29.950000000000003,0)" xlink:href="#au"/><use transform="matrix(0.05,0,0,0.05,39.95,0)" xlink:href="#av"/><use transform="matrix(0.05,0,0,0.05,50.900000000000006,0)" xlink:href="#aw"/></g><path fill="#333" d="M33 0v-248h34V0H33" id="ax"/><path fill="#333" d="M30-248c118-7 216 8 213 122C240-48 200 0 122 0H30v-248zM63-27c89 8 146-16 146-99s-60-101-146-95v194" id="ay"/><path fill="#333" d="M185-189c-5-48-123-54-124 2 14 75 158 14 163 119 3 78-121 87-175 55-17-10-28-26-33-46l33-7c5 56 141 63 141-1 0-78-155-14-162-118-5-82 145-84 179-34 5 7 8 16 11 25" id="az"/><path fill="#333" d="M100-194c62-1 85 37 85 99 1 63-27 99-86 99S16-35 15-95c0-66 28-99 85-99zM99-20c44 1 53-31 53-75 0-43-8-75-51-75s-53 32-53 75 10 74 51 75" id="aA"/><path fill="#333" d="M96-169c-40 0-48 33-48 73s9 75 48 75c24 0 41-14 43-38l32 2c-6 37-31 61-74 61-59 0-76-41-82-99-10-93 101-131 147-64 4 7 5 14 7 22l-32 3c-4-21-16-35-41-35" id="aB"/><path fill="#333" d="M24-231v-30h32v30H24zM24 0v-190h32V0H24" id="aC"/><g id="b"><use transform="matrix(0.05,0,0,0.05,0,0)" xlink:href="#ax"/><use transform="matrix(0.05,0,0,0.05,5,0)" xlink:href="#ay"/><use transform="matrix(0.05,0,0,0.05,17.950000000000003,0)" xlink:href="#az"/><use transform="matrix(0.05,0,0,0.05,29.950000000000003,0)" xlink:href="#aA"/><use transform="matrix(0.05,0,0,0.05,39.95,0)" xlink:href="#aB"/><use transform="matrix(0.05,0,0,0.05,48.95,0)" xlink:href="#aC"/><use transform="matrix(0.05,0,0,0.05,52.900000000000006,0)" xlink:href="#aA"/><path fill="#333" d="M-.9 1.25h64.7v1.32H-.9z"/></g><path fill="#333" d="M63-220v92h138v28H63V0H30v-248h175v28H63" id="aD"/><path fill="#333" d="M194 0L95-120 63-95V0H30v-248h33v124l119-124h40L117-140 236 0h-42" id="aE"/><g id="c"><use transform="matrix(0.05,0,0,0.05,0,0)" xlink:href="#aD"/><use transform="matrix(0.05,0,0,0.05,10.950000000000001,0)" xlink:href="#aE"/></g><path fill="#333" d="M190 0L58-211 59 0H30v-248h39L202-35l-2-213h31V0h-41" id="aF"/><path fill="#333" d="M240 0l2-218c-23 76-54 145-80 218h-23L58-218 59 0H30v-248h44l77 211c21-75 51-140 76-211h43V0h-30" id="aG"/><path fill="#333" d="M141-36C126-15 110 5 73 4 37 3 15-17 15-53c-1-64 63-63 125-63 3-35-9-54-41-54-24 1-41 7-42 31l-33-3c5-37 33-52 76-52 45 0 72 20 72 64v82c-1 20 7 32 28 27v20c-31 9-61-2-59-35zM48-53c0 20 12 33 32 33 41-3 63-29 60-74-43 2-92-5-92 41" id="aH"/><path fill="#333" d="M59-47c-2 24 18 29 38 22v24C64 9 27 4 27-40v-127H5v-23h24l9-43h21v43h35v23H59v120" id="aI"/><path fill="#333" d="M114-163C36-179 61-72 57 0H25l-1-190h30c1 12-1 29 2 39 6-27 23-49 58-41v29" id="aJ"/><path fill="#333" d="M84 4C-5 8 30-112 23-190h32v120c0 31 7 50 39 49 72-2 45-101 50-169h31l1 190h-30c-1-10 1-25-2-33-11 22-28 36-60 37" id="aK"/><path fill="#333" d="M24 0v-261h32V0H24" id="aL"/><g id="d"><use transform="matrix(0.05,0,0,0.05,0,0)" xlink:href="#aF"/><use transform="matrix(0.05,0,0,0.05,12.950000000000001,0)" xlink:href="#aA"/><use transform="matrix(0.05,0,0,0.05,22.950000000000003,0)" xlink:href="#aG"/><use transform="matrix(0.05,0,0,0.05,37.900000000000006,0)" xlink:href="#aH"/><use transform="matrix(0.05,0,0,0.05,47.900000000000006,0)" xlink:href="#aI"/><use transform="matrix(0.05,0,0,0.05,52.900000000000006,0)" xlink:href="#aJ"/><use transform="matrix(0.05,0,0,0.05,58.85,0)" xlink:href="#aC"/><use transform="matrix(0.05,0,0,0.05,62.80000000000001,0)" xlink:href="#aB"/><use transform="matrix(0.05,0,0,0.05,71.80000000000001,0)" xlink:href="#aK"/><use transform="matrix(0.05,0,0,0.05,81.80000000000001,0)" xlink:href="#aL"/><use transform="matrix(0.05,0,0,0.05,85.75000000000001,0)" xlink:href="#aH"/><path fill="#333" d="M-.9 1.25h97.55v1.32H-.9z"/></g><path fill="#333" d="M30-248c87 1 191-15 191 75 0 78-77 80-158 76V0H30v-248zm33 125c57 0 124 11 124-50 0-59-68-47-124-48v98" id="aM"/><g id="e"><use transform="matrix(0.05,0,0,0.05,0,0)" xlink:href="#aM"/><use transform="matrix(0.05,0,0,0.05,12,0)" xlink:href="#aE"/></g><path fill="#333" d="M117-194c89-4 53 116 60 194h-32v-121c0-31-8-49-39-48C34-167 62-67 57 0H25l-1-190h30c1 10-1 24 2 32 11-22 29-35 61-36" id="aN"/><path fill="#333" d="M210-169c-67 3-38 105-44 169h-31v-121c0-29-5-50-35-48C34-165 62-65 56 0H25l-1-190h30c1 10-1 24 2 32 10-44 99-50 107 0 11-21 27-35 58-36 85-2 47 119 55 194h-31v-121c0-29-5-49-35-48" id="aO"/><path fill="#333" d="M115-194c53 0 69 39 70 98 0 66-23 100-70 100C84 3 66-7 56-30L54 0H23l1-261h32v101c10-23 28-34 59-34zm-8 174c40 0 45-34 45-75 0-40-5-75-45-74-42 0-51 32-51 76 0 43 10 73 51 73" id="aP"/><path fill="#333" d="M100-194c63 0 86 42 84 106H49c0 40 14 67 53 68 26 1 43-12 49-29l28 8c-11 28-37 45-77 45C44 4 14-33 15-96c1-61 26-98 85-98zm52 81c6-60-76-77-97-28-3 7-6 17-6 28h103" id="aQ"/><g id="f"><use transform="matrix(0.05,0,0,0.05,0,0)" xlink:href="#aN"/><use transform="matrix(0.05,0,0,0.05,10,0)" xlink:href="#aA"/><use transform="matrix(0.05,0,0,0.05,20,0)" xlink:href="#aO"/><use transform="matrix(0.05,0,0,0.05,34.95,0)" xlink:href="#aP"/><use transform="matrix(0.05,0,0,0.05,44.95,0)" xlink:href="#aJ"/><use transform="matrix(0.05,0,0,0.05,50.900000000000006,0)" xlink:href="#aQ"/></g><g id="g"><use transform="matrix(0.05,0,0,0.05,0,0)" xlink:href="#aN"/><use transform="matrix(0.05,0,0,0.05,10,0)" xlink:href="#aK"/><use transform="matrix(0.05,0,0,0.05,20,0)" xlink:href="#aO"/><use transform="matrix(0.05,0,0,0.05,34.95,0)" xlink:href="#aH"/><use transform="matrix(0.05,0,0,0.05,44.95,0)" xlink:href="#aO"/><use transform="matrix(0.05,0,0,0.05,59.900000000000006,0)" xlink:href="#aH"/><use transform="matrix(0.05,0,0,0.05,69.9,0)" xlink:href="#aJ"/><use transform="matrix(0.05,0,0,0.05,75.85000000000001,0)" xlink:href="#aJ"/><use transform="matrix(0.05,0,0,0.05,81.80000000000001,0)" xlink:href="#aQ"/></g><path fill="#333" d="M108 0H70L1-190h34L89-25l56-165h34" id="aR"/><g id="h"><use transform="matrix(0.05,0,0,0.05,0,0)" xlink:href="#aR"/><use transform="matrix(0.05,0,0,0.05,9,0)" xlink:href="#aH"/><use transform="matrix(0.05,0,0,0.05,19,0)" xlink:href="#aL"/><use transform="matrix(0.05,0,0,0.05,22.95,0)" xlink:href="#aA"/><use transform="matrix(0.05,0,0,0.05,32.95,0)" xlink:href="#aJ"/><use transform="matrix(0.05,0,0,0.05,38.900000000000006,0)" xlink:href="#aB"/><use transform="matrix(0.05,0,0,0.05,47.900000000000006,0)" xlink:href="#aK"/><use transform="matrix(0.05,0,0,0.05,57.900000000000006,0)" xlink:href="#aA"/><use transform="matrix(0.05,0,0,0.05,67.9,0)" xlink:href="#aI"/><use transform="matrix(0.05,0,0,0.05,72.9,0)" xlink:href="#aH"/></g><path fill="#333" d="M169-182c-1-43-94-46-97-3 18 66 151 10 154 114 3 95-165 93-204 36-6-8-10-19-12-30l50-8c3 46 112 56 116 5-17-69-150-10-154-114-4-87 153-88 188-35 5 8 8 18 10 28" id="aS"/><path fill="#333" d="M25-224v-37h50v37H25zM25 0v-190h50V0H25" id="aT"/><g id="j"><use transform="matrix(0.05,0,0,0.05,0,0)" xlink:href="#aS"/><use transform="matrix(0.05,0,0,0.05,12,0)" xlink:href="#av"/><use transform="matrix(0.05,0,0,0.05,22.950000000000003,0)" xlink:href="#au"/><use transform="matrix(0.05,0,0,0.05,32.95,0)" xlink:href="#aT"/><use transform="matrix(0.05,0,0,0.05,37.95,0)" xlink:href="#av"/><use transform="matrix(0.05,0,0,0.05,48.900000000000006,0)" xlink:href="#aw"/></g><g id="k"><use transform="matrix(0.05,0,0,0.05,0,0)" xlink:href="#ax"/><use transform="matrix(0.05,0,0,0.05,5,0)" xlink:href="#ay"/><use transform="matrix(0.05,0,0,0.05,17.950000000000003,0)" xlink:href="#az"/><use transform="matrix(0.05,0,0,0.05,29.950000000000003,0)" xlink:href="#aA"/><use transform="matrix(0.05,0,0,0.05,39.95,0)" xlink:href="#aB"/><use transform="matrix(0.05,0,0,0.05,48.95,0)" xlink:href="#aC"/><use transform="matrix(0.05,0,0,0.05,52.900000000000006,0)" xlink:href="#aA"/><path fill="#333" d="M-.9 1.25h64.7v1.32H-.9z"/></g><path fill="#333" d="M85-194c31 0 48 13 60 33l-1-100h32l1 261h-30c-2-10 0-23-3-31C134-8 116 4 85 4 32 4 16-35 15-94c0-66 23-100 70-100zm9 24c-40 0-46 34-46 75 0 40 6 74 45 74 42 0 51-32 51-76 0-42-9-74-50-73" id="aU"/><path fill="#333" d="M100-194c62-1 85 37 85 99 1 63-27 99-86 99S16-35 15-95c0-66 28-99 85-99zM99-20c44 1 53-31 53-75 0-43-8-75-51-75s-53 32-53 75 10 74 51 75zM76-211c8-23 27-35 38-54h36v5l-58 49H76" id="aV"/><g id="l"><use transform="matrix(0.05,0,0,0.05,0,0)" xlink:href="#aU"/><use transform="matrix(0.05,0,0,0.05,10,0)" xlink:href="#aC"/><use transform="matrix(0.05,0,0,0.05,13.949999999999998,0)" xlink:href="#aJ"/><use transform="matrix(0.05,0,0,0.05,19.9,0)" xlink:href="#aQ"/><use transform="matrix(0.05,0,0,0.05,29.899999999999995,0)" xlink:href="#aB"/><use transform="matrix(0.05,0,0,0.05,38.9,0)" xlink:href="#aB"/><use transform="matrix(0.05,0,0,0.05,47.9,0)" xlink:href="#aC"/><use transform="matrix(0.05,0,0,0.05,51.85,0)" xlink:href="#aV"/><use transform="matrix(0.05,0,0,0.05,61.85,0)" xlink:href="#aN"/></g><path fill="#333" d="M101-234c-31-9-42 10-38 44h38v23H63V0H32v-167H5v-23h27c-7-52 17-82 69-68v24" id="aW"/><g id="m"><use transform="matrix(0.05,0,0,0.05,0,0)" xlink:href="#aI"/><use transform="matrix(0.05,0,0,0.05,5,0)" xlink:href="#aQ"/><use transform="matrix(0.05,0,0,0.05,15,0)" xlink:href="#aL"/><use transform="matrix(0.05,0,0,0.05,18.95,0)" xlink:href="#aQ"/><use transform="matrix(0.05,0,0,0.05,28.950000000000003,0)" xlink:href="#aW"/><use transform="matrix(0.05,0,0,0.05,33.95,0)" xlink:href="#aA"/><use transform="matrix(0.05,0,0,0.05,43.95,0)" xlink:href="#aN"/><use transform="matrix(0.05,0,0,0.05,53.95,0)" xlink:href="#aA"/></g><g id="n"><use transform="matrix(0.05,0,0,0.05,0,0)" xlink:href="#aB"/><use transform="matrix(0.05,0,0,0.05,9,0)" xlink:href="#aA"/><use transform="matrix(0.05,0,0,0.05,19,0)" xlink:href="#aJ"/><use transform="matrix(0.05,0,0,0.05,24.95,0)" xlink:href="#aJ"/><use transform="matrix(0.05,0,0,0.05,30.899999999999995,0)" xlink:href="#aQ"/><use transform="matrix(0.05,0,0,0.05,40.9,0)" xlink:href="#aA"/></g><path fill="#333" d="M27 0v-27h64v-190l-56 39v-29l58-41h29v221h61V0H27" id="aX"/><use transform="matrix(0.05,0,0,0.05,0,0)" xlink:href="#aX" id="o"/><path fill="#333" d="M33-154v-36h34v36H33zM33 0v-36h34V0H33" id="aY"/><use transform="matrix(0.05,0,0,0.05,0,0)" xlink:href="#aY" id="p"/><use transform="matrix(0.05,0,0,0.05,0,0)" xlink:href="#aF" id="q"/><path fill="#333" d="M25 0v-261h50V0H25" id="aZ"/><path fill="#333" d="M88-194c31-1 46 15 58 34l-1-101h50l1 261h-48c-2-10 0-23-3-31C134-8 116 4 84 4 32 4 16-41 15-95c0-56 19-97 73-99zm17 164c33 0 40-30 41-66 1-37-9-64-41-64s-38 30-39 65c0 43 13 65 39 65" id="ba"/><g id="r"><use transform="matrix(0.05,0,0,0.05,0,0)" xlink:href="#aS"/><use transform="matrix(0.05,0,0,0.05,12,0)" xlink:href="#as"/><use transform="matrix(0.05,0,0,0.05,22,0)" xlink:href="#aZ"/><use transform="matrix(0.05,0,0,0.05,27,0)" xlink:href="#aT"/><use transform="matrix(0.05,0,0,0.05,32,0)" xlink:href="#ba"/><use transform="matrix(0.05,0,0,0.05,42.95,0)" xlink:href="#as"/><use transform="matrix(0.05,0,0,0.05,52.95,0)" xlink:href="#aw"/></g><g id="s"><use transform="matrix(0.05,0,0,0.05,0,0)" xlink:href="#ax"/><use transform="matrix(0.05,0,0,0.05,5,0)" xlink:href="#ay"/><use transform="matrix(0.05,0,0,0.05,17.950000000000003,0)" xlink:href="#aM"/><use transform="matrix(0.05,0,0,0.05,29.950000000000003,0)" xlink:href="#aH"/><use transform="matrix(0.05,0,0,0.05,39.95,0)" xlink:href="#aI"/><use transform="matrix(0.05,0,0,0.05,44.95,0)" xlink:href="#aJ"/><use transform="matrix(0.05,0,0,0.05,50.900000000000006,0)" xlink:href="#aV"/><use transform="matrix(0.05,0,0,0.05,60.900000000000006,0)" xlink:href="#aN"/><path fill="#333" d="M-.9 1.25h72.7v1.32H-.9z"/></g><g id="t"><use transform="matrix(0.05,0,0,0.05,0,0)" xlink:href="#aD"/><use transform="matrix(0.05,0,0,0.05,10.950000000000001,0)" xlink:href="#aE"/><path fill="#333" d="M22.05 1.25h1.8v1.32h-1.8z"/></g><g id="u"><use transform="matrix(0.05,0,0,0.05,0,0)" xlink:href="#aF"/><use transform="matrix(0.05,0,0,0.05,12.950000000000001,0)" xlink:href="#aA"/><use transform="matrix(0.05,0,0,0.05,22.950000000000003,0)" xlink:href="#aG"/><use transform="matrix(0.05,0,0,0.05,37.900000000000006,0)" xlink:href="#aH"/><use transform="matrix(0.05,0,0,0.05,47.900000000000006,0)" xlink:href="#aI"/><use transform="matrix(0.05,0,0,0.05,52.900000000000006,0)" xlink:href="#aJ"/><use transform="matrix(0.05,0,0,0.05,58.85,0)" xlink:href="#aC"/><use transform="matrix(0.05,0,0,0.05,62.80000000000001,0)" xlink:href="#aB"/><use transform="matrix(0.05,0,0,0.05,71.80000000000001,0)" xlink:href="#aK"/><use transform="matrix(0.05,0,0,0.05,81.80000000000001,0)" xlink:href="#aL"/><use transform="matrix(0.05,0,0,0.05,85.75000000000001,0)" xlink:href="#aH"/><path fill="#333" d="M-.9 1.25h97.55v1.32H-.9z"/></g><g id="v"><use transform="matrix(0.05,0,0,0.05,0,0)" xlink:href="#aD"/><use transform="matrix(0.05,0,0,0.05,10.950000000000001,0)" xlink:href="#aE"/></g><g id="w"><use transform="matrix(0.05,0,0,0.05,0,0)" xlink:href="#ax"/><use transform="matrix(0.05,0,0,0.05,5,0)" xlink:href="#ay"/><use transform="matrix(0.05,0,0,0.05,17.950000000000003,0)" xlink:href="#az"/><use transform="matrix(0.05,0,0,0.05,29.950000000000003,0)" xlink:href="#aA"/><use transform="matrix(0.05,0,0,0.05,39.95,0)" xlink:href="#aB"/><use transform="matrix(0.05,0,0,0.05,48.95,0)" xlink:href="#aC"/><use transform="matrix(0.05,0,0,0.05,52.900000000000006,0)" xlink:href="#aA"/><path fill="#333" d="M-.9 1.25h64.7v1.32H-.9z"/></g><g id="x"><use transform="matrix(0.05,0,0,0.05,0,0)" xlink:href="#ax"/><use transform="matrix(0.05,0,0,0.05,5,0)" xlink:href="#ay"/><use transform="matrix(0.05,0,0,0.05,17.950000000000003,0)" xlink:href="#az"/><use transform="matrix(0.05,0,0,0.05,29.950000000000003,0)" xlink:href="#aH"/><use transform="matrix(0.05,0,0,0.05,39.95,0)" xlink:href="#aL"/><use transform="matrix(0.05,0,0,0.05,43.900000000000006,0)" xlink:href="#aC"/><use transform="matrix(0.05,0,0,0.05,47.85000000000001,0)" xlink:href="#aU"/><use transform="matrix(0.05,0,0,0.05,57.85,0)" xlink:href="#aH"/><path fill="#333" d="M-.9 1.25h69.65v1.32H-.9z"/></g><g id="y"><use transform="matrix(0.05,0,0,0.05,0,0)" xlink:href="#aM"/><use transform="matrix(0.05,0,0,0.05,12,0)" xlink:href="#aE"/></g><path fill="#333" d="M106-169C34-169 62-67 57 0H25v-261h32l-1 103c12-21 28-36 61-36 89 0 53 116 60 194h-32v-121c2-32-8-49-39-48" id="bb"/><g id="z"><use transform="matrix(0.05,0,0,0.05,0,0)" xlink:href="#aW"/><use transform="matrix(0.05,0,0,0.05,5,0)" xlink:href="#aQ"/><use transform="matrix(0.05,0,0,0.05,15,0)" xlink:href="#aB"/><use transform="matrix(0.05,0,0,0.05,24,0)" xlink:href="#bb"/><use transform="matrix(0.05,0,0,0.05,34,0)" xlink:href="#aH"/></g><g id="A"><use transform="matrix(0.05,0,0,0.05,0,0)" xlink:href="#bb"/><use transform="matrix(0.05,0,0,0.05,10,0)" xlink:href="#aA"/><use transform="matrix(0.05,0,0,0.05,20,0)" xlink:href="#aJ"/><use transform="matrix(0.05,0,0,0.05,25.950000000000003,0)" xlink:href="#aH"/></g><path fill="#333" d="M135-143c-3-34-86-38-87 0 15 53 115 12 119 90S17 21 10-45l28-5c4 36 97 45 98 0-10-56-113-15-118-90-4-57 82-63 122-42 12 7 21 19 24 35" id="bc"/><g id="B"><use transform="matrix(0.05,0,0,0.05,0,0)" xlink:href="#aU"/><use transform="matrix(0.05,0,0,0.05,10,0)" xlink:href="#aQ"/><use transform="matrix(0.05,0,0,0.05,20,0)" xlink:href="#bc"/><use transform="matrix(0.05,0,0,0.05,29,0)" xlink:href="#aI"/><use transform="matrix(0.05,0,0,0.05,34,0)" xlink:href="#aC"/><use transform="matrix(0.05,0,0,0.05,37.95,0)" xlink:href="#aN"/><use transform="matrix(0.05,0,0,0.05,47.95,0)" xlink:href="#aA"/></g><g id="C"><use transform="matrix(0.05,0,0,0.05,0,0)" xlink:href="#aS"/><use transform="matrix(0.05,0,0,0.05,12,0)" xlink:href="#av"/><use transform="matrix(0.05,0,0,0.05,22.950000000000003,0)" xlink:href="#au"/><use transform="matrix(0.05,0,0,0.05,32.95,0)" xlink:href="#aT"/><use transform="matrix(0.05,0,0,0.05,37.95,0)" xlink:href="#av"/><use transform="matrix(0.05,0,0,0.05,48.900000000000006,0)" xlink:href="#aw"/></g><path fill="#fe7070" d="M230 0l2-204L168 0h-37L68-204 70 0H24v-248h70l56 185 57-185h69V0h-46" id="bd"/><path fill="#fe7070" d="M140-251c80 0 125 45 125 126S219 4 139 4C58 4 15-44 15-125s44-126 125-126zm-1 214c52 0 73-35 73-88 0-50-21-86-72-86-52 0-73 35-73 86s22 88 72 88" id="be"/><path fill="#fe7070" d="M24-248c120-7 223 5 221 122C244-46 201 0 124 0H24v-248zM76-40c74 7 117-18 117-86 0-67-45-88-117-82v168" id="bf"/><path fill="#fe7070" d="M24 0v-248h195v40H76v63h132v40H76v65h150V0H24" id="bg"/><path fill="#fe7070" d="M24 0v-248h52v208h133V0H24" id="bh"/><g id="D"><use transform="matrix(0.0728395061728395,0,0,0.0728395061728395,0,0)" xlink:href="#bd"/><use transform="matrix(0.0728395061728395,0,0,0.0728395061728395,21.77901234567901,0)" xlink:href="#be"/><use transform="matrix(0.0728395061728395,0,0,0.0728395061728395,42.17407407407407,0)" xlink:href="#bf"/><use transform="matrix(0.0728395061728395,0,0,0.0728395061728395,61.0395061728395,0)" xlink:href="#bg"/><use transform="matrix(0.0728395061728395,0,0,0.0728395061728395,78.52098765432098,0)" xlink:href="#bh"/><use transform="matrix(0.0728395061728395,0,0,0.0728395061728395,94.47283950617283,0)" xlink:href="#be"/></g><path fill="#fe7070" d="M175 0L67-191c6 58 2 128 3 191H24v-248h59L193-55c-6-58-2-129-3-193h46V0h-61" id="bi"/><path fill="#fe7070" d="M136-208V0H84v-208H4v-40h212v40h-80" id="bj"/><path fill="#fe7070" d="M24 0v-248h52V0H24" id="bk"/><path fill="#fe7070" d="M199 0l-22-63H83L61 0H9l90-248h61L250 0h-51zm-33-102l-36-108c-10 38-24 72-36 108h72" id="bl"/><g id="E"><use transform="matrix(0.0728395061728395,0,0,0.0728395061728395,0,0)" xlink:href="#bg"/><use transform="matrix(0.0728395061728395,0,0,0.0728395061728395,17.48148148148148,0)" xlink:href="#bi"/><use transform="matrix(0.0728395061728395,0,0,0.0728395061728395,36.34691358024691,0)" xlink:href="#bj"/><use transform="matrix(0.0728395061728395,0,0,0.0728395061728395,52.29876543209876,0)" xlink:href="#bk"/><use transform="matrix(0.0728395061728395,0,0,0.0728395061728395,59.582716049382704,0)" xlink:href="#bf"/><use transform="matrix(0.0728395061728395,0,0,0.0728395061728395,78.44814814814814,0)" xlink:href="#bl"/><use transform="matrix(0.0728395061728395,0,0,0.0728395061728395,97.31358024691357,0)" xlink:href="#bf"/></g><path fill="#fe7070" d="M14-72v-43h91v43H14" id="bm"/><use transform="matrix(0.0728395061728395,0,0,0.0728395061728395,0,0)" xlink:href="#bm" id="F"/><path fill="#fe7070" d="M240-174c0 40-23 61-54 70L253 0h-59l-57-94H76V0H24v-248c93 4 217-23 216 74zM76-134c48-2 112 12 112-38 0-48-66-32-112-35v73" id="bn"/><path fill="#fe7070" d="M67-125c0 53 21 87 73 88 37 1 54-22 65-47l45 17C233-25 199 4 140 4 58 4 20-42 15-125 8-235 124-281 211-232c18 10 29 29 36 50l-46 12c-8-25-30-41-62-41-52 0-71 34-72 86" id="bo"/><path fill="#fe7070" d="M110-269v-5l44-45h46v8l-60 42h-30zm30 18c80 0 125 45 125 126S219 4 139 4C58 4 15-44 15-125s44-126 125-126zm-1 214c52 0 73-35 73-88 0-50-21-86-72-86-52 0-73 35-73 86s22 88 72 88" id="bp"/><g id="G"><use transform="matrix(0.0728395061728395,0,0,0.0728395061728395,0,0)" xlink:href="#bn"/><use transform="matrix(0.0728395061728395,0,0,0.0728395061728395,18.86543209876543,0)" xlink:href="#bg"/><use transform="matrix(0.0728395061728395,0,0,0.0728395061728395,36.34691358024691,0)" xlink:href="#bh"/><use transform="matrix(0.0728395061728395,0,0,0.0728395061728395,52.29876543209876,0)" xlink:href="#bl"/><use transform="matrix(0.0728395061728395,0,0,0.0728395061728395,71.16419753086419,0)" xlink:href="#bo"/><use transform="matrix(0.0728395061728395,0,0,0.0728395061728395,90.02962962962962,0)" xlink:href="#bk"/><use transform="matrix(0.0728395061728395,0,0,0.0728395061728395,97.31358024691357,0)" xlink:href="#bp"/><use transform="matrix(0.0728395061728395,0,0,0.0728395061728395,117.70864197530864,0)" xlink:href="#bi"/></g><path fill="#fe7070" d="M182-130c37 4 62 22 62 59C244 23 116-4 24 0v-248c84 5 203-23 205 63 0 31-19 50-47 55zM76-148c40-3 101 13 101-30 0-44-60-28-101-31v61zm0 110c48-3 116 14 116-37 0-48-69-32-116-35v72" id="bq"/><path fill="#fe7070" d="M169-182c-1-43-94-46-97-3 18 66 151 10 154 114 3 95-165 93-204 36-6-8-10-19-12-30l50-8c3 46 112 56 116 5-17-69-150-10-154-114-4-87 153-88 188-35 5 8 8 18 10 28" id="br"/><g id="H"><use transform="matrix(0.04248971193415638,0,0,0.04248971193415638,0,0)" xlink:href="#bq"/><use transform="matrix(0.04248971193415638,0,0,0.04248971193415638,11.004835390946502,0)" xlink:href="#bl"/><use transform="matrix(0.04248971193415638,0,0,0.04248971193415638,22.009670781893004,0)" xlink:href="#br"/><use transform="matrix(0.04248971193415638,0,0,0.04248971193415638,32.20720164609053,0)" xlink:href="#bg"/><use transform="matrix(0.04248971193415638,0,0,0.04248971193415638,42.40473251028806,0)" xlink:href="#br"/></g><g id="I"><use transform="matrix(0.04248971193415638,0,0,0.04248971193415638,0,0)" xlink:href="#bf"/><use transform="matrix(0.04248971193415638,0,0,0.04248971193415638,11.004835390946502,0)" xlink:href="#bg"/></g><g id="J"><use transform="matrix(0.04248971193415638,0,0,0.04248971193415638,0,0)" xlink:href="#bf"/><use transform="matrix(0.04248971193415638,0,0,0.04248971193415638,11.004835390946502,0)" xlink:href="#bl"/><use transform="matrix(0.04248971193415638,0,0,0.04248971193415638,20.86244855967078,0)" xlink:href="#bj"/><use transform="matrix(0.04248971193415638,0,0,0.04248971193415638,29.87026748971193,0)" xlink:href="#be"/><use transform="matrix(0.04248971193415638,0,0,0.04248971193415638,41.76738683127572,0)" xlink:href="#br"/></g><path fill="#333" d="M24-248c93 1 206-16 204 79-1 75-69 88-152 82V0H24v-248zm52 121c47 0 100 7 100-41 0-47-54-39-100-39v80" id="bs"/><path fill="#333" d="M115-3C79 11 28 4 28-45v-112H4v-33h27l15-45h31v45h36v33H77v99c-1 23 16 31 38 25v30" id="bt"/><path fill="#333" d="M135-194c87-1 58 113 63 194h-50c-7-57 23-157-34-157-59 0-34 97-39 157H25l-1-190h47c2 12-1 28 3 38 12-26 28-41 61-42" id="bu"/><path fill="#333" d="M185-48c-13 30-37 53-82 52C43 2 14-33 14-96s30-98 90-98c62 0 83 45 84 108H66c0 31 8 55 39 56 18 0 30-7 34-22zm-45-69c5-46-57-63-70-21-2 6-4 13-4 21h74" id="bv"/><g id="K"><use transform="matrix(0.05,0,0,0.05,0,0)" xlink:href="#bs"/><use transform="matrix(0.05,0,0,0.05,12,0)" xlink:href="#as"/><use transform="matrix(0.05,0,0,0.05,22,0)" xlink:href="#bt"/><use transform="matrix(0.05,0,0,0.05,27.950000000000003,0)" xlink:href="#at"/><use transform="matrix(0.05,0,0,0.05,34.95,0)" xlink:href="#av"/><use transform="matrix(0.05,0,0,0.05,45.900000000000006,0)" xlink:href="#bu"/><use transform="matrix(0.05,0,0,0.05,56.85,0)" xlink:href="#bv"/><use transform="matrix(0.05,0,0,0.05,66.85000000000001,0)" xlink:href="#aw"/></g><g id="L"><use transform="matrix(0.05,0,0,0.05,0,0)" xlink:href="#ax"/><use transform="matrix(0.05,0,0,0.05,5,0)" xlink:href="#ay"/><use transform="matrix(0.05,0,0,0.05,17.950000000000003,0)" xlink:href="#aM"/><use transform="matrix(0.05,0,0,0.05,29.950000000000003,0)" xlink:href="#aH"/><use transform="matrix(0.05,0,0,0.05,39.95,0)" xlink:href="#aI"/><use transform="matrix(0.05,0,0,0.05,44.95,0)" xlink:href="#aJ"/><use transform="matrix(0.05,0,0,0.05,50.900000000000006,0)" xlink:href="#aV"/><use transform="matrix(0.05,0,0,0.05,60.900000000000006,0)" xlink:href="#aN"/><path fill="#333" d="M-.9 1.25h72.7v1.32H-.9z"/></g><use transform="matrix(0.05,0,0,0.05,0,0)" xlink:href="#aF" id="M"/><use transform="matrix(0.05,0,0,0.05,0,0)" xlink:href="#aG" id="N"/><use transform="matrix(0.05,0,0,0.05,0,0)" xlink:href="#aX" id="O"/><g id="P"><use transform="matrix(0.0728395061728395,0,0,0.0728395061728395,0,0)" xlink:href="#bn"/><use transform="matrix(0.0728395061728395,0,0,0.0728395061728395,18.86543209876543,0)" xlink:href="#bg"/><use transform="matrix(0.0728395061728395,0,0,0.0728395061728395,36.34691358024691,0)" xlink:href="#bh"/><use transform="matrix(0.0728395061728395,0,0,0.0728395061728395,52.29876543209876,0)" xlink:href="#bl"/><use transform="matrix(0.0728395061728395,0,0,0.0728395061728395,71.16419753086419,0)" xlink:href="#bo"/><use transform="matrix(0.0728395061728395,0,0,0.0728395061728395,90.02962962962962,0)" xlink:href="#bk"/><use transform="matrix(0.0728395061728395,0,0,0.0728395061728395,97.31358024691357,0)" xlink:href="#be"/><use transform="matrix(0.0728395061728395,0,0,0.0728395061728395,117.70864197530864,0)" xlink:href="#bi"/><use transform="matrix(0.0728395061728395,0,0,0.0728395061728395,136.57407407407408,0)" xlink:href="#bl"/><use transform="matrix(0.0728395061728395,0,0,0.0728395061728395,155.43950617283951,0)" xlink:href="#bh"/></g><g id="Q"><use transform="matrix(0.05,0,0,0.05,0,0)" xlink:href="#aI"/><use transform="matrix(0.05,0,0,0.05,5,0)" xlink:href="#aC"/><use transform="matrix(0.05,0,0,0.05,8.95,0)" xlink:href="#aQ"/><use transform="matrix(0.05,0,0,0.05,18.95,0)" xlink:href="#aN"/><use transform="matrix(0.05,0,0,0.05,28.950000000000003,0)" xlink:href="#aQ"/><use transform="matrix(0.05,0,0,0.05,38.95,0)" xlink:href="#aN"/></g><path fill="#333" d="M9 0v-24l116-142H16v-24h144v24L44-24h123V0H9" id="bw"/><g id="R"><use transform="matrix(0.05,0,0,0.05,0,0)" xlink:href="#aJ"/><use transform="matrix(0.05,0,0,0.05,5.95,0)" xlink:href="#aQ"/><use transform="matrix(0.05,0,0,0.05,15.949999999999998,0)" xlink:href="#aH"/><use transform="matrix(0.05,0,0,0.05,25.950000000000003,0)" xlink:href="#aL"/><use transform="matrix(0.05,0,0,0.05,29.899999999999995,0)" xlink:href="#aC"/><use transform="matrix(0.05,0,0,0.05,33.85,0)" xlink:href="#bw"/><use transform="matrix(0.05,0,0,0.05,42.85,0)" xlink:href="#aH"/><use transform="matrix(0.05,0,0,0.05,52.85,0)" xlink:href="#aN"/></g><use transform="matrix(0.05,0,0,0.05,0,0)" xlink:href="#aX" id="S"/><use transform="matrix(0.05,0,0,0.05,0,0)" xlink:href="#aY" id="T"/><use transform="matrix(0.05,0,0,0.05,0,0)" xlink:href="#aF" id="U"/><use transform="matrix(0.05,0,0,0.05,0,0)" xlink:href="#aF" id="V"/><use transform="matrix(0.05,0,0,0.05,0,0)" xlink:href="#aG" id="W"/><g id="X"><use transform="matrix(0.05,0,0,0.05,0,0)" xlink:href="#ax"/><use transform="matrix(0.05,0,0,0.05,5,0)" xlink:href="#ay"/><use transform="matrix(0.05,0,0,0.05,17.950000000000003,0)" xlink:href="#az"/><use transform="matrix(0.05,0,0,0.05,29.950000000000003,0)" xlink:href="#aA"/><use transform="matrix(0.05,0,0,0.05,39.95,0)" xlink:href="#aB"/><use transform="matrix(0.05,0,0,0.05,48.95,0)" xlink:href="#aC"/><use transform="matrix(0.05,0,0,0.05,52.900000000000006,0)" xlink:href="#aA"/><path fill="#333" d="M-.9 1.25h64.7v1.32H-.9z"/></g><g id="Y"><use transform="matrix(0.05,0,0,0.05,0,0)" xlink:href="#aF"/><use transform="matrix(0.05,0,0,0.05,12.950000000000001,0)" xlink:href="#aA"/><use transform="matrix(0.05,0,0,0.05,22.950000000000003,0)" xlink:href="#aO"/><use transform="matrix(0.05,0,0,0.05,37.900000000000006,0)" xlink:href="#aP"/><use transform="matrix(0.05,0,0,0.05,47.900000000000006,0)" xlink:href="#aJ"/><use transform="matrix(0.05,0,0,0.05,53.85,0)" xlink:href="#aQ"/></g><path fill="#333" d="M212-179c-10-28-35-45-73-45-59 0-87 40-87 99 0 60 29 101 89 101 43 0 62-24 78-52l27 14C228-24 195 4 139 4 59 4 22-46 18-125c-6-104 99-153 187-111 19 9 31 26 39 46" id="bx"/><g id="Z"><use transform="matrix(0.05,0,0,0.05,0,0)" xlink:href="#bx"/><use transform="matrix(0.05,0,0,0.05,12.950000000000001,0)" xlink:href="#aA"/><use transform="matrix(0.05,0,0,0.05,22.950000000000003,0)" xlink:href="#aJ"/><use transform="matrix(0.05,0,0,0.05,28.900000000000002,0)" xlink:href="#aJ"/><use transform="matrix(0.05,0,0,0.05,34.85,0)" xlink:href="#aQ"/><use transform="matrix(0.05,0,0,0.05,44.85,0)" xlink:href="#aA"/></g><g id="aa"><use transform="matrix(0.05,0,0,0.05,0,0)" xlink:href="#ay"/><use transform="matrix(0.05,0,0,0.05,12.950000000000001,0)" xlink:href="#aC"/><use transform="matrix(0.05,0,0,0.05,16.900000000000002,0)" xlink:href="#aJ"/><use transform="matrix(0.05,0,0,0.05,22.85,0)" xlink:href="#aQ"/><use transform="matrix(0.05,0,0,0.05,32.85,0)" xlink:href="#aB"/><use transform="matrix(0.05,0,0,0.05,41.85,0)" xlink:href="#aB"/><use transform="matrix(0.05,0,0,0.05,50.85,0)" xlink:href="#aC"/><use transform="matrix(0.05,0,0,0.05,54.800000000000004,0)" xlink:href="#aV"/><use transform="matrix(0.05,0,0,0.05,64.80000000000001,0)" xlink:href="#aN"/></g><g id="ab"><use transform="matrix(0.05,0,0,0.05,0,0)" xlink:href="#aF"/><use transform="matrix(0.05,0,0,0.05,12.950000000000001,0)" xlink:href="#aA"/><use transform="matrix(0.05,0,0,0.05,22.950000000000003,0)" xlink:href="#aG"/><use transform="matrix(0.05,0,0,0.05,37.900000000000006,0)" xlink:href="#aH"/><use transform="matrix(0.05,0,0,0.05,47.900000000000006,0)" xlink:href="#aI"/><use transform="matrix(0.05,0,0,0.05,52.900000000000006,0)" xlink:href="#aJ"/><use transform="matrix(0.05,0,0,0.05,58.85,0)" xlink:href="#aC"/><use transform="matrix(0.05,0,0,0.05,62.80000000000001,0)" xlink:href="#aB"/><use transform="matrix(0.05,0,0,0.05,71.80000000000001,0)" xlink:href="#aK"/><use transform="matrix(0.05,0,0,0.05,81.80000000000001,0)" xlink:href="#aL"/><use transform="matrix(0.05,0,0,0.05,85.75000000000001,0)" xlink:href="#aH"/><path fill="#333" d="M-.9 1.25h97.55v1.32H-.9z"/></g><path fill="#333" d="M205 0l-28-72H64L36 0H1l101-248h38L239 0h-34zm-38-99l-47-123c-12 45-31 82-46 123h93" id="by"/><g id="ac"><use transform="matrix(0.05,0,0,0.05,0,0)" xlink:href="#aF"/><use transform="matrix(0.05,0,0,0.05,12.950000000000001,0)" xlink:href="#aK"/><use transform="matrix(0.05,0,0,0.05,22.950000000000003,0)" xlink:href="#aO"/><use transform="matrix(0.05,0,0,0.05,37.900000000000006,0)" xlink:href="#by"/><use transform="matrix(0.05,0,0,0.05,49.900000000000006,0)" xlink:href="#aO"/><use transform="matrix(0.05,0,0,0.05,64.85000000000001,0)" xlink:href="#aH"/><use transform="matrix(0.05,0,0,0.05,74.85000000000001,0)" xlink:href="#aJ"/><use transform="matrix(0.05,0,0,0.05,80.80000000000001,0)" xlink:href="#aJ"/><use transform="matrix(0.05,0,0,0.05,86.75000000000001,0)" xlink:href="#aQ"/></g><path fill="#333" d="M137 0h-34L2-248h35l83 218 83-218h36" id="bz"/><g id="ad"><use transform="matrix(0.05,0,0,0.05,0,0)" xlink:href="#bz"/><use transform="matrix(0.05,0,0,0.05,10.65,0)" xlink:href="#aH"/><use transform="matrix(0.05,0,0,0.05,20.65,0)" xlink:href="#aL"/><use transform="matrix(0.05,0,0,0.05,24.599999999999998,0)" xlink:href="#aA"/><use transform="matrix(0.05,0,0,0.05,34.599999999999994,0)" xlink:href="#aJ"/><use transform="matrix(0.05,0,0,0.05,40.55,0)" xlink:href="#bx"/><use transform="matrix(0.05,0,0,0.05,53.5,0)" xlink:href="#aK"/><use transform="matrix(0.05,0,0,0.05,63.5,0)" xlink:href="#aA"/><use transform="matrix(0.05,0,0,0.05,73.5,0)" xlink:href="#aI"/><use transform="matrix(0.05,0,0,0.05,78.5,0)" xlink:href="#aH"/></g><g id="ae"><use transform="matrix(0.05,0,0,0.05,0,0)" xlink:href="#ax"/><use transform="matrix(0.05,0,0,0.05,5,0)" xlink:href="#ay"/><use transform="matrix(0.05,0,0,0.05,17.950000000000003,0)" xlink:href="#az"/><use transform="matrix(0.05,0,0,0.05,29.950000000000003,0)" xlink:href="#aH"/><use transform="matrix(0.05,0,0,0.05,39.95,0)" xlink:href="#aL"/><use transform="matrix(0.05,0,0,0.05,43.900000000000006,0)" xlink:href="#aC"/><use transform="matrix(0.05,0,0,0.05,47.85000000000001,0)" xlink:href="#aU"/><use transform="matrix(0.05,0,0,0.05,57.85,0)" xlink:href="#aH"/><path fill="#333" d="M-.9 1.25h69.65v1.32H-.9z"/></g><path fill="#333" d="M197 0v-115H63V0H30v-248h33v105h134v-105h34V0h-34" id="bA"/><g id="af"><use transform="matrix(0.05,0,0,0.05,0,0)" xlink:href="#bA"/><use transform="matrix(0.05,0,0,0.05,12.950000000000001,0)" xlink:href="#aA"/><use transform="matrix(0.05,0,0,0.05,22.950000000000003,0)" xlink:href="#aJ"/><use transform="matrix(0.05,0,0,0.05,28.900000000000002,0)" xlink:href="#aH"/></g><g id="ag"><use transform="matrix(0.05,0,0,0.05,0,0)" xlink:href="#aD"/><use transform="matrix(0.05,0,0,0.05,10.950000000000001,0)" xlink:href="#aQ"/><use transform="matrix(0.05,0,0,0.05,20.950000000000003,0)" xlink:href="#aB"/><use transform="matrix(0.05,0,0,0.05,29.950000000000003,0)" xlink:href="#bb"/><use transform="matrix(0.05,0,0,0.05,39.95,0)" xlink:href="#aH"/></g><path fill="#333" d="M127-220V0H93v-220H8v-28h204v28h-85" id="bB"/><g id="ah"><use transform="matrix(0.05,0,0,0.05,0,0)" xlink:href="#bB"/><use transform="matrix(0.05,0,0,0.05,8.950000000000001,0)" xlink:href="#aQ"/><use transform="matrix(0.05,0,0,0.05,18.950000000000003,0)" xlink:href="#aL"/><use transform="matrix(0.05,0,0,0.05,22.900000000000002,0)" xlink:href="#aQ"/><use transform="matrix(0.05,0,0,0.05,32.900000000000006,0)" xlink:href="#aW"/><use transform="matrix(0.05,0,0,0.05,37.900000000000006,0)" xlink:href="#aA"/><use transform="matrix(0.05,0,0,0.05,47.900000000000006,0)" xlink:href="#aN"/><use transform="matrix(0.05,0,0,0.05,57.900000000000006,0)" xlink:href="#aA"/></g><g id="ai"><use transform="matrix(0.05,0,0,0.05,0,0)" xlink:href="#bs"/><use transform="matrix(0.05,0,0,0.05,12,0)" xlink:href="#as"/><use transform="matrix(0.05,0,0,0.05,22,0)" xlink:href="#bt"/><use transform="matrix(0.05,0,0,0.05,27.950000000000003,0)" xlink:href="#at"/><use transform="matrix(0.05,0,0,0.05,34.95,0)" xlink:href="#av"/><use transform="matrix(0.05,0,0,0.05,45.900000000000006,0)" xlink:href="#bu"/><use transform="matrix(0.05,0,0,0.05,56.85,0)" xlink:href="#bv"/><use transform="matrix(0.05,0,0,0.05,66.85000000000001,0)" xlink:href="#aw"/></g><g id="aj"><use transform="matrix(0.049382716049382706,0,0,0.049382716049382706,0,0)" xlink:href="#aB"/><use transform="matrix(0.049382716049382706,0,0,0.049382716049382706,8.888888888888888,0)" xlink:href="#aA"/><use transform="matrix(0.049382716049382706,0,0,0.049382716049382706,18.76543209876543,0)" xlink:href="#aN"/></g><use transform="matrix(0.05,0,0,0.05,0,0)" xlink:href="#aX" id="ak"/><g id="al"><use transform="matrix(0.05,0,0,0.05,0,0)" xlink:href="#ay"/><use transform="matrix(0.05,0,0,0.05,12.950000000000001,0)" xlink:href="#aQ"/><use transform="matrix(0.05,0,0,0.05,22.950000000000003,0)" xlink:href="#bc"/><use transform="matrix(0.05,0,0,0.05,31.950000000000003,0)" xlink:href="#aI"/><use transform="matrix(0.05,0,0,0.05,36.95,0)" xlink:href="#aC"/><use transform="matrix(0.05,0,0,0.05,40.900000000000006,0)" xlink:href="#aN"/><use transform="matrix(0.05,0,0,0.05,50.900000000000006,0)" xlink:href="#aA"/></g><g id="am"><use transform="matrix(0.05,0,0,0.05,0,0)" xlink:href="#ax"/><use transform="matrix(0.05,0,0,0.05,5,0)" xlink:href="#ay"/><use transform="matrix(0.05,0,0,0.05,17.950000000000003,0)" xlink:href="#az"/><use transform="matrix(0.05,0,0,0.05,29.950000000000003,0)" xlink:href="#aA"/><use transform="matrix(0.05,0,0,0.05,39.95,0)" xlink:href="#aB"/><use transform="matrix(0.05,0,0,0.05,48.95,0)" xlink:href="#aC"/><use transform="matrix(0.05,0,0,0.05,52.900000000000006,0)" xlink:href="#aA"/><path fill="#333" d="M-.9 1.25h64.7v1.32H-.9z"/></g><g id="an"><use transform="matrix(0.05,0,0,0.05,0,0)" xlink:href="#aF"/><use transform="matrix(0.05,0,0,0.05,12.950000000000001,0)" xlink:href="#aA"/><use transform="matrix(0.05,0,0,0.05,22.950000000000003,0)" xlink:href="#aO"/><use transform="matrix(0.05,0,0,0.05,37.900000000000006,0)" xlink:href="#aP"/><use transform="matrix(0.05,0,0,0.05,47.900000000000006,0)" xlink:href="#aJ"/><use transform="matrix(0.05,0,0,0.05,53.85,0)" xlink:href="#aQ"/></g><g id="ao"><use transform="matrix(0.05,0,0,0.05,0,0)" xlink:href="#bx"/><use transform="matrix(0.05,0,0,0.05,12.950000000000001,0)" xlink:href="#aA"/><use transform="matrix(0.05,0,0,0.05,22.950000000000003,0)" xlink:href="#aJ"/><use transform="matrix(0.05,0,0,0.05,28.900000000000002,0)" xlink:href="#aJ"/><use transform="matrix(0.05,0,0,0.05,34.85,0)" xlink:href="#aQ"/><use transform="matrix(0.05,0,0,0.05,44.85,0)" xlink:href="#aA"/></g><g id="ap"><use transform="matrix(0.05,0,0,0.05,0,0)" xlink:href="#ay"/><use transform="matrix(0.05,0,0,0.05,12.950000000000001,0)" xlink:href="#aC"/><use transform="matrix(0.05,0,0,0.05,16.900000000000002,0)" xlink:href="#aJ"/><use transform="matrix(0.05,0,0,0.05,22.85,0)" xlink:href="#aQ"/><use transform="matrix(0.05,0,0,0.05,32.85,0)" xlink:href="#aB"/><use transform="matrix(0.05,0,0,0.05,41.85,0)" xlink:href="#aB"/><use transform="matrix(0.05,0,0,0.05,50.85,0)" xlink:href="#aC"/><use transform="matrix(0.05,0,0,0.05,54.800000000000004,0)" xlink:href="#aV"/><use transform="matrix(0.05,0,0,0.05,64.80000000000001,0)" xlink:href="#aN"/></g><g id="aq"><use transform="matrix(0.05,0,0,0.05,0,0)" xlink:href="#bB"/><use transform="matrix(0.05,0,0,0.05,8.950000000000001,0)" xlink:href="#aQ"/><use transform="matrix(0.05,0,0,0.05,18.950000000000003,0)" xlink:href="#aL"/><use transform="matrix(0.05,0,0,0.05,22.900000000000002,0)" xlink:href="#aQ"/><use transform="matrix(0.05,0,0,0.05,32.900000000000006,0)" xlink:href="#aW"/><use transform="matrix(0.05,0,0,0.05,37.900000000000006,0)" xlink:href="#aA"/><use transform="matrix(0.05,0,0,0.05,47.900000000000006,0)" xlink:href="#aN"/><use transform="matrix(0.05,0,0,0.05,57.900000000000006,0)" xlink:href="#aA"/></g></defs></g></svg>