<svg xmlns="http://www.w3.org/2000/svg" xmlns:xlink="http://www.w3.org/1999/xlink" xmlns:lucid="lucid" width="2423" height="1011"><g transform="translate(760 295)" lucid:page-tab-id="0_0"><path d="M-1000-500h3000v1500h-3000z" fill="#fff"/><path d="M28.67 417.57l70 56.38-70 56.38-70-56.38zM779.33 423.98l79.34 56.38-79.34 56.38L700 480.36z" stroke="#fc9432" stroke-width="2" fill-opacity="0"/><path d="M-1.33-137.32h300v288h-300z" stroke="#1071e5" stroke-width="2" fill="#fff"/><path d="M-1.33-99.72h300" stroke="#1071e5" stroke-width="2" fill="none"/><use xlink:href="#a" transform="matrix(1,0,0,1,6.6666666666667425,-129.31817701031125) translate(106.125 14.6)"/><use xlink:href="#b" transform="matrix(1,0,0,1,10.666666666666742,-91.71817701031125) translate(0 67.10000000000001)"/><use xlink:href="#c" transform="matrix(1,0,0,1,10.666666666666742,-91.71817701031125) translate(214.75 67.10000000000001)"/><use xlink:href="#d" transform="matrix(1,0,0,1,10.666666666666742,-91.71817701031125) translate(0 88.70000000000002)"/><use xlink:href="#e" transform="matrix(1,0,0,1,10.666666666666742,-91.71817701031125) translate(217.9 88.70000000000002)"/><use xlink:href="#f" transform="matrix(1,0,0,1,10.666666666666742,-91.71817701031125) translate(0 110.30000000000001)"/><use xlink:href="#g" transform="matrix(1,0,0,1,10.666666666666742,-91.71817701031125) translate(0 131.9)"/><use xlink:href="#h" transform="matrix(1,0,0,1,10.666666666666742,-91.71817701031125) translate(0 153.50000000000003)"/><use xlink:href="#i" transform="matrix(1,0,0,1,10.666666666666742,-91.71817701031125) translate(0 175.1)"/><path d="M-481.33-135.5h300v285h-300z" stroke="#fe7070" stroke-width="2" fill="#fff"/><path d="M-481.33-97.9h300" stroke="#fe7070" stroke-width="2" fill="none"/><use xlink:href="#j" transform="matrix(1,0,0,1,-473.33333333333326,-127.5) translate(83.6 14.6)"/><use xlink:href="#k" transform="matrix(1,0,0,1,-469.33333333333326,-89.9) translate(0 65.60000000000001)"/><use xlink:href="#e" transform="matrix(1,0,0,1,-469.33333333333326,-89.9) translate(244.75 65.60000000000001)"/><use xlink:href="#l" transform="matrix(1,0,0,1,-469.33333333333326,-89.9) translate(0 87.20000000000002)"/><use xlink:href="#m" transform="matrix(1,0,0,1,-469.33333333333326,-89.9) translate(0 108.80000000000001)"/><use xlink:href="#n" transform="matrix(1,0,0,1,-469.33333333333326,-89.9) translate(0 130.4)"/><use xlink:href="#o" transform="matrix(1,0,0,1,-469.33333333333326,-89.9) translate(0 152.00000000000003)"/><use xlink:href="#i" transform="matrix(1,0,0,1,-469.33333333333326,-89.9) translate(0 173.6)"/><path d="M-110.3 7.5h-69.53v-1h69.52zm107.47-.32h-69.53v-1h69.53z" stroke="#ba23f6" stroke-width=".05" fill="#ba23f6"/><path d="M-179.82 7.5h-.5v-1h.5z" fill="#ba23f6"/><path d="M-179.8 7.53h-.56V6.46h.56zm-.5-1v.94h.45v-.94z" stroke="#ba23f6" stroke-width=".05" fill="#ba23f6"/><path d="M-2.33 7.18h-.52v-1h.52z" fill="#ba23f6"/><path d="M-2.3 7.2h-.57V6.17h.56zm-.52-1v.96h.46V6.2z" stroke="#ba23f6" stroke-width=".05" fill="#ba23f6"/><use xlink:href="#p" transform="matrix(1,0,0,1,-110.30833333333325,-3.9590885051556093) translate(0 14.4)"/><use xlink:href="#q" transform="matrix(1,0,0,1,-110.30833333333325,-3.9590885051556093) translate(15 14.4)"/><use xlink:href="#r" transform="matrix(1,0,0,1,-110.30833333333325,-3.9590885051556093) translate(25 14.4)"/><path d="M498.67-137.32h300v267h-300z" stroke="#cc4e00" stroke-width="2" fill="#fff"/><path d="M498.67-99.72h300" stroke="#cc4e00" stroke-width="2" fill="none"/><use xlink:href="#s" transform="matrix(1,0,0,1,506.66666666666674,-129.31817701031125) translate(71.19999999999999 14.6)"/><use xlink:href="#t" transform="matrix(1,0,0,1,510.66666666666674,-91.71817701031125) translate(0 89)"/><use xlink:href="#e" transform="matrix(1,0,0,1,510.66666666666674,-91.71817701031125) translate(192.95 89)"/><use xlink:href="#u" transform="matrix(1,0,0,1,510.66666666666674,-91.71817701031125) translate(0 110.6)"/><use xlink:href="#v" transform="matrix(1,0,0,1,510.66666666666674,-91.71817701031125) translate(192.9 110.6)"/><use xlink:href="#c" transform="matrix(1,0,0,1,510.66666666666674,-91.71817701031125) translate(221.9 110.6)"/><use xlink:href="#w" transform="matrix(1,0,0,1,510.66666666666674,-91.71817701031125) translate(0 132.2)"/><use xlink:href="#v" transform="matrix(1,0,0,1,510.66666666666674,-91.71817701031125) translate(191.75 132.2)"/><use xlink:href="#x" transform="matrix(1,0,0,1,510.66666666666674,-91.71817701031125) translate(220.75 132.2)"/><path d="M-441.33 444.5h240v59h-240z" stroke="#54c45e" stroke-width="2" fill="#fff"/><use xlink:href="#y" transform="matrix(1,0,0,1,-433.33333333333326,452.5) translate(53.599999999999994 25.1)"/><path d="M-41.33-227.5a8 8 0 0 1 8-8h836.75a8 8 0 0 1 8 8v25.16a8 8 0 0 1-8 8H-33.33a8 8 0 0 1-8-8z" stroke="#000" stroke-opacity="0" stroke-width="2" fill="#fff" fill-opacity="0"/><use xlink:href="#z" transform="matrix(1,0,0,1,-37.33333333333326,-231.5) translate(226.7396296296296 25.782777777777778)"/><use xlink:href="#A" transform="matrix(1,0,0,1,-37.33333333333326,-231.5) translate(348.8914814814815 25.782777777777778)"/><use xlink:href="#B" transform="matrix(1,0,0,1,-37.33333333333326,-231.5) translate(472.3544444444444 25.782777777777778)"/><use xlink:href="#C" transform="matrix(1,0,0,1,-37.33333333333326,-231.5) translate(488.3062962962963 25.782777777777778)"/><path d="M235.15-195.7H544.5M235.17-195.7h-1.02M544.5-195.7h1" stroke="#a9afb8" stroke-width="2" fill="none"/><path d="M-41.33-186.34a8 8 0 0 1 8-8h837.7a8 8 0 0 1 8 8v2.84a8 8 0 0 1-8 8h-837.7a8 8 0 0 1-8-8z" stroke="#000" stroke-opacity="0" stroke-width="2" fill="#fff" fill-opacity="0"/><use xlink:href="#D" transform="matrix(1,0,0,1,-37.3333333333328,-190.3447760431012) translate(359.1762551440329 14.917037037037037)"/><use xlink:href="#E" transform="matrix(1,0,0,1,-37.3333333333328,-190.3447760431012) translate(416.0274897119341 14.917037037037037)"/><use xlink:href="#F" transform="matrix(1,0,0,1,-37.3333333333328,-190.3447760431012) translate(441.4788271604938 14.917037037037037)"/><path d="M958.67-137.32h300v289h-300z" stroke="#54c45e" stroke-width="2" fill="#fff"/><path d="M958.67-99.72h300" stroke="#54c45e" stroke-width="2" fill="none"/><use xlink:href="#G" transform="matrix(1,0,0,1,966.6666666666667,-129.31817701031125) translate(107.07499999999999 14.6)"/><use xlink:href="#H" transform="matrix(1,0,0,1,970.6666666666667,-91.71817701031125) translate(0 78.39999999999999)"/><use xlink:href="#e" transform="matrix(1,0,0,1,970.6666666666667,-91.71817701031125) translate(216.75 78.39999999999999)"/><use xlink:href="#I" transform="matrix(1,0,0,1,970.6666666666667,-91.71817701031125) translate(0 100)"/><use xlink:href="#m" transform="matrix(1,0,0,1,970.6666666666667,-91.71817701031125) translate(0 121.6)"/><use xlink:href="#n" transform="matrix(1,0,0,1,970.6666666666667,-91.71817701031125) translate(0 143.20000000000002)"/><use xlink:href="#J" transform="matrix(1,0,0,1,970.6666666666667,-91.71817701031125) translate(0 164.8)"/><path d="M381.17 7.18h-81v-1h81zm116 0h-81v-1h81z" stroke="#d916a8" stroke-width=".05" fill="#d916a8"/><path d="M300.18 7.18h-.5v-1h.5z" fill="#d916a8"/><path d="M300.2 7.2h-.56V6.17h.56zm-.5-1v.96h.45V6.2z" stroke="#d916a8" stroke-width=".05" fill="#d916a8"/><path d="M497.67 7.18h-.52v-1h.52z" fill="#d916a8"/><path d="M497.7 7.2h-.57V6.17h.56zm-.52-1v.96h.46V6.2z" stroke="#d916a8" stroke-width=".05" fill="#d916a8"/><use xlink:href="#K" transform="matrix(1,0,0,1,381.16666666666674,-4.118177010311246) translate(0 14.4)"/><use xlink:href="#L" transform="matrix(1,0,0,1,381.16666666666674,-4.118177010311246) translate(15 14.4)"/><use xlink:href="#M" transform="matrix(1,0,0,1,381.16666666666674,-4.118177010311246) translate(25 14.4)"/><path d="M861.17 7.68h-61v-1h61zm96 0h-61v-1h61z" stroke="#d916a8" stroke-width=".05" fill="#d916a8"/><path d="M800.18 7.68h-.5v-1h.5z" fill="#d916a8"/><path d="M800.2 7.7h-.56V6.67h.56zm-.5-1v.96h.45V6.7z" stroke="#d916a8" stroke-width=".05" fill="#d916a8"/><path d="M957.67 7.68h-.52v-1h.52z" fill="#d916a8"/><path d="M957.7 7.7h-.57V6.67h.56zm-.52-1v.96h.46V6.7z" stroke="#d916a8" stroke-width=".05" fill="#d916a8"/><use xlink:href="#K" transform="matrix(1,0,0,1,861.1666666666667,-3.6181770103112747) translate(0 14.4)"/><use xlink:href="#L" transform="matrix(1,0,0,1,861.1666666666667,-3.6181770103112747) translate(15 14.4)"/><use xlink:href="#M" transform="matrix(1,0,0,1,861.1666666666667,-3.6181770103112747) translate(25 14.4)"/><path d="M-41.33 192.16a8 8 0 0 1 8-8h836.75a8 8 0 0 1 8 8v25.16a8 8 0 0 1-8 8H-33.33a8 8 0 0 1-8-8z" stroke="#000" stroke-opacity="0" stroke-width="2" fill="#fff" fill-opacity="0"/><use xlink:href="#z" transform="matrix(1,0,0,1,-37.3333333333328,188.1599999997672) translate(279.0383950617284 25.782777777777778)"/><use xlink:href="#N" transform="matrix(1,0,0,1,-37.3333333333328,188.1599999997672) translate(401.19024691358027 25.782777777777778)"/><path d="M235.15 223.97H544.5M235.17 223.97h-1.02M544.5 223.97h1" stroke="#a9afb8" stroke-width="2" fill="none"/><path d="M-41.33 233.3a8 8 0 0 1 8-8h837.7a8 8 0 0 1 8 8v2.86a8 8 0 0 1-8 8h-837.7a8 8 0 0 1-8-8z" stroke="#000" stroke-opacity="0" stroke-width="2" fill="#fff" fill-opacity="0"/><use xlink:href="#D" transform="matrix(1,0,0,1,-37.33333333333235,229.31522395666593) translate(359.1762551440329 14.917037037037037)"/><use xlink:href="#E" transform="matrix(1,0,0,1,-37.33333333333235,229.31522395666593) translate(416.0274897119341 14.917037037037037)"/><use xlink:href="#F" transform="matrix(1,0,0,1,-37.33333333333235,229.31522395666593) translate(441.4788271604938 14.917037037037037)"/><path d="M268.67 444.5h240v59h-240z" stroke="#54c45e" stroke-width="2" fill="#fff"/><use xlink:href="#a" transform="matrix(1,0,0,1,276.66666666666674,452.5) translate(76.125 25.1)"/><path d="M1068.67 444.5h240v59h-240z" stroke="#54c45e" stroke-width="2" fill="#fff"/><use xlink:href="#G" transform="matrix(1,0,0,1,1076.6666666666667,452.5) translate(77.07499999999999 25.1)"/><path d="M-91.33 443.5h240v60h-240z" fill="none"/><use xlink:href="#O" transform="matrix(1,0,0,1,-91.33333333333326,443.5) translate(95.525 33.6)"/><path d="M658.67 452h240v60h-240z" fill="none"/><use xlink:href="#P" transform="matrix(1,0,0,1,658.6666666666667,452) translate(57.55 33.6)"/><use xlink:href="#Q" transform="matrix(1,0,0,1,658.6666666666667,452) translate(172.45 33.6)"/><path d="M-199.83 474.13H-43.2" stroke="#e81313" fill="none"/><path d="M-199.82 474.63h-.5v-1h.5zM-42.93 473.95l.85.68h-1.14v-1h.7z" stroke="#e81313" stroke-width=".05" fill="#e81313"/><path d="M100.76 473.95h83.18a.02.02 0 0 1 .02.03.02.02 0 0 0 .03.02h83.17" stroke="#e81313" fill="none"/><path d="M100.77 474.45h-1.13l.62-.5-.62-.5h1.13zM267.67 474.5h-.52v-1h.52z" stroke="#e81313" stroke-width=".05" fill="#e81313"/><path d="M847.63 470.93h219.54" stroke="#e81313" fill="none"/><path d="M847.63 471.3l-1-.72v-.15h1zM1067.67 471.43h-.52v-1h.52z" stroke="#e81313" stroke-width=".05" fill="#e81313"/><path d="M-91.33 374.5h240v60h-240z" stroke="#000" stroke-opacity="0" stroke-width="2" fill="#fff" fill-opacity="0"/><use xlink:href="#R" transform="matrix(1,0,0,1,-86.33333333333326,379.5) translate(96.025 30.025)"/><use xlink:href="#S" transform="matrix(1,0,0,1,-86.33333333333326,379.5) translate(111.025 30.025)"/><use xlink:href="#T" transform="matrix(1,0,0,1,-86.33333333333326,379.5) translate(121.025 30.025)"/><path d="M668.67 374.5h240v60h-240z" stroke="#000" stroke-opacity="0" stroke-width="2" fill="#fff" fill-opacity="0"/><use xlink:href="#U" transform="matrix(1,0,0,1,673.6666666666667,379.5) translate(97.5 30.025)"/><use xlink:href="#V" transform="matrix(1,0,0,1,673.6666666666667,379.5) translate(112.5 30.025)"/><use xlink:href="#W" transform="matrix(1,0,0,1,673.6666666666667,379.5) translate(122.5 30.025)"/><path d="M-485.08 324.5c13.1 0 23.75 10.63 23.75 23.75S-471.97 372-485.08 372h-112.5c-13.12 0-23.75-10.63-23.75-23.75s10.63-23.75 23.75-23.75z" stroke="#6db1ff" stroke-width="2" fill="#fff"/><use xlink:href="#X" transform="matrix(1,0,0,1,-616.3333333333333,329.5) translate(15.124999999999993 21.525)"/><path d="M-165.08 309.5c13.1 0 23.75 10.63 23.75 23.75S-151.97 357-165.08 357h-112.5c-13.12 0-23.75-10.63-23.75-23.75s10.63-23.75 23.75-23.75z" stroke="#6db1ff" stroke-width="2" fill="#fff"/><use xlink:href="#Y" transform="matrix(1,0,0,1,-296.33333333333326,314.5) translate(43.074999999999996 21.525)"/><path d="M-563.75 515c13.12 0 23.75 10.64 23.75 23.76 0 13.1-10.63 23.75-23.75 23.75h-112.5c-13.12 0-23.75-10.63-23.75-23.74 0-13.12 10.63-23.75 23.75-23.75z" stroke="#6db1ff" stroke-width="2" fill="#fff"/><use xlink:href="#Z" transform="matrix(1,0,0,1,-695,520.0074066887173) translate(47.575 21.525)"/><path d="M-143.75 575.92c13.12 0 23.75 10.63 23.75 23.75 0 13.1-10.63 23.75-23.75 23.75h-112.5c-13.12 0-23.75-10.64-23.75-23.75 0-13.12 10.63-23.75 23.75-23.75z" stroke="#6db1ff" stroke-width="2" fill="#fff"/><use xlink:href="#aa" transform="matrix(1,0,0,1,-275,580.9157894005797) translate(37.599999999999994 21.525)"/><path d="M-321.33 443v-30.25a12 12 0 0 1 12-12h61.5a12 12 0 0 0 12-12V358.5" stroke="#e81313" fill="none"/><path d="M-320.83 443.5h-1v-.5h1zM-235.33 358.5h-1v-.5h1z" stroke="#e81313" stroke-width=".05" fill="#e81313"/><path d="M-442.83 474h-88.5a12 12 0 0 1-12-12v-88.5" stroke="#e81313" fill="none"/><path d="M-442.33 474.5h-.52v-1h.52zM-542.83 373.5h-1v-.5h1z" stroke="#e81313" stroke-width=".05" fill="#e81313"/><path d="M-442.83 493.33H-608a12 12 0 0 0-12 12v8.18" stroke="#e81313" fill="none"/><path d="M-442.33 493.83h-.52v-1h.52zM-619.5 514h-1v-.5h1z" stroke="#e81313" stroke-width=".05" fill="#e81313"/><path d="M-321.33 505v22.7a12 12 0 0 0 12 12h107.83a12 12 0 0 1 12 12v22.72" stroke="#e81313" fill="none"/><path d="M-320.83 505h-1v-.5h1zM-189 574.92h-1v-.52h1z" stroke="#e81313" stroke-width=".05" fill="#e81313"/><path d="M644.92 309.5c13.1 0 23.75 10.63 23.75 23.75S658.03 357 644.92 357h-112.5c-13.12 0-23.75-10.63-23.75-23.75s10.63-23.75 23.75-23.75z" stroke="#6db1ff" stroke-width="2" fill="#fff"/><use xlink:href="#ab" transform="matrix(1,0,0,1,513.6666666666667,314.5) translate(29.074999999999996 21.525)"/><path d="M294.92 324.5c13.1 0 23.75 10.63 23.75 23.75S308.03 372 294.92 372h-112.5c-13.12 0-23.75-10.63-23.75-23.75s10.63-23.75 23.75-23.75z" stroke="#6db1ff" stroke-width="2" fill="#fff"/><use xlink:href="#ac" transform="matrix(1,0,0,1,163.66666666666674,329.5) translate(18.549999999999997 21.525)"/><path d="M274.92 562.5c13.1 0 23.75 10.64 23.75 23.76 0 13.1-10.64 23.75-23.75 23.75h-112.5c-13.12 0-23.75-10.63-23.75-23.74 0-13.12 10.63-23.75 23.75-23.75z" stroke="#6db1ff" stroke-width="2" fill="#fff"/><use xlink:href="#ad" transform="matrix(1,0,0,1,143.66666666666674,567.5074066887173) translate(2.6499999999999915 21.525)"/><path d="M634.92 584.5c13.1 0 23.75 10.63 23.75 23.75S648.03 632 634.92 632h-112.5c-13.12 0-23.75-10.63-23.75-23.75s10.63-23.75 23.75-23.75z" stroke="#6db1ff" stroke-width="2" fill="#fff"/><use xlink:href="#ae" transform="matrix(1,0,0,1,503.66666666666674,589.5) translate(47 21.525)"/><path d="M309.17 443v-22.75a12 12 0 0 0-12-12h-46.5a12 12 0 0 1-12-12V373.5" stroke="#e81313" fill="none"/><path d="M309.67 443.5h-1v-.5h1zM239.17 373.5h-1v-.5h1z" stroke="#e81313" stroke-width=".05" fill="#e81313"/><path d="M440.2 443v-30.25a12 12 0 0 1 12-12h124.47a12 12 0 0 0 12-12V358.5" stroke="#e81313" fill="none"/><path d="M440.7 443.5h-1v-.5h1zM589.17 358.5h-1v-.5h1z" stroke="#e81313" stroke-width=".05" fill="#e81313"/><path d="M388.67 505v16a12 12 0 0 1-12 12h-146a12 12 0 0 0-12 12v16" stroke="#e81313" fill="none"/><path d="M389.17 505h-1v-.5h1zM219.17 561.5h-1v-.5h1z" stroke="#e81313" stroke-width=".05" fill="#e81313"/><path d="M435.28 505v27a12 12 0 0 0 12 12h119.4a12 12 0 0 1 12 12v27" stroke="#e81313" fill="none"/><path d="M435.78 505h-1v-.5h1zM579.17 583.5h-1v-.5h1z" stroke="#e81313" stroke-width=".05" fill="#e81313"/><path d="M1172.4 335.8c13.12 0 23.76 10.63 23.76 23.75s-10.64 23.75-23.75 23.75h-112.5c-13.1 0-23.74-10.63-23.74-23.75s10.63-23.75 23.75-23.75z" stroke="#6db1ff" stroke-width="2" fill="#fff"/><g><use xlink:href="#af" transform="matrix(1,0,0,1,1041.1570864228015,340.8018258428916) translate(31.625 21.525)"/></g><path d="M1444.92 575.92c13.1 0 23.75 10.63 23.75 23.75 0 13.1-10.64 23.75-23.75 23.75h-112.5c-13.12 0-23.75-10.64-23.75-23.75 0-13.12 10.63-23.75 23.75-23.75z" stroke="#6db1ff" stroke-width="2" fill="#fff"/><g><use xlink:href="#Y" transform="matrix(1,0,0,1,1313.6666666666667,580.9157894005797) translate(43.074999999999996 21.525)"/></g><path d="M1474.92 335.8c13.1 0 23.75 10.63 23.75 23.75s-10.64 23.75-23.75 23.75h-112.5c-13.12 0-23.75-10.63-23.75-23.75s10.63-23.75 23.75-23.75z" stroke="#6db1ff" stroke-width="2" fill="#fff"/><g><use xlink:href="#aa" transform="matrix(1,0,0,1,1343.6666666666667,340.8018258428916) translate(37.599999999999994 21.525)"/></g><path d="M1092.07 559.66c14.7 0 26.6 11.9 26.6 26.6 0 14.7-11.9 26.6-26.6 26.6h-106.8c-14.7 0-26.6-11.9-26.6-26.6 0-14.7 11.9-26.6 26.6-26.6z" stroke="#6db1ff" stroke-width="2" fill="#fff"/><g><use xlink:href="#ag" transform="matrix(1,0,0,1,963.6666666666667,564.6574066887173) translate(41.05 25.4)"/></g><path d="M1266.67 443v-27.5a12 12 0 0 1 12-12h108.7a12 12 0 0 0 12-12v-6.7" stroke="#e81313" fill="none"/><path d="M1267.17 443.5h-1v-.5h1zM1399.87 384.8h-1v-.5h1z" stroke="#e81313" stroke-width=".05" fill="#e81313"/><path d="M1038.67 558.16v-14.58a12 12 0 0 1 12-12h126a12 12 0 0 0 12-12V505" stroke="#e81313" fill="none"/><path d="M1039.17 558.66h-1v-.5h1zM1189.17 505h-1v-.5h1z" stroke="#e81313" stroke-width=".05" fill="#e81313"/><path d="M1248.73 505v22.7a12 12 0 0 0 12 12h115.94a12 12 0 0 1 12 12v22.72" stroke="#e81313" fill="none"/><path d="M1249.23 505h-1v-.5h1zM1389.17 574.92h-1v-.52h1z" stroke="#e81313" stroke-width=".05" fill="#e81313"/><path d="M1062.14 384.8v17.1a12 12 0 0 0 12 12h102.53a12 12 0 0 1 12 12V443" stroke="#e81313" fill="none"/><path d="M1062.64 384.8h-1v-.5h1zM1189.17 443.5h-1v-.5h1z" stroke="#e81313" stroke-width=".05" fill="#e81313"/><path d="M-383.75 591c13.12 0 23.75 10.63 23.75 23.75s-10.63 23.75-23.75 23.75h-112.5c-13.12 0-23.75-10.63-23.75-23.75S-509.37 591-496.25 591z" stroke="#6db1ff" stroke-width="2" fill="#fff"/><g><use xlink:href="#ag" transform="matrix(1,0,0,1,-515,596) translate(41.05 21.525)"/></g><path d="M-440 589v-35.75a6 6 0 0 1 6-6h21.33a6 6 0 0 0 6-6V505.5" stroke="#e81313" stroke-width="2" fill="none"/><path d="M-439 590h-2v-1.03h2zM-405.67 505.53h-2v-1.03h2z" stroke="#e81313" stroke-width=".05" fill="#e81313"/><path d="M510.17 474h196.55" stroke="#e81313" fill="none"/><path d="M510.18 474.5h-.5v-1h.5zM706.7 474.36v-.86h1.23z" stroke="#e81313" stroke-width=".05" fill="#e81313"/><path d="M1578.92 466.92c13.1 0 23.75 10.63 23.75 23.75 0 13.1-10.64 23.75-23.75 23.75h-112.5c-13.12 0-23.75-10.64-23.75-23.75 0-13.12 10.63-23.75 23.75-23.75z" stroke="#6db1ff" stroke-width="2" fill="#fff"/><g><use xlink:href="#ah" transform="matrix(1,0,0,1,1447.666666666667,471.91666666666686) translate(47.575 21.525)"/></g><path d="M1310.67 474h59a6 6 0 0 1 6 6v4.67a6 6 0 0 0 6 6h59" stroke="#e81313" stroke-width="2" fill="none"/><path d="M1310.7 475h-1.03v-2h1.02zM1441.66 490.64l.05 1.03h-1.06v-2h1.13z" stroke="#e81313" stroke-width=".05" fill="#e81313"/><defs><path fill="#333" d="M199 0l-22-63H83L61 0H9l90-248h61L250 0h-51zm-33-102l-36-108c-10 38-24 72-36 108h72" id="ai"/><path fill="#333" d="M137-138c1-29-70-34-71-4 15 46 118 7 119 86 1 83-164 76-172 9l43-7c4 19 20 25 44 25 33 8 57-30 24-41C81-84 22-81 20-136c-2-80 154-74 161-7" id="aj"/><path fill="#333" d="M85 4C-2 5 27-109 22-190h50c7 57-23 150 33 157 60-5 35-97 40-157h50l1 190h-47c-2-12 1-28-3-38-12 25-28 42-61 42" id="ak"/><path fill="#333" d="M135-194c87-1 58 113 63 194h-50c-7-57 23-157-34-157-59 0-34 97-39 157H25l-1-190h47c2 12-1 28 3 38 12-26 28-41 61-42" id="al"/><path fill="#333" d="M115-3C79 11 28 4 28-45v-112H4v-33h27l15-45h31v45h36v33H77v99c-1 23 16 31 38 25v30" id="am"/><path fill="#333" d="M110-194c64 0 96 36 96 99 0 64-35 99-97 99-61 0-95-36-95-99 0-62 34-99 96-99zm-1 164c35 0 45-28 45-65 0-40-10-65-43-65-34 0-45 26-45 65 0 36 10 65 43 65" id="an"/><g id="a"><use transform="matrix(0.05,0,0,0.05,0,0)" xlink:href="#ai"/><use transform="matrix(0.05,0,0,0.05,12.950000000000001,0)" xlink:href="#aj"/><use transform="matrix(0.05,0,0,0.05,22.950000000000003,0)" xlink:href="#ak"/><use transform="matrix(0.05,0,0,0.05,33.900000000000006,0)" xlink:href="#al"/><use transform="matrix(0.05,0,0,0.05,44.85000000000001,0)" xlink:href="#am"/><use transform="matrix(0.05,0,0,0.05,50.80000000000001,0)" xlink:href="#an"/><use transform="matrix(0.05,0,0,0.05,61.750000000000014,0)" xlink:href="#aj"/></g><path fill="#333" d="M30-248c118-7 216 8 213 122C240-48 200 0 122 0H30v-248zM63-27c89 8 146-16 146-99s-60-101-146-95v194" id="ao"/><path fill="#333" d="M190 0L58-211 59 0H30v-248h39L202-35l-2-213h31V0h-41" id="ap"/><path fill="#333" d="M33 0v-248h34V0H33" id="aq"/><path fill="#333" d="M30-248c87 1 191-15 191 75 0 78-77 80-158 76V0H30v-248zm33 125c57 0 124 11 124-50 0-59-68-47-124-48v98" id="ar"/><path fill="#333" d="M114-163C36-179 61-72 57 0H25l-1-190h30c1 12-1 29 2 39 6-27 23-49 58-41v29" id="as"/><path fill="#333" d="M100-194c62-1 85 37 85 99 1 63-27 99-86 99S16-35 15-95c0-66 28-99 85-99zM99-20c44 1 53-31 53-75 0-43-8-75-51-75s-53 32-53 75 10 74 51 75" id="at"/><path fill="#333" d="M96-169c-40 0-48 33-48 73s9 75 48 75c24 0 41-14 43-38l32 2c-6 37-31 61-74 61-59 0-76-41-82-99-10-93 101-131 147-64 4 7 5 14 7 22l-32 3c-4-21-16-35-41-35" id="au"/><path fill="#333" d="M84 4C-5 8 30-112 23-190h32v120c0 31 7 50 39 49 72-2 45-101 50-169h31l1 190h-30c-1-10 1-25-2-33-11 22-28 36-60 37" id="av"/><path fill="#333" d="M141-36C126-15 110 5 73 4 37 3 15-17 15-53c-1-64 63-63 125-63 3-35-9-54-41-54-24 1-41 7-42 31l-33-3c5-37 33-52 76-52 45 0 72 20 72 64v82c-1 20 7 32 28 27v20c-31 9-61-2-59-35zM48-53c0 20 12 33 32 33 41-3 63-29 60-74-43 2-92-5-92 41" id="aw"/><path fill="#333" d="M85-194c31 0 48 13 60 33l-1-100h32l1 261h-30c-2-10 0-23-3-31C134-8 116 4 85 4 32 4 16-35 15-94c0-66 23-100 70-100zm9 24c-40 0-46 34-46 75 0 40 6 74 45 74 42 0 51-32 51-76 0-42-9-74-50-73" id="ax"/><g id="b"><use transform="matrix(0.05,0,0,0.05,0,0)" xlink:href="#ao"/><use transform="matrix(0.05,0,0,0.05,12.950000000000001,0)" xlink:href="#ap"/><use transform="matrix(0.05,0,0,0.05,25.900000000000002,0)" xlink:href="#aq"/><use transform="matrix(0.05,0,0,0.05,30.900000000000002,0)" xlink:href="#ar"/><use transform="matrix(0.05,0,0,0.05,42.900000000000006,0)" xlink:href="#as"/><use transform="matrix(0.05,0,0,0.05,48.85000000000001,0)" xlink:href="#at"/><use transform="matrix(0.05,0,0,0.05,58.85,0)" xlink:href="#au"/><use transform="matrix(0.05,0,0,0.05,67.85000000000001,0)" xlink:href="#av"/><use transform="matrix(0.05,0,0,0.05,77.85000000000001,0)" xlink:href="#as"/><use transform="matrix(0.05,0,0,0.05,83.80000000000001,0)" xlink:href="#aw"/><use transform="matrix(0.05,0,0,0.05,93.80000000000001,0)" xlink:href="#ax"/><use transform="matrix(0.05,0,0,0.05,103.80000000000001,0)" xlink:href="#at"/><use transform="matrix(0.05,0,0,0.05,113.80000000000001,0)" xlink:href="#as"/><path fill="#333" d="M-.9 1.25h121.55v1.32H-.9z"/></g><path fill="#333" d="M63-220v92h138v28H63V0H30v-248h175v28H63" id="ay"/><path fill="#333" d="M194 0L95-120 63-95V0H30v-248h33v124l119-124h40L117-140 236 0h-42" id="az"/><g id="c"><use transform="matrix(0.05,0,0,0.05,0,0)" xlink:href="#ay"/><use transform="matrix(0.05,0,0,0.05,10.950000000000001,0)" xlink:href="#az"/></g><path fill="#333" d="M30 0v-248h187v28H63v79h144v27H63v87h162V0H30" id="aA"/><path fill="#333" d="M141 0L90-78 38 0H4l68-98-65-92h35l48 74 47-74h35l-64 92 68 98h-35" id="aB"/><path fill="#333" d="M115-194c55 1 70 41 70 98S169 2 115 4C84 4 66-9 55-30l1 105H24l-1-265h31l2 30c10-21 28-34 59-34zm-8 174c40 0 45-34 45-75s-6-73-45-74c-42 0-51 32-51 76 0 43 10 73 51 73" id="aC"/><path fill="#333" d="M100-194c63 0 86 42 84 106H49c0 40 14 67 53 68 26 1 43-12 49-29l28 8c-11 28-37 45-77 45C44 4 14-33 15-96c1-61 26-98 85-98zm52 81c6-60-76-77-97-28-3 7-6 17-6 28h103" id="aD"/><path fill="#333" d="M24-231v-30h32v30H24zM24 0v-190h32V0H24" id="aE"/><path fill="#333" d="M117-194c89-4 53 116 60 194h-32v-121c0-31-8-49-39-48C34-167 62-67 57 0H25l-1-190h30c1 10-1 24 2 32 11-22 29-35 61-36" id="aF"/><path fill="#333" d="M59-47c-2 24 18 29 38 22v24C64 9 27 4 27-40v-127H5v-23h24l9-43h21v43h35v23H59v120" id="aG"/><g id="d"><use transform="matrix(0.05,0,0,0.05,0,0)" xlink:href="#ap"/><use transform="matrix(0.05,0,0,0.05,12.950000000000001,0)" xlink:href="#at"/><use transform="matrix(0.05,0,0,0.05,22.950000000000003,0)" xlink:href="#aA"/><use transform="matrix(0.05,0,0,0.05,34.95,0)" xlink:href="#aB"/><use transform="matrix(0.05,0,0,0.05,43.95,0)" xlink:href="#aC"/><use transform="matrix(0.05,0,0,0.05,53.95,0)" xlink:href="#aD"/><use transform="matrix(0.05,0,0,0.05,63.95,0)" xlink:href="#ax"/><use transform="matrix(0.05,0,0,0.05,73.95,0)" xlink:href="#aE"/><use transform="matrix(0.05,0,0,0.05,77.9,0)" xlink:href="#aD"/><use transform="matrix(0.05,0,0,0.05,87.9,0)" xlink:href="#aF"/><use transform="matrix(0.05,0,0,0.05,97.9,0)" xlink:href="#aG"/><use transform="matrix(0.05,0,0,0.05,102.9,0)" xlink:href="#aD"/><path fill="#333" d="M-.9 1.25h114.7v1.32H-.9z"/></g><g id="e"><use transform="matrix(0.05,0,0,0.05,0,0)" xlink:href="#ar"/><use transform="matrix(0.05,0,0,0.05,12,0)" xlink:href="#az"/></g><path fill="#333" d="M101-234c-31-9-42 10-38 44h38v23H63V0H32v-167H5v-23h27c-7-52 17-82 69-68v24" id="aH"/><path fill="#333" d="M106-169C34-169 62-67 57 0H25v-261h32l-1 103c12-21 28-36 61-36 89 0 53 116 60 194h-32v-121c2-32-8-49-39-48" id="aI"/><g id="f"><use transform="matrix(0.05,0,0,0.05,0,0)" xlink:href="#aH"/><use transform="matrix(0.05,0,0,0.05,5,0)" xlink:href="#aD"/><use transform="matrix(0.05,0,0,0.05,15,0)" xlink:href="#au"/><use transform="matrix(0.05,0,0,0.05,24,0)" xlink:href="#aI"/><use transform="matrix(0.05,0,0,0.05,34,0)" xlink:href="#aw"/><use transform="matrix(0.05,0,0,0.05,44,0)" xlink:href="#aE"/><use transform="matrix(0.05,0,0,0.05,47.95,0)" xlink:href="#aF"/><use transform="matrix(0.05,0,0,0.05,57.95,0)" xlink:href="#aE"/><use transform="matrix(0.05,0,0,0.05,61.900000000000006,0)" xlink:href="#au"/><use transform="matrix(0.05,0,0,0.05,70.9,0)" xlink:href="#aE"/><use transform="matrix(0.05,0,0,0.05,74.85000000000001,0)" xlink:href="#at"/></g><path fill="#333" d="M24 0v-261h32V0H24" id="aJ"/><path fill="#333" d="M9 0v-24l116-142H16v-24h144v24L44-24h123V0H9" id="aK"/><path fill="#333" d="M100-194c62-1 85 37 85 99 1 63-27 99-86 99S16-35 15-95c0-66 28-99 85-99zM99-20c44 1 53-31 53-75 0-43-8-75-51-75s-53 32-53 75 10 74 51 75zM76-211c8-23 27-35 38-54h36v5l-58 49H76" id="aL"/><g id="g"><use transform="matrix(0.05,0,0,0.05,0,0)" xlink:href="#aH"/><use transform="matrix(0.05,0,0,0.05,5,0)" xlink:href="#aD"/><use transform="matrix(0.05,0,0,0.05,15,0)" xlink:href="#au"/><use transform="matrix(0.05,0,0,0.05,24,0)" xlink:href="#aI"/><use transform="matrix(0.05,0,0,0.05,34,0)" xlink:href="#aw"/><use transform="matrix(0.05,0,0,0.05,44,0)" xlink:href="#aH"/><use transform="matrix(0.05,0,0,0.05,49,0)" xlink:href="#aE"/><use transform="matrix(0.05,0,0,0.05,52.95,0)" xlink:href="#aF"/><use transform="matrix(0.05,0,0,0.05,62.95,0)" xlink:href="#aw"/><use transform="matrix(0.05,0,0,0.05,72.95,0)" xlink:href="#aJ"/><use transform="matrix(0.05,0,0,0.05,76.9,0)" xlink:href="#aE"/><use transform="matrix(0.05,0,0,0.05,80.85000000000001,0)" xlink:href="#aK"/><use transform="matrix(0.05,0,0,0.05,89.85000000000001,0)" xlink:href="#aw"/><use transform="matrix(0.05,0,0,0.05,99.85000000000001,0)" xlink:href="#au"/><use transform="matrix(0.05,0,0,0.05,108.85000000000001,0)" xlink:href="#aE"/><use transform="matrix(0.05,0,0,0.05,112.80000000000001,0)" xlink:href="#aL"/><use transform="matrix(0.05,0,0,0.05,122.80000000000001,0)" xlink:href="#aF"/></g><path fill="#333" d="M135-143c-3-34-86-38-87 0 15 53 115 12 119 90S17 21 10-45l28-5c4 36 97 45 98 0-10-56-113-15-118-90-4-57 82-63 122-42 12 7 21 19 24 35" id="aM"/><g id="h"><use transform="matrix(0.05,0,0,0.05,0,0)" xlink:href="#aD"/><use transform="matrix(0.05,0,0,0.05,10,0)" xlink:href="#aM"/><use transform="matrix(0.05,0,0,0.05,19,0)" xlink:href="#aG"/><use transform="matrix(0.05,0,0,0.05,24,0)" xlink:href="#aw"/><use transform="matrix(0.05,0,0,0.05,34,0)" xlink:href="#ax"/><use transform="matrix(0.05,0,0,0.05,44,0)" xlink:href="#at"/></g><path fill="#333" d="M24-248c93 1 206-16 204 79-1 75-69 88-152 82V0H24v-248zm52 121c47 0 100 7 100-41 0-47-54-39-100-39v80" id="aN"/><path fill="#333" d="M135-150c-39-12-60 13-60 57V0H25l-1-190h47c2 13-1 29 3 40 6-28 27-53 61-41v41" id="aO"/><path fill="#333" d="M190-63c-7 42-38 67-86 67-59 0-84-38-90-98-12-110 154-137 174-36l-49 2c-2-19-15-32-35-32-30 0-35 28-38 64-6 74 65 87 74 30" id="aP"/><path fill="#333" d="M133-34C117-15 103 5 69 4 32 3 11-16 11-54c-1-60 55-63 116-61 1-26-3-47-28-47-18 1-26 9-28 27l-52-2c7-38 36-58 82-57s74 22 75 68l1 82c-1 14 12 18 25 15v27c-30 8-71 5-69-32zm-48 3c29 0 43-24 42-57-32 0-66-3-65 30 0 17 8 27 23 27" id="aQ"/><path fill="#333" d="M88-194c31-1 46 15 58 34l-1-101h50l1 261h-48c-2-10 0-23-3-31C134-8 116 4 84 4 32 4 16-41 15-95c0-56 19-97 73-99zm17 164c33 0 40-30 41-66 1-37-9-64-41-64s-38 30-39 65c0 43 13 65 39 65" id="aR"/><path fill="#333" d="M185-48c-13 30-37 53-82 52C43 2 14-33 14-96s30-98 90-98c62 0 83 45 84 108H66c0 31 8 55 39 56 18 0 30-7 34-22zm-45-69c5-46-57-63-70-21-2 6-4 13-4 21h74" id="aS"/><g id="j"><use transform="matrix(0.05,0,0,0.05,0,0)" xlink:href="#aN"/><use transform="matrix(0.05,0,0,0.05,12,0)" xlink:href="#aO"/><use transform="matrix(0.05,0,0,0.05,19,0)" xlink:href="#an"/><use transform="matrix(0.05,0,0,0.05,29.950000000000003,0)" xlink:href="#aP"/><use transform="matrix(0.05,0,0,0.05,39.95,0)" xlink:href="#ak"/><use transform="matrix(0.05,0,0,0.05,50.900000000000006,0)" xlink:href="#aO"/><use transform="matrix(0.05,0,0,0.05,57.900000000000006,0)" xlink:href="#aQ"/><use transform="matrix(0.05,0,0,0.05,67.9,0)" xlink:href="#aR"/><use transform="matrix(0.05,0,0,0.05,78.85000000000001,0)" xlink:href="#an"/><use transform="matrix(0.05,0,0,0.05,89.80000000000001,0)" xlink:href="#aO"/><use transform="matrix(0.05,0,0,0.05,96.80000000000001,0)" xlink:href="#aS"/><use transform="matrix(0.05,0,0,0.05,106.80000000000001,0)" xlink:href="#aj"/></g><g id="k"><use transform="matrix(0.05,0,0,0.05,0,0)" xlink:href="#ao"/><use transform="matrix(0.05,0,0,0.05,12.950000000000001,0)" xlink:href="#ap"/><use transform="matrix(0.05,0,0,0.05,25.900000000000002,0)" xlink:href="#aq"/><use transform="matrix(0.05,0,0,0.05,30.900000000000002,0)" xlink:href="#ar"/><use transform="matrix(0.05,0,0,0.05,42.900000000000006,0)" xlink:href="#as"/><use transform="matrix(0.05,0,0,0.05,48.85000000000001,0)" xlink:href="#at"/><use transform="matrix(0.05,0,0,0.05,58.85,0)" xlink:href="#au"/><use transform="matrix(0.05,0,0,0.05,67.85000000000001,0)" xlink:href="#av"/><use transform="matrix(0.05,0,0,0.05,77.85000000000001,0)" xlink:href="#as"/><use transform="matrix(0.05,0,0,0.05,83.80000000000001,0)" xlink:href="#aw"/><use transform="matrix(0.05,0,0,0.05,93.80000000000001,0)" xlink:href="#ax"/><use transform="matrix(0.05,0,0,0.05,103.80000000000001,0)" xlink:href="#at"/><use transform="matrix(0.05,0,0,0.05,113.80000000000001,0)" xlink:href="#as"/><path fill="#333" d="M-.9 1.25h121.55v1.32H-.9z"/></g><path fill="#333" d="M210-169c-67 3-38 105-44 169h-31v-121c0-29-5-50-35-48C34-165 62-65 56 0H25l-1-190h30c1 10-1 24 2 32 10-44 99-50 107 0 11-21 27-35 58-36 85-2 47 119 55 194h-31v-121c0-29-5-49-35-48" id="aT"/><path fill="#333" d="M115-194c53 0 69 39 70 98 0 66-23 100-70 100C84 3 66-7 56-30L54 0H23l1-261h32v101c10-23 28-34 59-34zm-8 174c40 0 45-34 45-75 0-40-5-75-45-74-42 0-51 32-51 76 0 43 10 73 51 73" id="aU"/><g id="l"><use transform="matrix(0.05,0,0,0.05,0,0)" xlink:href="#aF"/><use transform="matrix(0.05,0,0,0.05,10,0)" xlink:href="#at"/><use transform="matrix(0.05,0,0,0.05,20,0)" xlink:href="#aT"/><use transform="matrix(0.05,0,0,0.05,34.95,0)" xlink:href="#aU"/><use transform="matrix(0.05,0,0,0.05,44.95,0)" xlink:href="#as"/><use transform="matrix(0.05,0,0,0.05,50.900000000000006,0)" xlink:href="#aD"/></g><g id="m"><use transform="matrix(0.05,0,0,0.05,0,0)" xlink:href="#ax"/><use transform="matrix(0.05,0,0,0.05,10,0)" xlink:href="#aE"/><use transform="matrix(0.05,0,0,0.05,13.949999999999998,0)" xlink:href="#as"/><use transform="matrix(0.05,0,0,0.05,19.9,0)" xlink:href="#aD"/><use transform="matrix(0.05,0,0,0.05,29.899999999999995,0)" xlink:href="#au"/><use transform="matrix(0.05,0,0,0.05,38.9,0)" xlink:href="#au"/><use transform="matrix(0.05,0,0,0.05,47.9,0)" xlink:href="#aE"/><use transform="matrix(0.05,0,0,0.05,51.85,0)" xlink:href="#aL"/><use transform="matrix(0.05,0,0,0.05,61.85,0)" xlink:href="#aF"/></g><g id="n"><use transform="matrix(0.05,0,0,0.05,0,0)" xlink:href="#aG"/><use transform="matrix(0.05,0,0,0.05,5,0)" xlink:href="#aD"/><use transform="matrix(0.05,0,0,0.05,15,0)" xlink:href="#aJ"/><use transform="matrix(0.05,0,0,0.05,18.95,0)" xlink:href="#aD"/><use transform="matrix(0.05,0,0,0.05,28.950000000000003,0)" xlink:href="#aH"/><use transform="matrix(0.05,0,0,0.05,33.95,0)" xlink:href="#at"/><use transform="matrix(0.05,0,0,0.05,43.95,0)" xlink:href="#aF"/><use transform="matrix(0.05,0,0,0.05,53.95,0)" xlink:href="#at"/></g><g id="o"><use transform="matrix(0.05,0,0,0.05,0,0)" xlink:href="#au"/><use transform="matrix(0.05,0,0,0.05,9,0)" xlink:href="#at"/><use transform="matrix(0.05,0,0,0.05,19,0)" xlink:href="#as"/><use transform="matrix(0.05,0,0,0.05,24.95,0)" xlink:href="#as"/><use transform="matrix(0.05,0,0,0.05,30.899999999999995,0)" xlink:href="#aD"/><use transform="matrix(0.05,0,0,0.05,40.9,0)" xlink:href="#at"/></g><path fill="#333" d="M27 0v-27h64v-190l-56 39v-29l58-41h29v221h61V0H27" id="aV"/><use transform="matrix(0.05,0,0,0.05,0,0)" xlink:href="#aV" id="p"/><path fill="#333" d="M33-154v-36h34v36H33zM33 0v-36h34V0H33" id="aW"/><use transform="matrix(0.05,0,0,0.05,0,0)" xlink:href="#aW" id="q"/><use transform="matrix(0.05,0,0,0.05,0,0)" xlink:href="#ap" id="r"/><path fill="#333" d="M67-125c0 53 21 87 73 88 37 1 54-22 65-47l45 17C233-25 199 4 140 4 58 4 20-42 15-125 8-235 124-281 211-232c18 10 29 29 36 50l-46 12c-8-25-30-41-62-41-52 0-71 34-72 86" id="aX"/><path fill="#333" d="M25 0v-261h50V0H25" id="aY"/><path fill="#333" d="M25-224v-37h50v37H25zM25 0v-190h50V0H25" id="aZ"/><g id="s"><use transform="matrix(0.05,0,0,0.05,0,0)" xlink:href="#ai"/><use transform="matrix(0.05,0,0,0.05,12.950000000000001,0)" xlink:href="#aj"/><use transform="matrix(0.05,0,0,0.05,22.950000000000003,0)" xlink:href="#ak"/><use transform="matrix(0.05,0,0,0.05,33.900000000000006,0)" xlink:href="#al"/><use transform="matrix(0.05,0,0,0.05,44.85000000000001,0)" xlink:href="#am"/><use transform="matrix(0.05,0,0,0.05,50.80000000000001,0)" xlink:href="#an"/><use transform="matrix(0.05,0,0,0.05,61.750000000000014,0)" xlink:href="#aj"/><use transform="matrix(0.05,0,0,0.05,71.75000000000001,0)" xlink:href="#aX"/><use transform="matrix(0.05,0,0,0.05,84.70000000000002,0)" xlink:href="#aY"/><use transform="matrix(0.05,0,0,0.05,89.70000000000002,0)" xlink:href="#aZ"/><use transform="matrix(0.05,0,0,0.05,94.70000000000002,0)" xlink:href="#aS"/><use transform="matrix(0.05,0,0,0.05,104.7,0)" xlink:href="#al"/><use transform="matrix(0.05,0,0,0.05,115.65000000000003,0)" xlink:href="#am"/><use transform="matrix(0.05,0,0,0.05,121.60000000000002,0)" xlink:href="#aS"/><use transform="matrix(0.05,0,0,0.05,131.60000000000002,0)" xlink:href="#aj"/></g><g id="t"><use transform="matrix(0.05,0,0,0.05,0,0)" xlink:href="#aq"/><use transform="matrix(0.05,0,0,0.05,5,0)" xlink:href="#ao"/><path fill="#333" d="M-.9 1.25h19.75v1.32H-.9z"/></g><g id="u"><use transform="matrix(0.05,0,0,0.05,0,0)" xlink:href="#ap"/><use transform="matrix(0.05,0,0,0.05,12.950000000000001,0)" xlink:href="#at"/><use transform="matrix(0.05,0,0,0.05,22.950000000000003,0)" xlink:href="#aA"/><use transform="matrix(0.05,0,0,0.05,34.95,0)" xlink:href="#aB"/><use transform="matrix(0.05,0,0,0.05,43.95,0)" xlink:href="#aC"/><use transform="matrix(0.05,0,0,0.05,53.95,0)" xlink:href="#aD"/><use transform="matrix(0.05,0,0,0.05,63.95,0)" xlink:href="#ax"/><use transform="matrix(0.05,0,0,0.05,73.95,0)" xlink:href="#aE"/><use transform="matrix(0.05,0,0,0.05,77.9,0)" xlink:href="#aD"/><use transform="matrix(0.05,0,0,0.05,87.9,0)" xlink:href="#aF"/><use transform="matrix(0.05,0,0,0.05,97.9,0)" xlink:href="#aG"/><use transform="matrix(0.05,0,0,0.05,102.9,0)" xlink:href="#aD"/><path fill="#333" d="M-.9 1.25h114.7v1.32H-.9z"/></g><g id="v"><use transform="matrix(0.05,0,0,0.05,0,0)" xlink:href="#ar"/><use transform="matrix(0.05,0,0,0.05,12,0)" xlink:href="#az"/></g><path fill="#333" d="M212-179c-10-28-35-45-73-45-59 0-87 40-87 99 0 60 29 101 89 101 43 0 62-24 78-52l27 14C228-24 195 4 139 4 59 4 22-46 18-125c-6-104 99-153 187-111 19 9 31 26 39 46" id="ba"/><g id="w"><use transform="matrix(0.05,0,0,0.05,0,0)" xlink:href="#ao"/><use transform="matrix(0.05,0,0,0.05,12.950000000000001,0)" xlink:href="#ap"/><use transform="matrix(0.05,0,0,0.05,25.900000000000002,0)" xlink:href="#aq"/><use transform="matrix(0.05,0,0,0.05,30.900000000000002,0)" xlink:href="#ba"/><use transform="matrix(0.05,0,0,0.05,43.85,0)" xlink:href="#aJ"/><use transform="matrix(0.05,0,0,0.05,47.800000000000004,0)" xlink:href="#aE"/><use transform="matrix(0.05,0,0,0.05,51.75,0)" xlink:href="#aD"/><use transform="matrix(0.05,0,0,0.05,61.75,0)" xlink:href="#aF"/><use transform="matrix(0.05,0,0,0.05,71.75,0)" xlink:href="#aG"/><use transform="matrix(0.05,0,0,0.05,76.75,0)" xlink:href="#aD"/><path fill="#333" d="M-.9 1.25h88.55v1.32H-.9z"/></g><g id="x"><use transform="matrix(0.05,0,0,0.05,0,0)" xlink:href="#ay"/><use transform="matrix(0.05,0,0,0.05,10.950000000000001,0)" xlink:href="#az"/></g><g id="y"><use transform="matrix(0.05,0,0,0.05,0,0)" xlink:href="#aN"/><use transform="matrix(0.05,0,0,0.05,12,0)" xlink:href="#aO"/><use transform="matrix(0.05,0,0,0.05,19,0)" xlink:href="#an"/><use transform="matrix(0.05,0,0,0.05,29.950000000000003,0)" xlink:href="#aP"/><use transform="matrix(0.05,0,0,0.05,39.95,0)" xlink:href="#ak"/><use transform="matrix(0.05,0,0,0.05,50.900000000000006,0)" xlink:href="#aO"/><use transform="matrix(0.05,0,0,0.05,57.900000000000006,0)" xlink:href="#aQ"/><use transform="matrix(0.05,0,0,0.05,67.9,0)" xlink:href="#aR"/><use transform="matrix(0.05,0,0,0.05,78.85000000000001,0)" xlink:href="#an"/><use transform="matrix(0.05,0,0,0.05,89.80000000000001,0)" xlink:href="#aO"/><use transform="matrix(0.05,0,0,0.05,96.80000000000001,0)" xlink:href="#aS"/><use transform="matrix(0.05,0,0,0.05,106.80000000000001,0)" xlink:href="#aj"/></g><path fill="#fe7070" d="M230 0l2-204L168 0h-37L68-204 70 0H24v-248h70l56 185 57-185h69V0h-46" id="bb"/><path fill="#fe7070" d="M140-251c80 0 125 45 125 126S219 4 139 4C58 4 15-44 15-125s44-126 125-126zm-1 214c52 0 73-35 73-88 0-50-21-86-72-86-52 0-73 35-73 86s22 88 72 88" id="bc"/><path fill="#fe7070" d="M24-248c120-7 223 5 221 122C244-46 201 0 124 0H24v-248zM76-40c74 7 117-18 117-86 0-67-45-88-117-82v168" id="bd"/><path fill="#fe7070" d="M24 0v-248h195v40H76v63h132v40H76v65h150V0H24" id="be"/><path fill="#fe7070" d="M24 0v-248h52v208h133V0H24" id="bf"/><g id="z"><use transform="matrix(0.0728395061728395,0,0,0.0728395061728395,0,0)" xlink:href="#bb"/><use transform="matrix(0.0728395061728395,0,0,0.0728395061728395,21.77901234567901,0)" xlink:href="#bc"/><use transform="matrix(0.0728395061728395,0,0,0.0728395061728395,42.17407407407407,0)" xlink:href="#bd"/><use transform="matrix(0.0728395061728395,0,0,0.0728395061728395,61.0395061728395,0)" xlink:href="#be"/><use transform="matrix(0.0728395061728395,0,0,0.0728395061728395,78.52098765432098,0)" xlink:href="#bf"/><use transform="matrix(0.0728395061728395,0,0,0.0728395061728395,94.47283950617283,0)" xlink:href="#bc"/></g><path fill="#fe7070" d="M175 0L67-191c6 58 2 128 3 191H24v-248h59L193-55c-6-58-2-129-3-193h46V0h-61" id="bg"/><path fill="#fe7070" d="M136-208V0H84v-208H4v-40h212v40h-80" id="bh"/><path fill="#fe7070" d="M24 0v-248h52V0H24" id="bi"/><path fill="#fe7070" d="M199 0l-22-63H83L61 0H9l90-248h61L250 0h-51zm-33-102l-36-108c-10 38-24 72-36 108h72" id="bj"/><g id="A"><use transform="matrix(0.0728395061728395,0,0,0.0728395061728395,0,0)" xlink:href="#be"/><use transform="matrix(0.0728395061728395,0,0,0.0728395061728395,17.48148148148148,0)" xlink:href="#bg"/><use transform="matrix(0.0728395061728395,0,0,0.0728395061728395,36.34691358024691,0)" xlink:href="#bh"/><use transform="matrix(0.0728395061728395,0,0,0.0728395061728395,52.29876543209876,0)" xlink:href="#bi"/><use transform="matrix(0.0728395061728395,0,0,0.0728395061728395,59.582716049382704,0)" xlink:href="#bd"/><use transform="matrix(0.0728395061728395,0,0,0.0728395061728395,78.44814814814814,0)" xlink:href="#bj"/><use transform="matrix(0.0728395061728395,0,0,0.0728395061728395,97.31358024691357,0)" xlink:href="#bd"/></g><path fill="#fe7070" d="M14-72v-43h91v43H14" id="bk"/><use transform="matrix(0.0728395061728395,0,0,0.0728395061728395,0,0)" xlink:href="#bk" id="B"/><path fill="#fe7070" d="M240-174c0 40-23 61-54 70L253 0h-59l-57-94H76V0H24v-248c93 4 217-23 216 74zM76-134c48-2 112 12 112-38 0-48-66-32-112-35v73" id="bl"/><path fill="#fe7070" d="M67-125c0 53 21 87 73 88 37 1 54-22 65-47l45 17C233-25 199 4 140 4 58 4 20-42 15-125 8-235 124-281 211-232c18 10 29 29 36 50l-46 12c-8-25-30-41-62-41-52 0-71 34-72 86" id="bm"/><path fill="#fe7070" d="M110-269v-5l44-45h46v8l-60 42h-30zm30 18c80 0 125 45 125 126S219 4 139 4C58 4 15-44 15-125s44-126 125-126zm-1 214c52 0 73-35 73-88 0-50-21-86-72-86-52 0-73 35-73 86s22 88 72 88" id="bn"/><g id="C"><use transform="matrix(0.0728395061728395,0,0,0.0728395061728395,0,0)" xlink:href="#bl"/><use transform="matrix(0.0728395061728395,0,0,0.0728395061728395,18.86543209876543,0)" xlink:href="#be"/><use transform="matrix(0.0728395061728395,0,0,0.0728395061728395,36.34691358024691,0)" xlink:href="#bf"/><use transform="matrix(0.0728395061728395,0,0,0.0728395061728395,52.29876543209876,0)" xlink:href="#bj"/><use transform="matrix(0.0728395061728395,0,0,0.0728395061728395,71.16419753086419,0)" xlink:href="#bm"/><use transform="matrix(0.0728395061728395,0,0,0.0728395061728395,90.02962962962962,0)" xlink:href="#bi"/><use transform="matrix(0.0728395061728395,0,0,0.0728395061728395,97.31358024691357,0)" xlink:href="#bn"/><use transform="matrix(0.0728395061728395,0,0,0.0728395061728395,117.70864197530864,0)" xlink:href="#bg"/></g><path fill="#fe7070" d="M182-130c37 4 62 22 62 59C244 23 116-4 24 0v-248c84 5 203-23 205 63 0 31-19 50-47 55zM76-148c40-3 101 13 101-30 0-44-60-28-101-31v61zm0 110c48-3 116 14 116-37 0-48-69-32-116-35v72" id="bo"/><path fill="#fe7070" d="M169-182c-1-43-94-46-97-3 18 66 151 10 154 114 3 95-165 93-204 36-6-8-10-19-12-30l50-8c3 46 112 56 116 5-17-69-150-10-154-114-4-87 153-88 188-35 5 8 8 18 10 28" id="bp"/><g id="D"><use transform="matrix(0.04248971193415638,0,0,0.04248971193415638,0,0)" xlink:href="#bo"/><use transform="matrix(0.04248971193415638,0,0,0.04248971193415638,11.004835390946502,0)" xlink:href="#bj"/><use transform="matrix(0.04248971193415638,0,0,0.04248971193415638,22.009670781893004,0)" xlink:href="#bp"/><use transform="matrix(0.04248971193415638,0,0,0.04248971193415638,32.20720164609053,0)" xlink:href="#be"/><use transform="matrix(0.04248971193415638,0,0,0.04248971193415638,42.40473251028806,0)" xlink:href="#bp"/></g><g id="E"><use transform="matrix(0.04248971193415638,0,0,0.04248971193415638,0,0)" xlink:href="#bd"/><use transform="matrix(0.04248971193415638,0,0,0.04248971193415638,11.004835390946502,0)" xlink:href="#be"/></g><g id="F"><use transform="matrix(0.04248971193415638,0,0,0.04248971193415638,0,0)" xlink:href="#bd"/><use transform="matrix(0.04248971193415638,0,0,0.04248971193415638,11.004835390946502,0)" xlink:href="#bj"/><use transform="matrix(0.04248971193415638,0,0,0.04248971193415638,20.86244855967078,0)" xlink:href="#bh"/><use transform="matrix(0.04248971193415638,0,0,0.04248971193415638,29.87026748971193,0)" xlink:href="#bc"/><use transform="matrix(0.04248971193415638,0,0,0.04248971193415638,41.76738683127572,0)" xlink:href="#bp"/></g><g id="G"><use transform="matrix(0.05,0,0,0.05,0,0)" xlink:href="#aX"/><use transform="matrix(0.05,0,0,0.05,12.950000000000001,0)" xlink:href="#aY"/><use transform="matrix(0.05,0,0,0.05,17.950000000000003,0)" xlink:href="#aZ"/><use transform="matrix(0.05,0,0,0.05,22.950000000000003,0)" xlink:href="#aS"/><use transform="matrix(0.05,0,0,0.05,32.95,0)" xlink:href="#al"/><use transform="matrix(0.05,0,0,0.05,43.900000000000006,0)" xlink:href="#am"/><use transform="matrix(0.05,0,0,0.05,49.85000000000001,0)" xlink:href="#aS"/><use transform="matrix(0.05,0,0,0.05,59.85,0)" xlink:href="#aj"/></g><g id="H"><use transform="matrix(0.05,0,0,0.05,0,0)" xlink:href="#ao"/><use transform="matrix(0.05,0,0,0.05,12.950000000000001,0)" xlink:href="#ap"/><use transform="matrix(0.05,0,0,0.05,25.900000000000002,0)" xlink:href="#aq"/><use transform="matrix(0.05,0,0,0.05,30.900000000000002,0)" xlink:href="#ba"/><use transform="matrix(0.05,0,0,0.05,43.85,0)" xlink:href="#aJ"/><use transform="matrix(0.05,0,0,0.05,47.800000000000004,0)" xlink:href="#aE"/><use transform="matrix(0.05,0,0,0.05,51.75,0)" xlink:href="#aD"/><use transform="matrix(0.05,0,0,0.05,61.75,0)" xlink:href="#aF"/><use transform="matrix(0.05,0,0,0.05,71.75,0)" xlink:href="#aG"/><use transform="matrix(0.05,0,0,0.05,76.75,0)" xlink:href="#aD"/><path fill="#333" d="M-.9 1.25h88.55v1.32H-.9z"/></g><g id="I"><use transform="matrix(0.05,0,0,0.05,0,0)" xlink:href="#aF"/><use transform="matrix(0.05,0,0,0.05,10,0)" xlink:href="#at"/><use transform="matrix(0.05,0,0,0.05,20,0)" xlink:href="#aT"/><use transform="matrix(0.05,0,0,0.05,34.95,0)" xlink:href="#aU"/><use transform="matrix(0.05,0,0,0.05,44.95,0)" xlink:href="#as"/><use transform="matrix(0.05,0,0,0.05,50.900000000000006,0)" xlink:href="#aD"/></g><g id="J"><use transform="matrix(0.05,0,0,0.05,0,0)" xlink:href="#au"/><use transform="matrix(0.05,0,0,0.05,9,0)" xlink:href="#at"/><use transform="matrix(0.05,0,0,0.05,19,0)" xlink:href="#as"/><use transform="matrix(0.05,0,0,0.05,24.95,0)" xlink:href="#as"/><use transform="matrix(0.05,0,0,0.05,30.899999999999995,0)" xlink:href="#aD"/><use transform="matrix(0.05,0,0,0.05,40.9,0)" xlink:href="#at"/></g><use transform="matrix(0.05,0,0,0.05,0,0)" xlink:href="#aV" id="K"/><use transform="matrix(0.05,0,0,0.05,0,0)" xlink:href="#aW" id="L"/><use transform="matrix(0.05,0,0,0.05,0,0)" xlink:href="#aV" id="M"/><g id="N"><use transform="matrix(0.0728395061728395,0,0,0.0728395061728395,0,0)" xlink:href="#bl"/><use transform="matrix(0.0728395061728395,0,0,0.0728395061728395,18.86543209876543,0)" xlink:href="#be"/><use transform="matrix(0.0728395061728395,0,0,0.0728395061728395,36.34691358024691,0)" xlink:href="#bf"/><use transform="matrix(0.0728395061728395,0,0,0.0728395061728395,52.29876543209876,0)" xlink:href="#bj"/><use transform="matrix(0.0728395061728395,0,0,0.0728395061728395,71.16419753086419,0)" xlink:href="#bm"/><use transform="matrix(0.0728395061728395,0,0,0.0728395061728395,90.02962962962962,0)" xlink:href="#bi"/><use transform="matrix(0.0728395061728395,0,0,0.0728395061728395,97.31358024691357,0)" xlink:href="#bc"/><use transform="matrix(0.0728395061728395,0,0,0.0728395061728395,117.70864197530864,0)" xlink:href="#bg"/><use transform="matrix(0.0728395061728395,0,0,0.0728395061728395,136.57407407407408,0)" xlink:href="#bj"/><use transform="matrix(0.0728395061728395,0,0,0.0728395061728395,155.43950617283951,0)" xlink:href="#bf"/></g><g id="O"><use transform="matrix(0.05,0,0,0.05,0,0)" xlink:href="#aG"/><use transform="matrix(0.05,0,0,0.05,5,0)" xlink:href="#aE"/><use transform="matrix(0.05,0,0,0.05,8.95,0)" xlink:href="#aD"/><use transform="matrix(0.05,0,0,0.05,18.95,0)" xlink:href="#aF"/><use transform="matrix(0.05,0,0,0.05,28.950000000000003,0)" xlink:href="#aD"/><use transform="matrix(0.05,0,0,0.05,38.95,0)" xlink:href="#aF"/></g><g id="P"><use transform="matrix(0.05,0,0,0.05,0,0)" xlink:href="#au"/><use transform="matrix(0.05,0,0,0.05,9,0)" xlink:href="#at"/><use transform="matrix(0.05,0,0,0.05,19,0)" xlink:href="#as"/><use transform="matrix(0.05,0,0,0.05,24.95,0)" xlink:href="#as"/><use transform="matrix(0.05,0,0,0.05,30.899999999999995,0)" xlink:href="#aD"/><use transform="matrix(0.05,0,0,0.05,40.9,0)" xlink:href="#aM"/><use transform="matrix(0.05,0,0,0.05,49.9,0)" xlink:href="#aC"/><use transform="matrix(0.05,0,0,0.05,59.900000000000006,0)" xlink:href="#at"/><use transform="matrix(0.05,0,0,0.05,69.9,0)" xlink:href="#aF"/><use transform="matrix(0.05,0,0,0.05,79.9,0)" xlink:href="#ax"/><use transform="matrix(0.05,0,0,0.05,89.9,0)" xlink:href="#aD"/><use transform="matrix(0.05,0,0,0.05,99.9,0)" xlink:href="#aF"/></g><use transform="matrix(0.05,0,0,0.05,0,0)" xlink:href="#aw" id="Q"/><use transform="matrix(0.05,0,0,0.05,0,0)" xlink:href="#aV" id="R"/><use transform="matrix(0.05,0,0,0.05,0,0)" xlink:href="#aW" id="S"/><use transform="matrix(0.05,0,0,0.05,0,0)" xlink:href="#ap" id="T"/><use transform="matrix(0.05,0,0,0.05,0,0)" xlink:href="#aV" id="U"/><use transform="matrix(0.05,0,0,0.05,0,0)" xlink:href="#aW" id="V"/><use transform="matrix(0.05,0,0,0.05,0,0)" xlink:href="#aV" id="W"/><g id="X"><use transform="matrix(0.05,0,0,0.05,0,0)" xlink:href="#ao"/><use transform="matrix(0.05,0,0,0.05,12.950000000000001,0)" xlink:href="#ap"/><use transform="matrix(0.05,0,0,0.05,25.900000000000002,0)" xlink:href="#aq"/><use transform="matrix(0.05,0,0,0.05,30.900000000000002,0)" xlink:href="#ar"/><use transform="matrix(0.05,0,0,0.05,42.900000000000006,0)" xlink:href="#as"/><use transform="matrix(0.05,0,0,0.05,48.85000000000001,0)" xlink:href="#at"/><use transform="matrix(0.05,0,0,0.05,58.85,0)" xlink:href="#au"/><use transform="matrix(0.05,0,0,0.05,67.85000000000001,0)" xlink:href="#av"/><use transform="matrix(0.05,0,0,0.05,77.85000000000001,0)" xlink:href="#as"/><use transform="matrix(0.05,0,0,0.05,83.80000000000001,0)" xlink:href="#aw"/><use transform="matrix(0.05,0,0,0.05,93.80000000000001,0)" xlink:href="#ax"/><use transform="matrix(0.05,0,0,0.05,103.80000000000001,0)" xlink:href="#at"/><use transform="matrix(0.05,0,0,0.05,113.80000000000001,0)" xlink:href="#as"/><path fill="#333" d="M-.9 1.25h121.55v1.32H-.9z"/></g><g id="Y"><use transform="matrix(0.05,0,0,0.05,0,0)" xlink:href="#ap"/><use transform="matrix(0.05,0,0,0.05,12.950000000000001,0)" xlink:href="#at"/><use transform="matrix(0.05,0,0,0.05,22.950000000000003,0)" xlink:href="#aT"/><use transform="matrix(0.05,0,0,0.05,37.900000000000006,0)" xlink:href="#aU"/><use transform="matrix(0.05,0,0,0.05,47.900000000000006,0)" xlink:href="#as"/><use transform="matrix(0.05,0,0,0.05,53.85,0)" xlink:href="#aD"/></g><g id="Z"><use transform="matrix(0.05,0,0,0.05,0,0)" xlink:href="#ba"/><use transform="matrix(0.05,0,0,0.05,12.950000000000001,0)" xlink:href="#at"/><use transform="matrix(0.05,0,0,0.05,22.950000000000003,0)" xlink:href="#as"/><use transform="matrix(0.05,0,0,0.05,28.900000000000002,0)" xlink:href="#as"/><use transform="matrix(0.05,0,0,0.05,34.85,0)" xlink:href="#aD"/><use transform="matrix(0.05,0,0,0.05,44.85,0)" xlink:href="#at"/></g><g id="aa"><use transform="matrix(0.05,0,0,0.05,0,0)" xlink:href="#ao"/><use transform="matrix(0.05,0,0,0.05,12.950000000000001,0)" xlink:href="#aE"/><use transform="matrix(0.05,0,0,0.05,16.900000000000002,0)" xlink:href="#as"/><use transform="matrix(0.05,0,0,0.05,22.85,0)" xlink:href="#aD"/><use transform="matrix(0.05,0,0,0.05,32.85,0)" xlink:href="#au"/><use transform="matrix(0.05,0,0,0.05,41.85,0)" xlink:href="#au"/><use transform="matrix(0.05,0,0,0.05,50.85,0)" xlink:href="#aE"/><use transform="matrix(0.05,0,0,0.05,54.800000000000004,0)" xlink:href="#aL"/><use transform="matrix(0.05,0,0,0.05,64.80000000000001,0)" xlink:href="#aF"/></g><g id="ab"><use transform="matrix(0.05,0,0,0.05,0,0)" xlink:href="#ay"/><use transform="matrix(0.05,0,0,0.05,10.950000000000001,0)" xlink:href="#aD"/><use transform="matrix(0.05,0,0,0.05,20.950000000000003,0)" xlink:href="#au"/><use transform="matrix(0.05,0,0,0.05,29.950000000000003,0)" xlink:href="#aI"/><use transform="matrix(0.05,0,0,0.05,39.95,0)" xlink:href="#aw"/><use transform="matrix(0.05,0,0,0.05,49.95,0)" xlink:href="#aq"/><use transform="matrix(0.05,0,0,0.05,54.95,0)" xlink:href="#aF"/><use transform="matrix(0.05,0,0,0.05,64.95,0)" xlink:href="#aE"/><use transform="matrix(0.05,0,0,0.05,68.9,0)" xlink:href="#au"/><use transform="matrix(0.05,0,0,0.05,77.9,0)" xlink:href="#aE"/><use transform="matrix(0.05,0,0,0.05,81.85000000000001,0)" xlink:href="#at"/></g><g id="ac"><use transform="matrix(0.05,0,0,0.05,0,0)" xlink:href="#ap"/><use transform="matrix(0.05,0,0,0.05,12.950000000000001,0)" xlink:href="#at"/><use transform="matrix(0.05,0,0,0.05,22.950000000000003,0)" xlink:href="#aA"/><use transform="matrix(0.05,0,0,0.05,34.95,0)" xlink:href="#aB"/><use transform="matrix(0.05,0,0,0.05,43.95,0)" xlink:href="#aC"/><use transform="matrix(0.05,0,0,0.05,53.95,0)" xlink:href="#aD"/><use transform="matrix(0.05,0,0,0.05,63.95,0)" xlink:href="#ax"/><use transform="matrix(0.05,0,0,0.05,73.95,0)" xlink:href="#aE"/><use transform="matrix(0.05,0,0,0.05,77.9,0)" xlink:href="#aD"/><use transform="matrix(0.05,0,0,0.05,87.9,0)" xlink:href="#aF"/><use transform="matrix(0.05,0,0,0.05,97.9,0)" xlink:href="#aG"/><use transform="matrix(0.05,0,0,0.05,102.9,0)" xlink:href="#aD"/><path fill="#333" d="M-.9 1.25h114.7v1.32H-.9z"/></g><g id="ad"><use transform="matrix(0.05,0,0,0.05,0,0)" xlink:href="#ay"/><use transform="matrix(0.05,0,0,0.05,10.950000000000001,0)" xlink:href="#aD"/><use transform="matrix(0.05,0,0,0.05,20.950000000000003,0)" xlink:href="#au"/><use transform="matrix(0.05,0,0,0.05,29.950000000000003,0)" xlink:href="#aI"/><use transform="matrix(0.05,0,0,0.05,39.95,0)" xlink:href="#aw"/><use transform="matrix(0.05,0,0,0.05,49.95,0)" xlink:href="#ay"/><use transform="matrix(0.05,0,0,0.05,60.900000000000006,0)" xlink:href="#aE"/><use transform="matrix(0.05,0,0,0.05,64.85000000000001,0)" xlink:href="#aF"/><use transform="matrix(0.05,0,0,0.05,74.85000000000001,0)" xlink:href="#aw"/><use transform="matrix(0.05,0,0,0.05,84.85000000000001,0)" xlink:href="#aJ"/><use transform="matrix(0.05,0,0,0.05,88.80000000000001,0)" xlink:href="#aE"/><use transform="matrix(0.05,0,0,0.05,92.75000000000001,0)" xlink:href="#aK"/><use transform="matrix(0.05,0,0,0.05,101.75000000000001,0)" xlink:href="#aw"/><use transform="matrix(0.05,0,0,0.05,111.75,0)" xlink:href="#au"/><use transform="matrix(0.05,0,0,0.05,120.75,0)" xlink:href="#aE"/><use transform="matrix(0.05,0,0,0.05,124.7,0)" xlink:href="#aL"/><use transform="matrix(0.05,0,0,0.05,134.70000000000002,0)" xlink:href="#aF"/></g><g id="ae"><use transform="matrix(0.05,0,0,0.05,0,0)" xlink:href="#aA"/><use transform="matrix(0.05,0,0,0.05,12,0)" xlink:href="#aM"/><use transform="matrix(0.05,0,0,0.05,21,0)" xlink:href="#aG"/><use transform="matrix(0.05,0,0,0.05,26,0)" xlink:href="#aw"/><use transform="matrix(0.05,0,0,0.05,36,0)" xlink:href="#ax"/><use transform="matrix(0.05,0,0,0.05,46,0)" xlink:href="#at"/></g><g id="af"><use transform="matrix(0.05,0,0,0.05,0,0)" xlink:href="#ao"/><use transform="matrix(0.05,0,0,0.05,12.950000000000001,0)" xlink:href="#ap"/><use transform="matrix(0.05,0,0,0.05,25.900000000000002,0)" xlink:href="#aq"/><use transform="matrix(0.05,0,0,0.05,30.900000000000002,0)" xlink:href="#ba"/><use transform="matrix(0.05,0,0,0.05,43.85,0)" xlink:href="#aJ"/><use transform="matrix(0.05,0,0,0.05,47.800000000000004,0)" xlink:href="#aE"/><use transform="matrix(0.05,0,0,0.05,51.75,0)" xlink:href="#aD"/><use transform="matrix(0.05,0,0,0.05,61.75,0)" xlink:href="#aF"/><use transform="matrix(0.05,0,0,0.05,71.75,0)" xlink:href="#aG"/><use transform="matrix(0.05,0,0,0.05,76.75,0)" xlink:href="#aD"/><path fill="#333" d="M-.9 1.25h88.55v1.32H-.9z"/></g><path fill="#333" d="M127-220V0H93v-220H8v-28h204v28h-85" id="bq"/><g id="ag"><use transform="matrix(0.05,0,0,0.05,0,0)" xlink:href="#bq"/><use transform="matrix(0.05,0,0,0.05,8.950000000000001,0)" xlink:href="#aD"/><use transform="matrix(0.05,0,0,0.05,18.950000000000003,0)" xlink:href="#aJ"/><use transform="matrix(0.05,0,0,0.05,22.900000000000002,0)" xlink:href="#aD"/><use transform="matrix(0.05,0,0,0.05,32.900000000000006,0)" xlink:href="#aH"/><use transform="matrix(0.05,0,0,0.05,37.900000000000006,0)" xlink:href="#at"/><use transform="matrix(0.05,0,0,0.05,47.900000000000006,0)" xlink:href="#aF"/><use transform="matrix(0.05,0,0,0.05,57.900000000000006,0)" xlink:href="#at"/></g><g id="ah"><use transform="matrix(0.05,0,0,0.05,0,0)" xlink:href="#ba"/><use transform="matrix(0.05,0,0,0.05,12.950000000000001,0)" xlink:href="#at"/><use transform="matrix(0.05,0,0,0.05,22.950000000000003,0)" xlink:href="#as"/><use transform="matrix(0.05,0,0,0.05,28.900000000000002,0)" xlink:href="#as"/><use transform="matrix(0.05,0,0,0.05,34.85,0)" xlink:href="#aD"/><use transform="matrix(0.05,0,0,0.05,44.85,0)" xlink:href="#at"/></g></defs></g></svg>