<svg xmlns="http://www.w3.org/2000/svg" xmlns:xlink="http://www.w3.org/1999/xlink" xmlns:lucid="lucid" width="2280" height="929"><g transform="translate(420 280)" lucid:page-tab-id="0_0"><path d="M-500-500h2500v1500H-500z" fill="#fff"/><path d="M328.67 408.07l70 56.38-70 56.38-70-56.38zM1079.33 414.48l79.34 56.38-79.34 56.38-79.33-56.38z" stroke="#fc9432" stroke-width="2" fill-opacity="0"/><path d="M1018-160.06h300v279h-300z" stroke="#e81313" stroke-width="2" fill="#fff"/><path d="M1018-122.47h300" stroke="#e81313" stroke-width="2" fill="none"/><use xlink:href="#a" transform="matrix(1,0,0,1,1026,-152.06536802154721) translate(81.6 14.6)"/><use xlink:href="#b" transform="matrix(1,0,0,1,1030,-114.46536802154722) translate(0 95)"/><use xlink:href="#c" transform="matrix(1,0,0,1,1030,-114.46536802154722) translate(187.95 95)"/><use xlink:href="#d" transform="matrix(1,0,0,1,1030,-114.46536802154722) translate(0 116.6)"/><use xlink:href="#e" transform="matrix(1,0,0,1,1030,-114.46536802154722) translate(187.85000000000002 116.6)"/><use xlink:href="#f" transform="matrix(1,0,0,1,1030,-114.46536802154722) translate(216.85000000000002 116.6)"/><use xlink:href="#g" transform="matrix(1,0,0,1,1030,-114.46536802154722) translate(0 138.2)"/><use xlink:href="#e" transform="matrix(1,0,0,1,1030,-114.46536802154722) translate(188.70000000000002 138.2)"/><use xlink:href="#h" transform="matrix(1,0,0,1,1030,-114.46536802154722) translate(217.70000000000002 138.2)"/><path d="M1387.22-20.07h-67.72v-1h67.72zm110.6 0h-67.7v-1h67.7z" stroke="#ba23f6" stroke-width=".05" fill="#ba23f6"/><path d="M1319.5-20.07h-.5v-1h.5z" fill="#ba23f6"/><path d="M1319.54-20.04h-.57v-1.05h.57zm-.5-1v.95h.45v-.94zM1498.33-20.07h-.5v-1h.5z" stroke="#ba23f6" stroke-width=".05" fill="#ba23f6"/><use xlink:href="#i" transform="matrix(1,0,0,1,1387.2166666666667,-31.365368021547187) translate(0 14.4)"/><use xlink:href="#j" transform="matrix(1,0,0,1,1387.2166666666667,-31.365368021547187) translate(17.950000000000003 14.4)"/><use xlink:href="#k" transform="matrix(1,0,0,1,1387.2166666666667,-31.365368021547187) translate(27.950000000000003 14.4)"/><path d="M-141.33 435h240v59h-240z" stroke="#54c45e" stroke-width="2" fill="#fff"/><use xlink:href="#l" transform="matrix(1,0,0,1,-133.33333333333326,443) translate(90.575 25.1)"/><path d="M297.33-252a8 8 0 0 1 8-8h836.75a8 8 0 0 1 8 8v25.16a8 8 0 0 1-8 8H305.33a8 8 0 0 1-8-8z" stroke="#000" stroke-opacity="0" stroke-width="2" fill="#fff" fill-opacity="0"/><use xlink:href="#m" transform="matrix(1,0,0,1,301.3333333333335,-256) translate(226.7396296296296 25.782777777777778)"/><use xlink:href="#n" transform="matrix(1,0,0,1,301.3333333333335,-256) translate(348.8914814814815 25.782777777777778)"/><use xlink:href="#o" transform="matrix(1,0,0,1,301.3333333333335,-256) translate(472.3544444444444 25.782777777777778)"/><use xlink:href="#p" transform="matrix(1,0,0,1,301.3333333333335,-256) translate(488.3062962962963 25.782777777777778)"/><path d="M573.8-220.2H883.2M573.84-220.2h-1.03M883.15-220.2h1.03" stroke="#a9afb8" stroke-width="2" fill="none"/><path d="M297.33-210.84a8 8 0 0 1 8-8h837.7a8 8 0 0 1 8 8v2.84a8 8 0 0 1-8 8h-837.7a8 8 0 0 1-8-8z" stroke="#000" stroke-opacity="0" stroke-width="2" fill="#fff" fill-opacity="0"/><use xlink:href="#q" transform="matrix(1,0,0,1,301.33333333333394,-214.8447760431012) translate(359.1762551440329 14.917037037037037)"/><use xlink:href="#r" transform="matrix(1,0,0,1,301.33333333333394,-214.8447760431012) translate(416.0274897119341 14.917037037037037)"/><use xlink:href="#s" transform="matrix(1,0,0,1,301.33333333333394,-214.8447760431012) translate(441.4788271604938 14.917037037037037)"/><path d="M296.38 212.74a8 8 0 0 1 8-8h836.75a8 8 0 0 1 8 8v25.15a8 8 0 0 1-8 8H304.38a8 8 0 0 1-8-8z" stroke="#000" stroke-opacity="0" stroke-width="2" fill="#fff" fill-opacity="0"/><use xlink:href="#m" transform="matrix(1,0,0,1,300.37594737213476,208.7376119782166) translate(279.0383950617284 25.782777777777778)"/><use xlink:href="#t" transform="matrix(1,0,0,1,300.37594737213476,208.7376119782166) translate(401.19024691358027 25.782777777777778)"/><path d="M572.86 244.55h309.36M572.88 244.55h-1.02M882.2 244.55h1.02" stroke="#a9afb8" stroke-width="2" fill="none"/><path d="M296.38 253.9a8 8 0 0 1 8-8h837.7a8 8 0 0 1 8 8v2.84a8 8 0 0 1-8 8h-837.7a8 8 0 0 1-8-8z" stroke="#000" stroke-opacity="0" stroke-width="2" fill="#fff" fill-opacity="0"/><use xlink:href="#q" transform="matrix(1,0,0,1,300.3759473721352,249.89283593511533) translate(359.1762551440329 14.917037037037037)"/><use xlink:href="#r" transform="matrix(1,0,0,1,300.3759473721352,249.89283593511533) translate(416.0274897119341 14.917037037037037)"/><use xlink:href="#s" transform="matrix(1,0,0,1,300.3759473721352,249.89283593511533) translate(441.4788271604938 14.917037037037037)"/><path d="M568.67 435h240v59h-240z" stroke="#54c45e" stroke-width="2" fill="#fff"/><use xlink:href="#u" transform="matrix(1,0,0,1,576.6666666666667,443) translate(73.025 25.1)"/><path d="M1368.67 435h240v59h-240z" stroke="#54c45e" stroke-width="2" fill="#fff"/><use xlink:href="#v" transform="matrix(1,0,0,1,1376.6666666666667,443) translate(72.05 25.1)"/><path d="M208.67 434h240v60h-240z" fill="none"/><use xlink:href="#w" transform="matrix(1,0,0,1,208.66666666666674,434) translate(95.525 33.6)"/><path d="M958.67 442.5h240v60h-240z" fill="none"/><use xlink:href="#x" transform="matrix(1,0,0,1,958.6666666666667,442.5) translate(110 33.6)"/><path d="M100.17 464.63H256.8" stroke="#e81313" fill="none"/><path d="M100.18 465.13h-.5v-1h.5zM257.07 464.45l.85.68h-1.14v-1h.7z" stroke="#e81313" stroke-width=".05" fill="#e81313"/><path d="M400.76 464.45h83.18a.02.02 0 0 1 .02.03.02.02 0 0 0 .03.02h83.17" stroke="#e81313" fill="none"/><path d="M400.77 464.95h-1.13l.62-.5-.62-.5h1.13zM567.67 465h-.52v-1h.52z" stroke="#e81313" stroke-width=".05" fill="#e81313"/><path d="M1147.63 461.43h219.54" stroke="#e81313" fill="none"/><path d="M1147.63 461.8l-1-.72v-.15h1zM1367.67 461.93h-.52v-1h.52z" stroke="#e81313" stroke-width=".05" fill="#e81313"/><path d="M208.67 365h240v60h-240z" stroke="#000" stroke-opacity="0" stroke-width="2" fill="#fff" fill-opacity="0"/><use xlink:href="#y" transform="matrix(1,0,0,1,213.66666666666674,370) translate(93.55 30.025)"/><use xlink:href="#z" transform="matrix(1,0,0,1,213.66666666666674,370) translate(111.5 30.025)"/><use xlink:href="#A" transform="matrix(1,0,0,1,213.66666666666674,370) translate(121.5 30.025)"/><path d="M968.67 365h240v60h-240z" stroke="#000" stroke-opacity="0" stroke-width="2" fill="#fff" fill-opacity="0"/><use xlink:href="#B" transform="matrix(1,0,0,1,973.6666666666667,370) translate(93.55 30.025)"/><use xlink:href="#C" transform="matrix(1,0,0,1,973.6666666666667,370) translate(111.5 30.025)"/><use xlink:href="#D" transform="matrix(1,0,0,1,973.6666666666667,370) translate(121.5 30.025)"/><path d="M-185.08 315c13.1 0 23.75 10.63 23.75 23.75s-10.64 23.75-23.75 23.75h-112.5c-13.12 0-23.75-10.63-23.75-23.75S-310.7 315-297.58 315z" stroke="#6db1ff" stroke-width="2" fill="#fff"/><use xlink:href="#E" transform="matrix(1,0,0,1,-316.33333333333326,320) translate(28.574999999999996 21.525)"/><path d="M134.92 300c13.1 0 23.75 10.63 23.75 23.75s-10.64 23.75-23.75 23.75H22.42c-13.12 0-23.75-10.63-23.75-23.75S9.3 300 22.42 300z" stroke="#6db1ff" stroke-width="2" fill="#fff"/><use xlink:href="#F" transform="matrix(1,0,0,1,3.6666666666667425,305) translate(57.525 21.525)"/><path d="M-263.75 505.5c13.12 0 23.75 10.64 23.75 23.76 0 13.1-10.63 23.75-23.75 23.75h-112.5c-13.12 0-23.75-10.63-23.75-23.74 0-13.12 10.63-23.75 23.75-23.75z" stroke="#6db1ff" stroke-width="2" fill="#fff"/><use xlink:href="#G" transform="matrix(1,0,0,1,-395,510.5074066887173) translate(46.55 21.525)"/><path d="M156.25 566.42c13.12 0 23.75 10.63 23.75 23.75 0 13.1-10.63 23.75-23.75 23.75H43.75c-13.12 0-23.75-10.64-23.75-23.75 0-13.12 10.63-23.75 23.75-23.75z" stroke="#6db1ff" stroke-width="2" fill="#fff"/><use xlink:href="#H" transform="matrix(1,0,0,1,25,571.4157894005797) translate(0.04999999999999716 21.525)"/><use xlink:href="#I" transform="matrix(1,0,0,1,25,571.4157894005797) translate(106 21.525)"/><path d="M-21.33 433.5v-30.25a12 12 0 0 1 12-12h61.5a12 12 0 0 0 12-12V349" stroke="#e81313" fill="none"/><path d="M-20.83 434h-1v-.5h1zM64.67 349h-1v-.5h1z" stroke="#e81313" stroke-width=".05" fill="#e81313"/><path d="M-142.83 464.5h-88.5a12 12 0 0 1-12-12V364" stroke="#e81313" fill="none"/><path d="M-142.33 465h-.52v-1h.52zM-242.83 364h-1v-.5h1z" stroke="#e81313" stroke-width=".05" fill="#e81313"/><path d="M-142.83 483.83H-308a12 12 0 0 0-12 12V504" stroke="#e81313" fill="none"/><path d="M-142.33 484.33h-.52v-1h.52zM-319.5 504.5h-1v-.5h1z" stroke="#e81313" stroke-width=".05" fill="#e81313"/><path d="M-21.33 495.5v22.7a12 12 0 0 0 12 12H98.5a12 12 0 0 1 12 12v22.72" stroke="#e81313" fill="none"/><path d="M-20.83 495.5h-1v-.5h1zM111 565.42h-1v-.52h1z" stroke="#e81313" stroke-width=".05" fill="#e81313"/><path d="M944.92 300c13.1 0 23.75 10.63 23.75 23.75s-10.64 23.75-23.75 23.75h-112.5c-13.12 0-23.75-10.63-23.75-23.75S819.3 300 832.42 300z" stroke="#6db1ff" stroke-width="2" fill="#fff"/><use xlink:href="#J" transform="matrix(1,0,0,1,813.6666666666667,305) translate(18.624999999999993 21.525)"/><path d="M594.92 315c13.1 0 23.75 10.63 23.75 23.75s-10.64 23.75-23.75 23.75h-112.5c-13.12 0-23.75-10.63-23.75-23.75S469.3 315 482.42 315z" stroke="#6db1ff" stroke-width="2" fill="#fff"/><use xlink:href="#K" transform="matrix(1,0,0,1,463.66666666666674,320) translate(8.149999999999991 21.525)"/><path d="M574.92 553c13.1 0 23.75 10.64 23.75 23.76 0 13.1-10.64 23.75-23.75 23.75h-112.5c-13.12 0-23.75-10.63-23.75-23.74 0-13.12 10.63-23.75 23.75-23.75z" stroke="#6db1ff" stroke-width="2" fill="#fff"/><use xlink:href="#L" transform="matrix(1,0,0,1,443.66666666666674,558.0074066887173) translate(46.12499999999999 21.525)"/><path d="M934.92 575c13.1 0 23.75 10.63 23.75 23.75s-10.64 23.75-23.75 23.75h-112.5c-13.12 0-23.75-10.63-23.75-23.75S809.3 575 822.42 575z" stroke="#6db1ff" stroke-width="2" fill="#fff"/><use xlink:href="#M" transform="matrix(1,0,0,1,803.6666666666667,580) translate(1.625 21.525)"/><path d="M609.17 433.5v-22.75a12 12 0 0 0-12-12h-46.5a12 12 0 0 1-12-12V364" stroke="#e81313" fill="none"/><path d="M609.67 434h-1v-.5h1zM539.17 364h-1v-.5h1z" stroke="#e81313" stroke-width=".05" fill="#e81313"/><path d="M740.2 433.5v-30.25a12 12 0 0 1 12-12h124.47a12 12 0 0 0 12-12V349" stroke="#e81313" fill="none"/><path d="M740.7 434h-1v-.5h1zM889.17 349h-1v-.5h1z" stroke="#e81313" stroke-width=".05" fill="#e81313"/><path d="M688.67 495.5v16a12 12 0 0 1-12 12h-146a12 12 0 0 0-12 12v16" stroke="#e81313" fill="none"/><path d="M689.17 495.5h-1v-.5h1zM519.17 552h-1v-.5h1z" stroke="#e81313" stroke-width=".05" fill="#e81313"/><path d="M735.28 495.5v27a12 12 0 0 0 12 12h119.4a12 12 0 0 1 12 12v27" stroke="#e81313" fill="none"/><path d="M735.78 495.5h-1v-.5h1zM879.17 574h-1v-.5h1z" stroke="#e81313" stroke-width=".05" fill="#e81313"/><path d="M1373.4 312.15c14.7 0 26.6 11.9 26.6 26.6 0 14.7-11.9 26.6-26.6 26.6h-106.8c-14.7 0-26.6-11.9-26.6-26.6 0-14.7 11.9-26.6 26.6-26.6z" stroke="#6db1ff" stroke-width="2" fill="#fff"/><use xlink:href="#N" transform="matrix(1,0,0,1,1245,317.15) translate(39.599999999999994 25.4)"/><path d="M1636.25 550.16c13.12 0 23.75 10.63 23.75 23.75s-10.63 23.76-23.75 23.76h-112.5c-13.12 0-23.75-10.64-23.75-23.75 0-13.1 10.63-23.74 23.75-23.74z" stroke="#6db1ff" stroke-width="2" fill="#fff"/><use xlink:href="#O" transform="matrix(1,0,0,1,1505,555.1574066887173) translate(15.574999999999996 21.525)"/><path d="M1392.07 550.16c14.7 0 26.6 11.9 26.6 26.6 0 14.7-11.9 26.6-26.6 26.6h-106.8c-14.7 0-26.6-11.9-26.6-26.6 0-14.7 11.9-26.6 26.6-26.6z" stroke="#6db1ff" stroke-width="2" fill="#fff"/><use xlink:href="#P" transform="matrix(1,0,0,1,1263.6666666666667,555.1574066887173) translate(54.5 25.4)"/><path d="M1338.67 548.66v-14.58a12 12 0 0 1 12-12h126a12 12 0 0 0 12-12V495.5" stroke="#e81313" fill="none"/><path d="M1339.17 549.16h-1v-.5h1zM1489.17 495.5h-1v-.5h1z" stroke="#e81313" stroke-width=".05" fill="#e81313"/><path d="M1548.73 495.5v14.58a12 12 0 0 0 12 12h7.27a12 12 0 0 1 12 12v14.58" stroke="#e81313" fill="none"/><path d="M1549.23 495.5h-1v-.5h1zM1580.5 549.16h-1v-.5h1z" stroke="#e81313" stroke-width=".05" fill="#e81313"/><path d="M1310.04 366.85v21.32a12 12 0 0 0 12 12h81.5a12 12 0 0 1 12 12v21.33" stroke="#e81313" fill="none"/><path d="M1310.54 366.86h-1v-.5h1zM1416.04 434h-1v-.5h1z" stroke="#e81313" stroke-width=".05" fill="#e81313"/><path d="M-83.75 581.5c13.12 0 23.75 10.63 23.75 23.75S-70.63 629-83.75 629h-112.5c-13.12 0-23.75-10.63-23.75-23.75s10.63-23.75 23.75-23.75z" stroke="#6db1ff" stroke-width="2" fill="#fff"/><use xlink:href="#Q" transform="matrix(1,0,0,1,-215,586.5) translate(43.05 21.525)"/><path d="M-140 579.5v-35.75a6 6 0 0 1 6-6h21.33a6 6 0 0 0 6-6V496" stroke="#e81313" stroke-width="2" fill="none"/><path d="M-139 580.5h-2v-1.03h2zM-105.67 496.03h-2V495h2z" stroke="#e81313" stroke-width=".05" fill="#e81313"/><path d="M810.17 464.5h196.55" stroke="#e81313" fill="none"/><path d="M810.18 465h-.5v-1h.5zM1006.7 464.86V464h1.23z" stroke="#e81313" stroke-width=".05" fill="#e81313"/><path d="M1625.28 308.74c13.12 0 23.75 10.63 23.75 23.75 0 13.1-10.63 23.74-23.75 23.74h-112.5c-13.12 0-23.75-10.64-23.75-23.75 0-13.13 10.63-23.76 23.75-23.76z" stroke="#6db1ff" stroke-width="2" fill="#fff"/><use xlink:href="#R" transform="matrix(1,0,0,1,1494.0277777777778,313.7372685185185) translate(43.025 21.525)"/><path d="M1569.03 357.74v25.88a12 12 0 0 1-12 12h-3.8a12 12 0 0 0-12 12v25.88" stroke="#e81313" fill="none"/><path d="M1569.53 357.75h-1v-.5h1zM1541.72 434h-1v-.5h1z" stroke="#e81313" stroke-width=".05" fill="#e81313"/><path d="M1498-160h300v279h-300z" stroke="#fc9432" stroke-width="2" fill="#fff"/><path d="M1498-122.4h300" stroke="#fc9432" stroke-width="2" fill="none"/><use xlink:href="#u" transform="matrix(1,0,0,1,1506,-152) translate(103.025 14.6)"/><use xlink:href="#S" transform="matrix(1,0,0,1,1510,-114.4) translate(0 73.39999999999999)"/><use xlink:href="#T" transform="matrix(1,0,0,1,1510,-114.4) translate(0 95)"/><use xlink:href="#c" transform="matrix(1,0,0,1,1510,-114.4) translate(234.75 95)"/><use xlink:href="#U" transform="matrix(1,0,0,1,1510,-114.4) translate(0 116.6)"/><use xlink:href="#V" transform="matrix(1,0,0,1,1510,-114.4) translate(0 138.20000000000002)"/><use xlink:href="#W" transform="matrix(1,0,0,1,1510,-114.4) translate(0 159.8)"/><path d="M579.33-160h300v279h-300z" stroke="#fc9432" stroke-width="2" fill="#fff"/><path d="M579.33-122.4h300" stroke="#fc9432" stroke-width="2" fill="none"/><use xlink:href="#X" transform="matrix(1,0,0,1,587.3333333333334,-152) translate(120.575 14.6)"/><use xlink:href="#Y" transform="matrix(1,0,0,1,591.3333333333334,-114.4) translate(0 73.39999999999999)"/><use xlink:href="#c" transform="matrix(1,0,0,1,591.3333333333334,-114.4) translate(242.85000000000002 73.39999999999999)"/><use xlink:href="#Z" transform="matrix(1,0,0,1,591.3333333333334,-114.4) translate(0 95)"/><use xlink:href="#aa" transform="matrix(1,0,0,1,591.3333333333334,-114.4) translate(0 116.6)"/><use xlink:href="#ab" transform="matrix(1,0,0,1,591.3333333333334,-114.4) translate(0 138.20000000000002)"/><use xlink:href="#ac" transform="matrix(1,0,0,1,591.3333333333334,-114.4) translate(0 159.8)"/><use xlink:href="#ad" transform="matrix(1,0,0,1,591.3333333333334,-114.4) translate(103.95 159.8)"/><path d="M927.22-20h-46.4v-1h46.4zm89.28-.07l-46.38.05v-1l46.38-.05z" stroke="#ba23f6" stroke-width=".05" fill="#ba23f6"/><path d="M880.85-20h-.52v-1h.52z" fill="#ba23f6"/><path d="M880.87-19.98h-.56v-1.04h.57zm-.5-1v.96h.45v-.96z" stroke="#ba23f6" stroke-width=".05" fill="#ba23f6"/><path d="M1017-20.07h-.5v-1h.5z" fill="#ba23f6"/><path d="M1017.02-20.04h-.56v-1.05h.56zm-.5-1v.95h.46v-.94z" stroke="#ba23f6" stroke-width=".05" fill="#ba23f6"/><g><use xlink:href="#i" transform="matrix(1,0,0,1,927.2166666666667,-31.33268401077355) translate(0 14.4)"/><use xlink:href="#j" transform="matrix(1,0,0,1,927.2166666666667,-31.33268401077355) translate(17.950000000000003 14.4)"/><use xlink:href="#k" transform="matrix(1,0,0,1,927.2166666666667,-31.33268401077355) translate(27.950000000000003 14.4)"/></g><path d="M-320-160.06h300v279h-300z" stroke="#fc9432" stroke-width="2" fill="#fff"/><path d="M-320-122.47h300" stroke="#fc9432" stroke-width="2" fill="none"/><g><use xlink:href="#v" transform="matrix(1,0,0,1,-312,-152.06536802154721) translate(102.05 14.6)"/></g><g><use xlink:href="#ae" transform="matrix(1,0,0,1,-308,-114.46536802154722) translate(0 62.6)"/><use xlink:href="#af" transform="matrix(1,0,0,1,-308,-114.46536802154722) translate(225.8 62.6)"/><use xlink:href="#ag" transform="matrix(1,0,0,1,-308,-114.46536802154722) translate(0 84.20000000000002)"/><use xlink:href="#ah" transform="matrix(1,0,0,1,-308,-114.46536802154722) translate(0 105.80000000000001)"/><use xlink:href="#ai" transform="matrix(1,0,0,1,-308,-114.46536802154722) translate(0 127.40000000000002)"/><use xlink:href="#aj" transform="matrix(1,0,0,1,-308,-114.46536802154722) translate(0 149.00000000000003)"/><use xlink:href="#ak" transform="matrix(1,0,0,1,-308,-114.46536802154722) translate(0 170.6)"/></g><path d="M140.67-160h300v279h-300z" stroke="#e81313" stroke-width="2" fill="#fff"/><path d="M140.67-122.4h300" stroke="#e81313" stroke-width="2" fill="none"/><g><use xlink:href="#al" transform="matrix(1,0,0,1,148.66666666666674,-152) translate(80.625 14.6)"/></g><g><use xlink:href="#am" transform="matrix(1,0,0,1,152.66666666666674,-114.4) translate(0 84.19999999999999)"/><use xlink:href="#af" transform="matrix(1,0,0,1,152.66666666666674,-114.4) translate(197.95 84.19999999999999)"/><use xlink:href="#an" transform="matrix(1,0,0,1,152.66666666666674,-114.4) translate(0 105.79999999999998)"/><use xlink:href="#e" transform="matrix(1,0,0,1,152.66666666666674,-114.4) translate(195.8 105.79999999999998)"/><use xlink:href="#f" transform="matrix(1,0,0,1,152.66666666666674,-114.4) translate(224.8 105.79999999999998)"/><use xlink:href="#ao" transform="matrix(1,0,0,1,152.66666666666674,-114.4) translate(0 127.39999999999999)"/><use xlink:href="#e" transform="matrix(1,0,0,1,152.66666666666674,-114.4) translate(197.85000000000002 127.39999999999999)"/><use xlink:href="#ap" transform="matrix(1,0,0,1,152.66666666666674,-114.4) translate(226.85000000000002 127.39999999999999)"/><use xlink:href="#aq" transform="matrix(1,0,0,1,152.66666666666674,-114.4) translate(0 149)"/></g><path d="M139.17-32.5v1l-57.4-.05v-1zm-157.67.93v-1h57.38v1z" stroke="#d916a8" stroke-width=".05" fill="#d916a8"/><path d="M-18.5-31.57h-.5v-1h.5z" fill="#d916a8"/><path d="M-18.46-31.54h-.56v-1.05h.56zm-.52-1v.95h.47v-.94z" stroke="#d916a8" stroke-width=".05" fill="#d916a8"/><path d="M139.67-31.5h-.52v-1h.52z" fill="#d916a8"/><path d="M139.7-31.48h-.57v-1.04h.56zm-.52-1v.95h.46v-.95z" stroke="#d916a8" stroke-width=".05" fill="#d916a8"/><g><use xlink:href="#i" transform="matrix(1,0,0,1,38.88333333333337,-42.832684010773576) translate(0 14.4)"/><use xlink:href="#j" transform="matrix(1,0,0,1,38.88333333333337,-42.832684010773576) translate(17.950000000000003 14.4)"/><use xlink:href="#k" transform="matrix(1,0,0,1,38.88333333333337,-42.832684010773576) translate(27.950000000000003 14.4)"/></g><path d="M488.55-39.5h-46.38v-1h46.38zm89.28 0h-46.38v-1h46.38z" stroke="#d916a8" stroke-width=".05" fill="#d916a8"/><path d="M442.18-39.5h-.5v-1h.5z" fill="#d916a8"/><path d="M442.2-39.48h-.56v-1.05h.56zm-.5-1v.95h.45v-.95z" stroke="#d916a8" stroke-width=".05" fill="#d916a8"/><path d="M578.33-39.5h-.5v-1h.5z" fill="#d916a8"/><path d="M578.36-39.48h-.57v-1.05h.56zm-.5-1v.95h.45v-.95z" stroke="#d916a8" stroke-width=".05" fill="#d916a8"/><g><use xlink:href="#i" transform="matrix(1,0,0,1,488.55000000000007,-50.799999999999955) translate(0 14.4)"/><use xlink:href="#j" transform="matrix(1,0,0,1,488.55000000000007,-50.799999999999955) translate(17.950000000000003 14.4)"/><use xlink:href="#k" transform="matrix(1,0,0,1,488.55000000000007,-50.799999999999955) translate(27.950000000000003 14.4)"/></g><path d="M1816.25 371.25c13.12 0 23.75 10.63 23.75 23.75s-10.63 23.75-23.75 23.75h-112.5c-13.12 0-23.75-10.63-23.75-23.75s10.63-23.75 23.75-23.75z" stroke="#6db1ff" stroke-width="2" fill="#fff"/><g><use xlink:href="#ar" transform="matrix(1,0,0,1,1685,376.25) translate(32.574999999999996 21.525)"/></g><path d="M1816.25 473.33c13.12 0 23.75 10.63 23.75 23.75s-10.63 23.75-23.75 23.75h-112.5c-13.12 0-23.75-10.63-23.75-23.75s10.63-23.75 23.75-23.75z" stroke="#6db1ff" stroke-width="2" fill="#fff"/><g><use xlink:href="#as" transform="matrix(1,0,0,1,1685,478.329123137386) translate(31.549999999999997 21.525)"/></g><path d="M1610.17 464.5h22.16a12 12 0 0 1 12 12v8.58a12 12 0 0 0 12 12h22.17" stroke="#e81313" fill="none"/><path d="M1610.18 465h-.5v-1h.5zM1679 497.05l.02.53h-.53v-1h.55z" stroke="#e81313" stroke-width=".05" fill="#e81313"/><path d="M1596 433.5V407a12 12 0 0 1 12-12h70.5" stroke="#e81313" fill="none"/><path d="M1596.5 434h-1v-.5h1zM1679 394.97l.02.53h-.53v-1h.55z" stroke="#e81313" stroke-width=".05" fill="#e81313"/><defs><path fill="#333" d="M24 0v-248h195v40H76v63h132v40H76v65h150V0H24" id="at"/><path fill="#333" d="M137-138c1-29-70-34-71-4 15 46 118 7 119 86 1 83-164 76-172 9l43-7c4 19 20 25 44 25 33 8 57-30 24-41C81-84 22-81 20-136c-2-80 154-74 161-7" id="au"/><path fill="#333" d="M135-194c53 0 70 44 70 98 0 56-19 98-73 100-31 1-45-17-59-34 3 33 2 69 2 105H25l-1-265h48c2 10 0 23 3 31 11-24 29-35 60-35zM114-30c33 0 39-31 40-66 0-38-9-64-40-64-56 0-55 130 0 130" id="av"/><path fill="#333" d="M185-48c-13 30-37 53-82 52C43 2 14-33 14-96s30-98 90-98c62 0 83 45 84 108H66c0 31 8 55 39 56 18 0 30-7 34-22zm-45-69c5-46-57-63-70-21-2 6-4 13-4 21h74" id="aw"/><path fill="#333" d="M190-63c-7 42-38 67-86 67-59 0-84-38-90-98-12-110 154-137 174-36l-49 2c-2-19-15-32-35-32-30 0-35 28-38 64-6 74 65 87 74 30" id="ax"/><path fill="#333" d="M25-224v-37h50v37H25zM25 0v-190h50V0H25" id="ay"/><path fill="#333" d="M210 0H11v-37l134-170H24v-41h178v36L68-41h142V0" id="az"/><path fill="#333" d="M110-194c64 0 96 36 96 99 0 64-35 99-97 99-61 0-95-36-95-99 0-62 34-99 96-99zm-1 164c35 0 45-28 45-65 0-40-10-65-43-65-34 0-45 26-45 65 0 36 10 65 43 65" id="aA"/><g id="a"><use transform="matrix(0.05,0,0,0.05,0,0)" xlink:href="#at"/><use transform="matrix(0.05,0,0,0.05,12,0)" xlink:href="#au"/><use transform="matrix(0.05,0,0,0.05,22,0)" xlink:href="#av"/><use transform="matrix(0.05,0,0,0.05,32.95,0)" xlink:href="#aw"/><use transform="matrix(0.05,0,0,0.05,42.95,0)" xlink:href="#ax"/><use transform="matrix(0.05,0,0,0.05,52.95,0)" xlink:href="#ay"/><use transform="matrix(0.05,0,0,0.05,57.95,0)" xlink:href="#aw"/><use transform="matrix(0.05,0,0,0.05,67.95,0)" xlink:href="#au"/><use transform="matrix(0.05,0,0,0.05,77.95,0)" xlink:href="#az"/><use transform="matrix(0.05,0,0,0.05,88.9,0)" xlink:href="#aA"/><use transform="matrix(0.05,0,0,0.05,99.85000000000001,0)" xlink:href="#aA"/><use transform="matrix(0.05,0,0,0.05,110.80000000000001,0)" xlink:href="#au"/></g><path fill="#333" d="M33 0v-248h34V0H33" id="aB"/><path fill="#333" d="M30-248c118-7 216 8 213 122C240-48 200 0 122 0H30v-248zM63-27c89 8 146-16 146-99s-60-101-146-95v194" id="aC"/><g id="b"><use transform="matrix(0.05,0,0,0.05,0,0)" xlink:href="#aB"/><use transform="matrix(0.05,0,0,0.05,5,0)" xlink:href="#aC"/><path fill="#333" d="M-.9 1.25h19.75v1.32H-.9z"/></g><path fill="#333" d="M30-248c87 1 191-15 191 75 0 78-77 80-158 76V0H30v-248zm33 125c57 0 124 11 124-50 0-59-68-47-124-48v98" id="aD"/><path fill="#333" d="M194 0L95-120 63-95V0H30v-248h33v124l119-124h40L117-140 236 0h-42" id="aE"/><g id="c"><use transform="matrix(0.05,0,0,0.05,0,0)" xlink:href="#aD"/><use transform="matrix(0.05,0,0,0.05,12,0)" xlink:href="#aE"/></g><path fill="#333" d="M190 0L58-211 59 0H30v-248h39L202-35l-2-213h31V0h-41" id="aF"/><path fill="#333" d="M100-194c62-1 85 37 85 99 1 63-27 99-86 99S16-35 15-95c0-66 28-99 85-99zM99-20c44 1 53-31 53-75 0-43-8-75-51-75s-53 32-53 75 10 74 51 75" id="aG"/><path fill="#333" d="M210-169c-67 3-38 105-44 169h-31v-121c0-29-5-50-35-48C34-165 62-65 56 0H25l-1-190h30c1 10-1 24 2 32 10-44 99-50 107 0 11-21 27-35 58-36 85-2 47 119 55 194h-31v-121c0-29-5-49-35-48" id="aH"/><path fill="#333" d="M115-194c53 0 69 39 70 98 0 66-23 100-70 100C84 3 66-7 56-30L54 0H23l1-261h32v101c10-23 28-34 59-34zm-8 174c40 0 45-34 45-75 0-40-5-75-45-74-42 0-51 32-51 76 0 43 10 73 51 73" id="aI"/><path fill="#333" d="M114-163C36-179 61-72 57 0H25l-1-190h30c1 12-1 29 2 39 6-27 23-49 58-41v29" id="aJ"/><path fill="#333" d="M100-194c63 0 86 42 84 106H49c0 40 14 67 53 68 26 1 43-12 49-29l28 8c-11 28-37 45-77 45C44 4 14-33 15-96c1-61 26-98 85-98zm52 81c6-60-76-77-97-28-3 7-6 17-6 28h103" id="aK"/><path fill="#333" d="M9 0v-24l116-142H16v-24h144v24L44-24h123V0H9" id="aL"/><g id="d"><use transform="matrix(0.05,0,0,0.05,0,0)" xlink:href="#aF"/><use transform="matrix(0.05,0,0,0.05,12.950000000000001,0)" xlink:href="#aG"/><use transform="matrix(0.05,0,0,0.05,22.950000000000003,0)" xlink:href="#aH"/><use transform="matrix(0.05,0,0,0.05,37.900000000000006,0)" xlink:href="#aI"/><use transform="matrix(0.05,0,0,0.05,47.900000000000006,0)" xlink:href="#aJ"/><use transform="matrix(0.05,0,0,0.05,53.85,0)" xlink:href="#aK"/><use transform="matrix(0.05,0,0,0.05,63.85,0)" xlink:href="#aL"/><use transform="matrix(0.05,0,0,0.05,72.85000000000001,0)" xlink:href="#aG"/><use transform="matrix(0.05,0,0,0.05,82.85000000000001,0)" xlink:href="#aG"/><path fill="#333" d="M-.9 1.25h94.65v1.32H-.9z"/></g><g id="e"><use transform="matrix(0.05,0,0,0.05,0,0)" xlink:href="#aD"/><use transform="matrix(0.05,0,0,0.05,12,0)" xlink:href="#aE"/></g><path fill="#333" d="M63-220v92h138v28H63V0H30v-248h175v28H63" id="aM"/><g id="f"><use transform="matrix(0.05,0,0,0.05,0,0)" xlink:href="#aM"/><use transform="matrix(0.05,0,0,0.05,10.950000000000001,0)" xlink:href="#aE"/></g><path fill="#333" d="M96-169c-40 0-48 33-48 73s9 75 48 75c24 0 41-14 43-38l32 2c-6 37-31 61-74 61-59 0-76-41-82-99-10-93 101-131 147-64 4 7 5 14 7 22l-32 3c-4-21-16-35-41-35" id="aN"/><path fill="#333" d="M24-231v-30h32v30H24zM24 0v-190h32V0H24" id="aO"/><path fill="#333" d="M117-194c89-4 53 116 60 194h-32v-121c0-31-8-49-39-48C34-167 62-67 57 0H25l-1-190h30c1 10-1 24 2 32 11-22 29-35 61-36" id="aP"/><path fill="#333" d="M59-47c-2 24 18 29 38 22v24C64 9 27 4 27-40v-127H5v-23h24l9-43h21v43h35v23H59v120" id="aQ"/><path fill="#333" d="M101-234c-31-9-42 10-38 44h38v23H63V0H32v-167H5v-23h27c-7-52 17-82 69-68v24" id="aR"/><g id="g"><use transform="matrix(0.05,0,0,0.05,0,0)" xlink:href="#aF"/><use transform="matrix(0.05,0,0,0.05,12.950000000000001,0)" xlink:href="#aG"/><use transform="matrix(0.05,0,0,0.05,22.950000000000003,0)" xlink:href="#aH"/><use transform="matrix(0.05,0,0,0.05,37.900000000000006,0)" xlink:href="#aI"/><use transform="matrix(0.05,0,0,0.05,47.900000000000006,0)" xlink:href="#aJ"/><use transform="matrix(0.05,0,0,0.05,53.85,0)" xlink:href="#aK"/><use transform="matrix(0.05,0,0,0.05,63.85,0)" xlink:href="#aN"/><use transform="matrix(0.05,0,0,0.05,72.85000000000001,0)" xlink:href="#aO"/><use transform="matrix(0.05,0,0,0.05,76.80000000000001,0)" xlink:href="#aK"/><use transform="matrix(0.05,0,0,0.05,86.80000000000001,0)" xlink:href="#aP"/><use transform="matrix(0.05,0,0,0.05,96.80000000000001,0)" xlink:href="#aQ"/><use transform="matrix(0.05,0,0,0.05,101.80000000000001,0)" xlink:href="#aO"/><use transform="matrix(0.05,0,0,0.05,105.75,0)" xlink:href="#aR"/><use transform="matrix(0.05,0,0,0.05,110.75,0)" xlink:href="#aO"/><use transform="matrix(0.05,0,0,0.05,114.7,0)" xlink:href="#aN"/><use transform="matrix(0.05,0,0,0.05,123.7,0)" xlink:href="#aG"/><path fill="#333" d="M-.9 1.25h135.5v1.32H-.9z"/></g><g id="h"><use transform="matrix(0.05,0,0,0.05,0,0)" xlink:href="#aM"/><use transform="matrix(0.05,0,0,0.05,10.950000000000001,0)" xlink:href="#aE"/></g><use transform="matrix(0.05,0,0,0.05,0,0)" xlink:href="#aF" id="i"/><path fill="#333" d="M33-154v-36h34v36H33zM33 0v-36h34V0H33" id="aS"/><use transform="matrix(0.05,0,0,0.05,0,0)" xlink:href="#aS" id="j"/><path fill="#333" d="M240 0l2-218c-23 76-54 145-80 218h-23L58-218 59 0H30v-248h44l77 211c21-75 51-140 76-211h43V0h-30" id="aT"/><use transform="matrix(0.05,0,0,0.05,0,0)" xlink:href="#aT" id="k"/><g id="l"><use transform="matrix(0.05,0,0,0.05,0,0)" xlink:href="#az"/><use transform="matrix(0.05,0,0,0.05,10.950000000000001,0)" xlink:href="#aA"/><use transform="matrix(0.05,0,0,0.05,21.900000000000002,0)" xlink:href="#aA"/><use transform="matrix(0.05,0,0,0.05,32.85,0)" xlink:href="#au"/></g><path fill="#fe7070" d="M230 0l2-204L168 0h-37L68-204 70 0H24v-248h70l56 185 57-185h69V0h-46" id="aU"/><path fill="#fe7070" d="M140-251c80 0 125 45 125 126S219 4 139 4C58 4 15-44 15-125s44-126 125-126zm-1 214c52 0 73-35 73-88 0-50-21-86-72-86-52 0-73 35-73 86s22 88 72 88" id="aV"/><path fill="#fe7070" d="M24-248c120-7 223 5 221 122C244-46 201 0 124 0H24v-248zM76-40c74 7 117-18 117-86 0-67-45-88-117-82v168" id="aW"/><path fill="#fe7070" d="M24 0v-248h195v40H76v63h132v40H76v65h150V0H24" id="aX"/><path fill="#fe7070" d="M24 0v-248h52v208h133V0H24" id="aY"/><g id="m"><use transform="matrix(0.0728395061728395,0,0,0.0728395061728395,0,0)" xlink:href="#aU"/><use transform="matrix(0.0728395061728395,0,0,0.0728395061728395,21.77901234567901,0)" xlink:href="#aV"/><use transform="matrix(0.0728395061728395,0,0,0.0728395061728395,42.17407407407407,0)" xlink:href="#aW"/><use transform="matrix(0.0728395061728395,0,0,0.0728395061728395,61.0395061728395,0)" xlink:href="#aX"/><use transform="matrix(0.0728395061728395,0,0,0.0728395061728395,78.52098765432098,0)" xlink:href="#aY"/><use transform="matrix(0.0728395061728395,0,0,0.0728395061728395,94.47283950617283,0)" xlink:href="#aV"/></g><path fill="#fe7070" d="M175 0L67-191c6 58 2 128 3 191H24v-248h59L193-55c-6-58-2-129-3-193h46V0h-61" id="aZ"/><path fill="#fe7070" d="M136-208V0H84v-208H4v-40h212v40h-80" id="ba"/><path fill="#fe7070" d="M24 0v-248h52V0H24" id="bb"/><path fill="#fe7070" d="M199 0l-22-63H83L61 0H9l90-248h61L250 0h-51zm-33-102l-36-108c-10 38-24 72-36 108h72" id="bc"/><g id="n"><use transform="matrix(0.0728395061728395,0,0,0.0728395061728395,0,0)" xlink:href="#aX"/><use transform="matrix(0.0728395061728395,0,0,0.0728395061728395,17.48148148148148,0)" xlink:href="#aZ"/><use transform="matrix(0.0728395061728395,0,0,0.0728395061728395,36.34691358024691,0)" xlink:href="#ba"/><use transform="matrix(0.0728395061728395,0,0,0.0728395061728395,52.29876543209876,0)" xlink:href="#bb"/><use transform="matrix(0.0728395061728395,0,0,0.0728395061728395,59.582716049382704,0)" xlink:href="#aW"/><use transform="matrix(0.0728395061728395,0,0,0.0728395061728395,78.44814814814814,0)" xlink:href="#bc"/><use transform="matrix(0.0728395061728395,0,0,0.0728395061728395,97.31358024691357,0)" xlink:href="#aW"/></g><path fill="#fe7070" d="M14-72v-43h91v43H14" id="bd"/><use transform="matrix(0.0728395061728395,0,0,0.0728395061728395,0,0)" xlink:href="#bd" id="o"/><path fill="#fe7070" d="M240-174c0 40-23 61-54 70L253 0h-59l-57-94H76V0H24v-248c93 4 217-23 216 74zM76-134c48-2 112 12 112-38 0-48-66-32-112-35v73" id="be"/><path fill="#fe7070" d="M67-125c0 53 21 87 73 88 37 1 54-22 65-47l45 17C233-25 199 4 140 4 58 4 20-42 15-125 8-235 124-281 211-232c18 10 29 29 36 50l-46 12c-8-25-30-41-62-41-52 0-71 34-72 86" id="bf"/><path fill="#fe7070" d="M110-269v-5l44-45h46v8l-60 42h-30zm30 18c80 0 125 45 125 126S219 4 139 4C58 4 15-44 15-125s44-126 125-126zm-1 214c52 0 73-35 73-88 0-50-21-86-72-86-52 0-73 35-73 86s22 88 72 88" id="bg"/><g id="p"><use transform="matrix(0.0728395061728395,0,0,0.0728395061728395,0,0)" xlink:href="#be"/><use transform="matrix(0.0728395061728395,0,0,0.0728395061728395,18.86543209876543,0)" xlink:href="#aX"/><use transform="matrix(0.0728395061728395,0,0,0.0728395061728395,36.34691358024691,0)" xlink:href="#aY"/><use transform="matrix(0.0728395061728395,0,0,0.0728395061728395,52.29876543209876,0)" xlink:href="#bc"/><use transform="matrix(0.0728395061728395,0,0,0.0728395061728395,71.16419753086419,0)" xlink:href="#bf"/><use transform="matrix(0.0728395061728395,0,0,0.0728395061728395,90.02962962962962,0)" xlink:href="#bb"/><use transform="matrix(0.0728395061728395,0,0,0.0728395061728395,97.31358024691357,0)" xlink:href="#bg"/><use transform="matrix(0.0728395061728395,0,0,0.0728395061728395,117.70864197530864,0)" xlink:href="#aZ"/></g><path fill="#fe7070" d="M182-130c37 4 62 22 62 59C244 23 116-4 24 0v-248c84 5 203-23 205 63 0 31-19 50-47 55zM76-148c40-3 101 13 101-30 0-44-60-28-101-31v61zm0 110c48-3 116 14 116-37 0-48-69-32-116-35v72" id="bh"/><path fill="#fe7070" d="M169-182c-1-43-94-46-97-3 18 66 151 10 154 114 3 95-165 93-204 36-6-8-10-19-12-30l50-8c3 46 112 56 116 5-17-69-150-10-154-114-4-87 153-88 188-35 5 8 8 18 10 28" id="bi"/><g id="q"><use transform="matrix(0.04248971193415638,0,0,0.04248971193415638,0,0)" xlink:href="#bh"/><use transform="matrix(0.04248971193415638,0,0,0.04248971193415638,11.004835390946502,0)" xlink:href="#bc"/><use transform="matrix(0.04248971193415638,0,0,0.04248971193415638,22.009670781893004,0)" xlink:href="#bi"/><use transform="matrix(0.04248971193415638,0,0,0.04248971193415638,32.20720164609053,0)" xlink:href="#aX"/><use transform="matrix(0.04248971193415638,0,0,0.04248971193415638,42.40473251028806,0)" xlink:href="#bi"/></g><g id="r"><use transform="matrix(0.04248971193415638,0,0,0.04248971193415638,0,0)" xlink:href="#aW"/><use transform="matrix(0.04248971193415638,0,0,0.04248971193415638,11.004835390946502,0)" xlink:href="#aX"/></g><g id="s"><use transform="matrix(0.04248971193415638,0,0,0.04248971193415638,0,0)" xlink:href="#aW"/><use transform="matrix(0.04248971193415638,0,0,0.04248971193415638,11.004835390946502,0)" xlink:href="#bc"/><use transform="matrix(0.04248971193415638,0,0,0.04248971193415638,20.86244855967078,0)" xlink:href="#ba"/><use transform="matrix(0.04248971193415638,0,0,0.04248971193415638,29.87026748971193,0)" xlink:href="#aV"/><use transform="matrix(0.04248971193415638,0,0,0.04248971193415638,41.76738683127572,0)" xlink:href="#bi"/></g><g id="t"><use transform="matrix(0.0728395061728395,0,0,0.0728395061728395,0,0)" xlink:href="#be"/><use transform="matrix(0.0728395061728395,0,0,0.0728395061728395,18.86543209876543,0)" xlink:href="#aX"/><use transform="matrix(0.0728395061728395,0,0,0.0728395061728395,36.34691358024691,0)" xlink:href="#aY"/><use transform="matrix(0.0728395061728395,0,0,0.0728395061728395,52.29876543209876,0)" xlink:href="#bc"/><use transform="matrix(0.0728395061728395,0,0,0.0728395061728395,71.16419753086419,0)" xlink:href="#bf"/><use transform="matrix(0.0728395061728395,0,0,0.0728395061728395,90.02962962962962,0)" xlink:href="#bb"/><use transform="matrix(0.0728395061728395,0,0,0.0728395061728395,97.31358024691357,0)" xlink:href="#aV"/><use transform="matrix(0.0728395061728395,0,0,0.0728395061728395,117.70864197530864,0)" xlink:href="#aZ"/><use transform="matrix(0.0728395061728395,0,0,0.0728395061728395,136.57407407407408,0)" xlink:href="#bc"/><use transform="matrix(0.0728395061728395,0,0,0.0728395061728395,155.43950617283951,0)" xlink:href="#aY"/></g><g id="u"><use transform="matrix(0.05,0,0,0.05,0,0)" xlink:href="#at"/><use transform="matrix(0.05,0,0,0.05,12,0)" xlink:href="#au"/><use transform="matrix(0.05,0,0,0.05,22,0)" xlink:href="#av"/><use transform="matrix(0.05,0,0,0.05,32.95,0)" xlink:href="#aw"/><use transform="matrix(0.05,0,0,0.05,42.95,0)" xlink:href="#ax"/><use transform="matrix(0.05,0,0,0.05,52.95,0)" xlink:href="#ay"/><use transform="matrix(0.05,0,0,0.05,57.95,0)" xlink:href="#aw"/><use transform="matrix(0.05,0,0,0.05,67.95,0)" xlink:href="#au"/></g><path fill="#333" d="M199 0l-22-63H83L61 0H9l90-248h61L250 0h-51zm-33-102l-36-108c-10 38-24 72-36 108h72" id="bj"/><path fill="#333" d="M135-194c87-1 58 113 63 194h-50c-7-57 23-157-34-157-59 0-34 97-39 157H25l-1-190h47c2 12-1 28 3 38 12-26 28-41 61-42" id="bk"/><path fill="#333" d="M220-157c-53 9-28 100-34 157h-49v-107c1-27-5-49-29-50C55-147 81-57 75 0H25l-1-190h47c2 12-1 28 3 38 10-53 101-56 108 0 13-22 24-43 59-42 82 1 51 116 57 194h-49v-107c-1-25-5-48-29-50" id="bl"/><path fill="#333" d="M133-34C117-15 103 5 69 4 32 3 11-16 11-54c-1-60 55-63 116-61 1-26-3-47-28-47-18 1-26 9-28 27l-52-2c7-38 36-58 82-57s74 22 75 68l1 82c-1 14 12 18 25 15v27c-30 8-71 5-69-32zm-48 3c29 0 43-24 42-57-32 0-66-3-65 30 0 17 8 27 23 27" id="bm"/><path fill="#333" d="M25 0v-261h50V0H25" id="bn"/><g id="v"><use transform="matrix(0.05,0,0,0.05,0,0)" xlink:href="#bj"/><use transform="matrix(0.05,0,0,0.05,12.950000000000001,0)" xlink:href="#bk"/><use transform="matrix(0.05,0,0,0.05,23.900000000000002,0)" xlink:href="#ay"/><use transform="matrix(0.05,0,0,0.05,28.900000000000002,0)" xlink:href="#bl"/><use transform="matrix(0.05,0,0,0.05,44.900000000000006,0)" xlink:href="#bm"/><use transform="matrix(0.05,0,0,0.05,54.900000000000006,0)" xlink:href="#bn"/><use transform="matrix(0.05,0,0,0.05,59.900000000000006,0)" xlink:href="#aw"/><use transform="matrix(0.05,0,0,0.05,69.9,0)" xlink:href="#au"/></g><g id="w"><use transform="matrix(0.05,0,0,0.05,0,0)" xlink:href="#aQ"/><use transform="matrix(0.05,0,0,0.05,5,0)" xlink:href="#aO"/><use transform="matrix(0.05,0,0,0.05,8.95,0)" xlink:href="#aK"/><use transform="matrix(0.05,0,0,0.05,18.95,0)" xlink:href="#aP"/><use transform="matrix(0.05,0,0,0.05,28.950000000000003,0)" xlink:href="#aK"/><use transform="matrix(0.05,0,0,0.05,38.95,0)" xlink:href="#aP"/></g><path fill="#333" d="M85-194c31 0 48 13 60 33l-1-100h32l1 261h-30c-2-10 0-23-3-31C134-8 116 4 85 4 32 4 16-35 15-94c0-66 23-100 70-100zm9 24c-40 0-46 34-46 75 0 40 6 74 45 74 42 0 51-32 51-76 0-42-9-74-50-73" id="bo"/><g id="x"><use transform="matrix(0.05,0,0,0.05,0,0)" xlink:href="#bo"/><use transform="matrix(0.05,0,0,0.05,10,0)" xlink:href="#aK"/></g><use transform="matrix(0.05,0,0,0.05,0,0)" xlink:href="#aF" id="y"/><use transform="matrix(0.05,0,0,0.05,0,0)" xlink:href="#aS" id="z"/><use transform="matrix(0.05,0,0,0.05,0,0)" xlink:href="#aT" id="A"/><use transform="matrix(0.05,0,0,0.05,0,0)" xlink:href="#aF" id="B"/><use transform="matrix(0.05,0,0,0.05,0,0)" xlink:href="#aS" id="C"/><use transform="matrix(0.05,0,0,0.05,0,0)" xlink:href="#aT" id="D"/><g id="E"><use transform="matrix(0.05,0,0,0.05,0,0)" xlink:href="#aF"/><use transform="matrix(0.05,0,0,0.05,12.950000000000001,0)" xlink:href="#aG"/><use transform="matrix(0.05,0,0,0.05,22.950000000000003,0)" xlink:href="#aH"/><use transform="matrix(0.05,0,0,0.05,37.900000000000006,0)" xlink:href="#aI"/><use transform="matrix(0.05,0,0,0.05,47.900000000000006,0)" xlink:href="#aJ"/><use transform="matrix(0.05,0,0,0.05,53.85,0)" xlink:href="#aK"/><use transform="matrix(0.05,0,0,0.05,63.85,0)" xlink:href="#aL"/><use transform="matrix(0.05,0,0,0.05,72.85000000000001,0)" xlink:href="#aG"/><use transform="matrix(0.05,0,0,0.05,82.85000000000001,0)" xlink:href="#aG"/><path fill="#333" d="M-.9 1.25h94.65v1.32H-.9z"/></g><path fill="#333" d="M141-36C126-15 110 5 73 4 37 3 15-17 15-53c-1-64 63-63 125-63 3-35-9-54-41-54-24 1-41 7-42 31l-33-3c5-37 33-52 76-52 45 0 72 20 72 64v82c-1 20 7 32 28 27v20c-31 9-61-2-59-35zM48-53c0 20 12 33 32 33 41-3 63-29 60-74-43 2-92-5-92 41" id="bp"/><path fill="#333" d="M135-143c-3-34-86-38-87 0 15 53 115 12 119 90S17 21 10-45l28-5c4 36 97 45 98 0-10-56-113-15-118-90-4-57 82-63 122-42 12 7 21 19 24 35" id="bq"/><g id="F"><use transform="matrix(0.05,0,0,0.05,0,0)" xlink:href="#aD"/><use transform="matrix(0.05,0,0,0.05,12,0)" xlink:href="#bp"/><use transform="matrix(0.05,0,0,0.05,22,0)" xlink:href="#aO"/><use transform="matrix(0.05,0,0,0.05,25.950000000000003,0)" xlink:href="#bq"/></g><path fill="#333" d="M212-179c-10-28-35-45-73-45-59 0-87 40-87 99 0 60 29 101 89 101 43 0 62-24 78-52l27 14C228-24 195 4 139 4 59 4 22-46 18-125c-6-104 99-153 187-111 19 9 31 26 39 46" id="br"/><path fill="#333" d="M84 4C-5 8 30-112 23-190h32v120c0 31 7 50 39 49 72-2 45-101 50-169h31l1 190h-30c-1-10 1-25-2-33-11 22-28 36-60 37" id="bs"/><g id="G"><use transform="matrix(0.05,0,0,0.05,0,0)" xlink:href="#br"/><use transform="matrix(0.05,0,0,0.05,12.950000000000001,0)" xlink:href="#aO"/><use transform="matrix(0.05,0,0,0.05,16.900000000000002,0)" xlink:href="#bs"/><use transform="matrix(0.05,0,0,0.05,26.900000000000002,0)" xlink:href="#bo"/><use transform="matrix(0.05,0,0,0.05,36.900000000000006,0)" xlink:href="#bp"/><use transform="matrix(0.05,0,0,0.05,46.900000000000006,0)" xlink:href="#bo"/></g><path fill="#333" d="M115-194c55 1 70 41 70 98S169 2 115 4C84 4 66-9 55-30l1 105H24l-1-265h31l2 30c10-21 28-34 59-34zm-8 174c40 0 45-34 45-75s-6-73-45-74c-42 0-51 32-51 76 0 43 10 73 51 73" id="bt"/><g id="H"><use transform="matrix(0.05,0,0,0.05,0,0)" xlink:href="#aD"/><use transform="matrix(0.05,0,0,0.05,12,0)" xlink:href="#aJ"/><use transform="matrix(0.05,0,0,0.05,17.95,0)" xlink:href="#aK"/><use transform="matrix(0.05,0,0,0.05,27.950000000000003,0)" xlink:href="#bq"/><use transform="matrix(0.05,0,0,0.05,36.95,0)" xlink:href="#bs"/><use transform="matrix(0.05,0,0,0.05,46.95,0)" xlink:href="#bt"/><use transform="matrix(0.05,0,0,0.05,56.95,0)" xlink:href="#bs"/><use transform="matrix(0.05,0,0,0.05,66.95,0)" xlink:href="#aK"/><use transform="matrix(0.05,0,0,0.05,76.95,0)" xlink:href="#bq"/><use transform="matrix(0.05,0,0,0.05,85.95,0)" xlink:href="#aQ"/><use transform="matrix(0.05,0,0,0.05,90.95,0)" xlink:href="#aG"/></g><path fill="#333" d="M24 0v-261h32V0H24" id="bu"/><g id="I"><use transform="matrix(0.05,0,0,0.05,0,0)" xlink:href="#bp"/><use transform="matrix(0.05,0,0,0.05,10,0)" xlink:href="#aP"/><use transform="matrix(0.05,0,0,0.05,20,0)" xlink:href="#bs"/><use transform="matrix(0.05,0,0,0.05,30,0)" xlink:href="#bp"/><use transform="matrix(0.05,0,0,0.05,40,0)" xlink:href="#bu"/></g><path fill="#333" d="M108 0H70L1-190h34L89-25l56-165h34" id="bv"/><path fill="#333" d="M177-190C167-65 218 103 67 71c-23-6-38-20-44-43l32-5c15 47 100 32 89-28v-30C133-14 115 1 83 1 29 1 15-40 15-95c0-56 16-97 71-98 29-1 48 16 59 35 1-10 0-23 2-32h30zM94-22c36 0 50-32 50-73 0-42-14-75-50-75-39 0-46 34-46 75s6 73 46 73" id="bw"/><g id="J"><use transform="matrix(0.05,0,0,0.05,0,0)" xlink:href="#aF"/><use transform="matrix(0.05,0,0,0.05,12.950000000000001,0)" xlink:href="#aG"/><use transform="matrix(0.05,0,0,0.05,22.950000000000003,0)" xlink:href="#aH"/><use transform="matrix(0.05,0,0,0.05,37.900000000000006,0)" xlink:href="#aI"/><use transform="matrix(0.05,0,0,0.05,47.900000000000006,0)" xlink:href="#aJ"/><use transform="matrix(0.05,0,0,0.05,53.85,0)" xlink:href="#aK"/><use transform="matrix(0.05,0,0,0.05,63.85,0)" xlink:href="#bv"/><use transform="matrix(0.05,0,0,0.05,72.85000000000001,0)" xlink:href="#bs"/><use transform="matrix(0.05,0,0,0.05,82.85000000000001,0)" xlink:href="#bu"/><use transform="matrix(0.05,0,0,0.05,86.80000000000001,0)" xlink:href="#bw"/><use transform="matrix(0.05,0,0,0.05,96.80000000000001,0)" xlink:href="#bp"/><use transform="matrix(0.05,0,0,0.05,106.80000000000001,0)" xlink:href="#aJ"/></g><g id="K"><use transform="matrix(0.05,0,0,0.05,0,0)" xlink:href="#aF"/><use transform="matrix(0.05,0,0,0.05,12.950000000000001,0)" xlink:href="#aG"/><use transform="matrix(0.05,0,0,0.05,22.950000000000003,0)" xlink:href="#aH"/><use transform="matrix(0.05,0,0,0.05,37.900000000000006,0)" xlink:href="#aI"/><use transform="matrix(0.05,0,0,0.05,47.900000000000006,0)" xlink:href="#aJ"/><use transform="matrix(0.05,0,0,0.05,53.85,0)" xlink:href="#aK"/><use transform="matrix(0.05,0,0,0.05,63.85,0)" xlink:href="#aN"/><use transform="matrix(0.05,0,0,0.05,72.85000000000001,0)" xlink:href="#aO"/><use transform="matrix(0.05,0,0,0.05,76.80000000000001,0)" xlink:href="#aK"/><use transform="matrix(0.05,0,0,0.05,86.80000000000001,0)" xlink:href="#aP"/><use transform="matrix(0.05,0,0,0.05,96.80000000000001,0)" xlink:href="#aQ"/><use transform="matrix(0.05,0,0,0.05,101.80000000000001,0)" xlink:href="#aO"/><use transform="matrix(0.05,0,0,0.05,105.75,0)" xlink:href="#aR"/><use transform="matrix(0.05,0,0,0.05,110.75,0)" xlink:href="#aO"/><use transform="matrix(0.05,0,0,0.05,114.7,0)" xlink:href="#aN"/><use transform="matrix(0.05,0,0,0.05,123.7,0)" xlink:href="#aG"/><path fill="#333" d="M-.9 1.25h135.5v1.32H-.9z"/></g><g id="L"><use transform="matrix(0.05,0,0,0.05,0,0)" xlink:href="#aM"/><use transform="matrix(0.05,0,0,0.05,10.950000000000001,0)" xlink:href="#bp"/><use transform="matrix(0.05,0,0,0.05,20.950000000000003,0)" xlink:href="#aH"/><use transform="matrix(0.05,0,0,0.05,35.900000000000006,0)" xlink:href="#aO"/><use transform="matrix(0.05,0,0,0.05,39.85000000000001,0)" xlink:href="#bu"/><use transform="matrix(0.05,0,0,0.05,43.80000000000001,0)" xlink:href="#aO"/><use transform="matrix(0.05,0,0,0.05,47.750000000000014,0)" xlink:href="#bp"/></g><path fill="#333" d="M141 0L90-78 38 0H4l68-98-65-92h35l48 74 47-74h35l-64 92 68 98h-35" id="bx"/><path fill="#333" d="M100-194c62-1 85 37 85 99 1 63-27 99-86 99S16-35 15-95c0-66 28-99 85-99zM99-20c44 1 53-31 53-75 0-43-8-75-51-75s-53 32-53 75 10 74 51 75zM76-211c8-23 27-35 38-54h36v5l-58 49H76" id="by"/><g id="M"><use transform="matrix(0.05,0,0,0.05,0,0)" xlink:href="#aD"/><use transform="matrix(0.05,0,0,0.05,12,0)" xlink:href="#aK"/><use transform="matrix(0.05,0,0,0.05,22,0)" xlink:href="#bu"/><use transform="matrix(0.05,0,0,0.05,25.950000000000003,0)" xlink:href="#aO"/><use transform="matrix(0.05,0,0,0.05,29.899999999999995,0)" xlink:href="#bw"/><use transform="matrix(0.05,0,0,0.05,39.9,0)" xlink:href="#aJ"/><use transform="matrix(0.05,0,0,0.05,45.85,0)" xlink:href="#aG"/><use transform="matrix(0.05,0,0,0.05,55.85,0)" xlink:href="#bo"/><use transform="matrix(0.05,0,0,0.05,65.85,0)" xlink:href="#aK"/><use transform="matrix(0.05,0,0,0.05,75.85,0)" xlink:href="#aK"/><use transform="matrix(0.05,0,0,0.05,85.85,0)" xlink:href="#bx"/><use transform="matrix(0.05,0,0,0.05,94.85,0)" xlink:href="#aQ"/><use transform="matrix(0.05,0,0,0.05,99.85,0)" xlink:href="#aO"/><use transform="matrix(0.05,0,0,0.05,103.80000000000001,0)" xlink:href="#aP"/><use transform="matrix(0.05,0,0,0.05,113.80000000000001,0)" xlink:href="#aN"/><use transform="matrix(0.05,0,0,0.05,122.80000000000001,0)" xlink:href="#aO"/><use transform="matrix(0.05,0,0,0.05,126.75,0)" xlink:href="#by"/><use transform="matrix(0.05,0,0,0.05,136.75,0)" xlink:href="#aP"/></g><g id="N"><use transform="matrix(0.05,0,0,0.05,0,0)" xlink:href="#aB"/><use transform="matrix(0.05,0,0,0.05,5,0)" xlink:href="#aC"/><use transform="matrix(0.05,0,0,0.05,17.950000000000003,0)" xlink:href="#bp"/><use transform="matrix(0.05,0,0,0.05,27.950000000000003,0)" xlink:href="#aP"/><use transform="matrix(0.05,0,0,0.05,37.95,0)" xlink:href="#aO"/><use transform="matrix(0.05,0,0,0.05,41.900000000000006,0)" xlink:href="#aH"/><use transform="matrix(0.05,0,0,0.05,56.85,0)" xlink:href="#bp"/><use transform="matrix(0.05,0,0,0.05,66.85000000000001,0)" xlink:href="#bu"/><path fill="#333" d="M-.9 1.25h72.6v1.32H-.9z"/></g><path fill="#333" d="M205 0l-28-72H64L36 0H1l101-248h38L239 0h-34zm-38-99l-47-123c-12 45-31 82-46 123h93" id="bz"/><path fill="#333" d="M118-194c89-4 53 116 60 194h-32v-121c0-31-8-49-39-48C35-167 63-67 58 0H26l-1-190h30c1 10-1 24 2 32 11-22 29-35 61-36zm47-64c-3 23-9 48-36 47-26-1-65-44-74 0H39c4-23 8-48 36-47s64 44 74 0h16" id="bA"/><g id="O"><use transform="matrix(0.05,0,0,0.05,0,0)" xlink:href="#bz"/><use transform="matrix(0.05,0,0,0.05,12,0)" xlink:href="#bA"/><use transform="matrix(0.05,0,0,0.05,22,0)" xlink:href="#aG"/><use transform="matrix(0.05,0,0,0.05,32,0)" xlink:href="#aP"/><use transform="matrix(0.05,0,0,0.05,42,0)" xlink:href="#bp"/><use transform="matrix(0.05,0,0,0.05,52,0)" xlink:href="#aN"/><use transform="matrix(0.05,0,0,0.05,61,0)" xlink:href="#aO"/><use transform="matrix(0.05,0,0,0.05,64.95,0)" xlink:href="#aH"/><use transform="matrix(0.05,0,0,0.05,79.9,0)" xlink:href="#aO"/><use transform="matrix(0.05,0,0,0.05,83.85000000000001,0)" xlink:href="#aK"/><use transform="matrix(0.05,0,0,0.05,93.85000000000001,0)" xlink:href="#aP"/><use transform="matrix(0.05,0,0,0.05,103.85000000000001,0)" xlink:href="#aQ"/><use transform="matrix(0.05,0,0,0.05,108.85000000000001,0)" xlink:href="#aG"/></g><path fill="#333" d="M185-189c-5-48-123-54-124 2 14 75 158 14 163 119 3 78-121 87-175 55-17-10-28-26-33-46l33-7c5 56 141 63 141-1 0-78-155-14-162-118-5-82 145-84 179-34 5 7 8 16 11 25" id="bB"/><g id="P"><use transform="matrix(0.05,0,0,0.05,0,0)" xlink:href="#bB"/><use transform="matrix(0.05,0,0,0.05,12,0)" xlink:href="#aK"/><use transform="matrix(0.05,0,0,0.05,22,0)" xlink:href="#bx"/><use transform="matrix(0.05,0,0,0.05,31,0)" xlink:href="#aG"/></g><path fill="#333" d="M127-220V0H93v-220H8v-28h204v28h-85" id="bC"/><g id="Q"><use transform="matrix(0.05,0,0,0.05,0,0)" xlink:href="#bC"/><use transform="matrix(0.05,0,0,0.05,8.950000000000001,0)" xlink:href="#bp"/><use transform="matrix(0.05,0,0,0.05,18.950000000000003,0)" xlink:href="#aH"/><use transform="matrix(0.05,0,0,0.05,33.900000000000006,0)" xlink:href="#bp"/><use transform="matrix(0.05,0,0,0.05,43.900000000000006,0)" xlink:href="#bA"/><use transform="matrix(0.05,0,0,0.05,53.900000000000006,0)" xlink:href="#aG"/></g><path fill="#333" d="M30 0v-248h187v28H63v79h144v27H63v87h162V0H30" id="bD"/><g id="R"><use transform="matrix(0.05,0,0,0.05,0,0)" xlink:href="#bD"/><use transform="matrix(0.05,0,0,0.05,12,0)" xlink:href="#bq"/><use transform="matrix(0.05,0,0,0.05,21,0)" xlink:href="#bt"/><use transform="matrix(0.05,0,0,0.05,31,0)" xlink:href="#aK"/><use transform="matrix(0.05,0,0,0.05,41,0)" xlink:href="#aN"/><use transform="matrix(0.05,0,0,0.05,50,0)" xlink:href="#aO"/><use transform="matrix(0.05,0,0,0.05,53.95,0)" xlink:href="#aK"/></g><g id="S"><use transform="matrix(0.05,0,0,0.05,0,0)" xlink:href="#aP"/><use transform="matrix(0.05,0,0,0.05,10,0)" xlink:href="#aG"/><use transform="matrix(0.05,0,0,0.05,20,0)" xlink:href="#aH"/><use transform="matrix(0.05,0,0,0.05,34.95,0)" xlink:href="#aI"/><use transform="matrix(0.05,0,0,0.05,44.95,0)" xlink:href="#aJ"/><use transform="matrix(0.05,0,0,0.05,50.900000000000006,0)" xlink:href="#aK"/><use transform="matrix(0.05,0,0,0.05,60.900000000000006,0)" xlink:href="#bv"/><use transform="matrix(0.05,0,0,0.05,69.9,0)" xlink:href="#bs"/><use transform="matrix(0.05,0,0,0.05,79.9,0)" xlink:href="#bu"/><use transform="matrix(0.05,0,0,0.05,83.85000000000001,0)" xlink:href="#bw"/><use transform="matrix(0.05,0,0,0.05,93.85000000000001,0)" xlink:href="#bp"/><use transform="matrix(0.05,0,0,0.05,103.85000000000001,0)" xlink:href="#aJ"/></g><path fill="#333" d="M34 0v-190h32V0H34zM24-211c8-23 27-35 38-54h36v5l-58 49H24" id="bE"/><g id="T"><use transform="matrix(0.05,0,0,0.05,0,0)" xlink:href="#aF"/><use transform="matrix(0.05,0,0,0.05,12.950000000000001,0)" xlink:href="#aG"/><use transform="matrix(0.05,0,0,0.05,22.950000000000003,0)" xlink:href="#aH"/><use transform="matrix(0.05,0,0,0.05,37.900000000000006,0)" xlink:href="#aI"/><use transform="matrix(0.05,0,0,0.05,47.900000000000006,0)" xlink:href="#aJ"/><use transform="matrix(0.05,0,0,0.05,53.85,0)" xlink:href="#aK"/><use transform="matrix(0.05,0,0,0.05,63.85,0)" xlink:href="#aN"/><use transform="matrix(0.05,0,0,0.05,72.85000000000001,0)" xlink:href="#aO"/><use transform="matrix(0.05,0,0,0.05,76.80000000000001,0)" xlink:href="#aK"/><use transform="matrix(0.05,0,0,0.05,86.80000000000001,0)" xlink:href="#aP"/><use transform="matrix(0.05,0,0,0.05,96.80000000000001,0)" xlink:href="#aQ"/><use transform="matrix(0.05,0,0,0.05,101.80000000000001,0)" xlink:href="#bE"/><use transform="matrix(0.05,0,0,0.05,106.80000000000001,0)" xlink:href="#aR"/><use transform="matrix(0.05,0,0,0.05,111.80000000000001,0)" xlink:href="#aO"/><use transform="matrix(0.05,0,0,0.05,115.75,0)" xlink:href="#aN"/><use transform="matrix(0.05,0,0,0.05,124.75,0)" xlink:href="#aG"/><path fill="#333" d="M-.9 1.25h136.55v1.32H-.9z"/></g><g id="U"><use transform="matrix(0.05,0,0,0.05,0,0)" xlink:href="#aR"/><use transform="matrix(0.05,0,0,0.05,5,0)" xlink:href="#bp"/><use transform="matrix(0.05,0,0,0.05,15,0)" xlink:href="#aH"/><use transform="matrix(0.05,0,0,0.05,29.950000000000003,0)" xlink:href="#aO"/><use transform="matrix(0.05,0,0,0.05,33.900000000000006,0)" xlink:href="#bu"/><use transform="matrix(0.05,0,0,0.05,37.85000000000001,0)" xlink:href="#aO"/><use transform="matrix(0.05,0,0,0.05,41.80000000000001,0)" xlink:href="#bp"/></g><g id="V"><use transform="matrix(0.05,0,0,0.05,0,0)" xlink:href="#bt"/><use transform="matrix(0.05,0,0,0.05,10,0)" xlink:href="#aK"/><use transform="matrix(0.05,0,0,0.05,20,0)" xlink:href="#bu"/><use transform="matrix(0.05,0,0,0.05,23.95,0)" xlink:href="#aO"/><use transform="matrix(0.05,0,0,0.05,27.899999999999995,0)" xlink:href="#bw"/><use transform="matrix(0.05,0,0,0.05,37.9,0)" xlink:href="#aJ"/><use transform="matrix(0.05,0,0,0.05,43.85,0)" xlink:href="#aG"/><use transform="matrix(0.05,0,0,0.05,53.85,0)" xlink:href="#bo"/><use transform="matrix(0.05,0,0,0.05,63.85,0)" xlink:href="#aK"/><use transform="matrix(0.05,0,0,0.05,73.85,0)" xlink:href="#aK"/><use transform="matrix(0.05,0,0,0.05,83.85,0)" xlink:href="#bx"/><use transform="matrix(0.05,0,0,0.05,92.85,0)" xlink:href="#aQ"/><use transform="matrix(0.05,0,0,0.05,97.85,0)" xlink:href="#aO"/><use transform="matrix(0.05,0,0,0.05,101.8,0)" xlink:href="#aP"/><use transform="matrix(0.05,0,0,0.05,111.80000000000001,0)" xlink:href="#aN"/><use transform="matrix(0.05,0,0,0.05,120.80000000000001,0)" xlink:href="#aO"/><use transform="matrix(0.05,0,0,0.05,124.75,0)" xlink:href="#by"/><use transform="matrix(0.05,0,0,0.05,134.75,0)" xlink:href="#aP"/></g><g id="X"><use transform="matrix(0.05,0,0,0.05,0,0)" xlink:href="#az"/><use transform="matrix(0.05,0,0,0.05,10.950000000000001,0)" xlink:href="#aA"/><use transform="matrix(0.05,0,0,0.05,21.900000000000002,0)" xlink:href="#aA"/><use transform="matrix(0.05,0,0,0.05,32.85,0)" xlink:href="#au"/></g><g id="Y"><use transform="matrix(0.05,0,0,0.05,0,0)" xlink:href="#aF"/><use transform="matrix(0.05,0,0,0.05,12.950000000000001,0)" xlink:href="#aG"/><use transform="matrix(0.05,0,0,0.05,22.950000000000003,0)" xlink:href="#aH"/><use transform="matrix(0.05,0,0,0.05,37.900000000000006,0)" xlink:href="#aI"/><use transform="matrix(0.05,0,0,0.05,47.900000000000006,0)" xlink:href="#aJ"/><use transform="matrix(0.05,0,0,0.05,53.85,0)" xlink:href="#aK"/><use transform="matrix(0.05,0,0,0.05,63.85,0)" xlink:href="#aL"/><use transform="matrix(0.05,0,0,0.05,72.85000000000001,0)" xlink:href="#aG"/><use transform="matrix(0.05,0,0,0.05,82.85000000000001,0)" xlink:href="#aG"/><path fill="#333" d="M-.9 1.25h94.65v1.32H-.9z"/></g><g id="Z"><use transform="matrix(0.05,0,0,0.05,0,0)" xlink:href="#aN"/><use transform="matrix(0.05,0,0,0.05,9,0)" xlink:href="#aO"/><use transform="matrix(0.05,0,0,0.05,12.949999999999998,0)" xlink:href="#bs"/><use transform="matrix(0.05,0,0,0.05,22.95,0)" xlink:href="#bo"/><use transform="matrix(0.05,0,0,0.05,32.95,0)" xlink:href="#bp"/><use transform="matrix(0.05,0,0,0.05,42.95,0)" xlink:href="#bo"/></g><g id="aa"><use transform="matrix(0.05,0,0,0.05,0,0)" xlink:href="#bt"/><use transform="matrix(0.05,0,0,0.05,10,0)" xlink:href="#bp"/><use transform="matrix(0.05,0,0,0.05,20,0)" xlink:href="#bE"/><use transform="matrix(0.05,0,0,0.05,25,0)" xlink:href="#bq"/></g><g id="ab"><use transform="matrix(0.05,0,0,0.05,0,0)" xlink:href="#aQ"/><use transform="matrix(0.05,0,0,0.05,5,0)" xlink:href="#bp"/><use transform="matrix(0.05,0,0,0.05,15,0)" xlink:href="#aH"/><use transform="matrix(0.05,0,0,0.05,29.950000000000003,0)" xlink:href="#bp"/><use transform="matrix(0.05,0,0,0.05,39.95,0)" xlink:href="#bA"/><use transform="matrix(0.05,0,0,0.05,49.95,0)" xlink:href="#aG"/></g><g id="ac"><use transform="matrix(0.05,0,0,0.05,0,0)" xlink:href="#bt"/><use transform="matrix(0.05,0,0,0.05,10,0)" xlink:href="#aJ"/><use transform="matrix(0.05,0,0,0.05,15.949999999999998,0)" xlink:href="#aK"/><use transform="matrix(0.05,0,0,0.05,25.950000000000003,0)" xlink:href="#bq"/><use transform="matrix(0.05,0,0,0.05,34.95,0)" xlink:href="#bs"/><use transform="matrix(0.05,0,0,0.05,44.95,0)" xlink:href="#bt"/><use transform="matrix(0.05,0,0,0.05,54.95,0)" xlink:href="#bs"/><use transform="matrix(0.05,0,0,0.05,64.95,0)" xlink:href="#aK"/><use transform="matrix(0.05,0,0,0.05,74.95,0)" xlink:href="#bq"/><use transform="matrix(0.05,0,0,0.05,83.95,0)" xlink:href="#aQ"/><use transform="matrix(0.05,0,0,0.05,88.95,0)" xlink:href="#aG"/></g><g id="ad"><use transform="matrix(0.05,0,0,0.05,0,0)" xlink:href="#bp"/><use transform="matrix(0.05,0,0,0.05,10,0)" xlink:href="#aP"/><use transform="matrix(0.05,0,0,0.05,20,0)" xlink:href="#bs"/><use transform="matrix(0.05,0,0,0.05,30,0)" xlink:href="#bp"/><use transform="matrix(0.05,0,0,0.05,40,0)" xlink:href="#bu"/></g><g id="ae"><use transform="matrix(0.05,0,0,0.05,0,0)" xlink:href="#aB"/><use transform="matrix(0.05,0,0,0.05,5,0)" xlink:href="#aC"/><use transform="matrix(0.05,0,0,0.05,17.950000000000003,0)" xlink:href="#bp"/><use transform="matrix(0.05,0,0,0.05,27.950000000000003,0)" xlink:href="#aP"/><use transform="matrix(0.05,0,0,0.05,37.95,0)" xlink:href="#aO"/><use transform="matrix(0.05,0,0,0.05,41.900000000000006,0)" xlink:href="#aH"/><use transform="matrix(0.05,0,0,0.05,56.85,0)" xlink:href="#bp"/><use transform="matrix(0.05,0,0,0.05,66.85000000000001,0)" xlink:href="#bu"/><path fill="#333" d="M-.9 1.25h72.6v1.32H-.9z"/></g><g id="af"><use transform="matrix(0.05,0,0,0.05,0,0)" xlink:href="#aD"/><use transform="matrix(0.05,0,0,0.05,12,0)" xlink:href="#aE"/><path fill="#333" d="M23.1 1.25h1.8v1.32h-1.8z"/></g><g id="ag"><use transform="matrix(0.05,0,0,0.05,0,0)" xlink:href="#aK"/><use transform="matrix(0.05,0,0,0.05,10,0)" xlink:href="#bq"/><use transform="matrix(0.05,0,0,0.05,19,0)" xlink:href="#bt"/><use transform="matrix(0.05,0,0,0.05,29,0)" xlink:href="#aK"/><use transform="matrix(0.05,0,0,0.05,39,0)" xlink:href="#aN"/><use transform="matrix(0.05,0,0,0.05,48,0)" xlink:href="#aO"/><use transform="matrix(0.05,0,0,0.05,51.95,0)" xlink:href="#aK"/></g><g id="ah"><use transform="matrix(0.05,0,0,0.05,0,0)" xlink:href="#bq"/><use transform="matrix(0.05,0,0,0.05,9,0)" xlink:href="#aK"/><use transform="matrix(0.05,0,0,0.05,19,0)" xlink:href="#bx"/><use transform="matrix(0.05,0,0,0.05,28,0)" xlink:href="#aG"/></g><g id="ai"><use transform="matrix(0.05,0,0,0.05,0,0)" xlink:href="#bp"/><use transform="matrix(0.05,0,0,0.05,10,0)" xlink:href="#bA"/><use transform="matrix(0.05,0,0,0.05,20,0)" xlink:href="#aG"/><use transform="matrix(0.05,0,0,0.05,30,0)" xlink:href="#aP"/><use transform="matrix(0.05,0,0,0.05,40,0)" xlink:href="#bp"/><use transform="matrix(0.05,0,0,0.05,50,0)" xlink:href="#aN"/><use transform="matrix(0.05,0,0,0.05,59,0)" xlink:href="#aO"/><use transform="matrix(0.05,0,0,0.05,62.95,0)" xlink:href="#aH"/><use transform="matrix(0.05,0,0,0.05,77.9,0)" xlink:href="#aO"/><use transform="matrix(0.05,0,0,0.05,81.85000000000001,0)" xlink:href="#aK"/><use transform="matrix(0.05,0,0,0.05,91.85000000000001,0)" xlink:href="#aP"/><use transform="matrix(0.05,0,0,0.05,101.85000000000001,0)" xlink:href="#aQ"/><use transform="matrix(0.05,0,0,0.05,106.85000000000001,0)" xlink:href="#aG"/></g><g id="aj"><use transform="matrix(0.05,0,0,0.05,0,0)" xlink:href="#bt"/><use transform="matrix(0.05,0,0,0.05,10,0)" xlink:href="#bp"/><use transform="matrix(0.05,0,0,0.05,20,0)" xlink:href="#aO"/><use transform="matrix(0.05,0,0,0.05,23.95,0)" xlink:href="#bq"/><use transform="matrix(0.05,0,0,0.05,32.95,0)" xlink:href="#aG"/><use transform="matrix(0.05,0,0,0.05,42.95,0)" xlink:href="#aJ"/><use transform="matrix(0.05,0,0,0.05,48.900000000000006,0)" xlink:href="#aO"/><use transform="matrix(0.05,0,0,0.05,52.85,0)" xlink:href="#bw"/><use transform="matrix(0.05,0,0,0.05,62.85,0)" xlink:href="#aK"/><use transform="matrix(0.05,0,0,0.05,72.85000000000001,0)" xlink:href="#aP"/></g><g id="ak"><use transform="matrix(0.05,0,0,0.05,0,0)" xlink:href="#aN"/><use transform="matrix(0.05,0,0,0.05,9,0)" xlink:href="#aG"/><use transform="matrix(0.05,0,0,0.05,19,0)" xlink:href="#aP"/><use transform="matrix(0.05,0,0,0.05,29,0)" xlink:href="#aQ"/><use transform="matrix(0.05,0,0,0.05,34,0)" xlink:href="#aO"/><use transform="matrix(0.05,0,0,0.05,37.95,0)" xlink:href="#aP"/><use transform="matrix(0.05,0,0,0.05,47.95,0)" xlink:href="#aK"/><use transform="matrix(0.05,0,0,0.05,57.95,0)" xlink:href="#aP"/><use transform="matrix(0.05,0,0,0.05,67.95,0)" xlink:href="#aQ"/><use transform="matrix(0.05,0,0,0.05,72.95,0)" xlink:href="#aK"/></g><g id="al"><use transform="matrix(0.05,0,0,0.05,0,0)" xlink:href="#bj"/><use transform="matrix(0.05,0,0,0.05,12.950000000000001,0)" xlink:href="#bk"/><use transform="matrix(0.05,0,0,0.05,23.900000000000002,0)" xlink:href="#ay"/><use transform="matrix(0.05,0,0,0.05,28.900000000000002,0)" xlink:href="#bl"/><use transform="matrix(0.05,0,0,0.05,44.900000000000006,0)" xlink:href="#bm"/><use transform="matrix(0.05,0,0,0.05,54.900000000000006,0)" xlink:href="#bn"/><use transform="matrix(0.05,0,0,0.05,59.900000000000006,0)" xlink:href="#aw"/><use transform="matrix(0.05,0,0,0.05,69.9,0)" xlink:href="#au"/><use transform="matrix(0.05,0,0,0.05,79.9,0)" xlink:href="#az"/><use transform="matrix(0.05,0,0,0.05,90.85000000000001,0)" xlink:href="#aA"/><use transform="matrix(0.05,0,0,0.05,101.80000000000001,0)" xlink:href="#aA"/><use transform="matrix(0.05,0,0,0.05,112.75,0)" xlink:href="#au"/></g><g id="am"><use transform="matrix(0.05,0,0,0.05,0,0)" xlink:href="#aB"/><use transform="matrix(0.05,0,0,0.05,5,0)" xlink:href="#aC"/><path fill="#333" d="M-.9 1.25h19.75v1.32H-.9z"/></g><g id="an"><use transform="matrix(0.05,0,0,0.05,0,0)" xlink:href="#aB"/><use transform="matrix(0.05,0,0,0.05,5,0)" xlink:href="#aC"/><use transform="matrix(0.05,0,0,0.05,17.950000000000003,0)" xlink:href="#bp"/><use transform="matrix(0.05,0,0,0.05,27.950000000000003,0)" xlink:href="#aP"/><use transform="matrix(0.05,0,0,0.05,37.95,0)" xlink:href="#aO"/><use transform="matrix(0.05,0,0,0.05,41.900000000000006,0)" xlink:href="#aH"/><use transform="matrix(0.05,0,0,0.05,56.85,0)" xlink:href="#bp"/><use transform="matrix(0.05,0,0,0.05,66.85000000000001,0)" xlink:href="#bu"/><path fill="#333" d="M-.9 1.25h72.6v1.32H-.9z"/></g><g id="ao"><use transform="matrix(0.05,0,0,0.05,0,0)" xlink:href="#aF"/><use transform="matrix(0.05,0,0,0.05,12.950000000000001,0)" xlink:href="#aG"/><use transform="matrix(0.05,0,0,0.05,22.950000000000003,0)" xlink:href="#aH"/><use transform="matrix(0.05,0,0,0.05,37.900000000000006,0)" xlink:href="#aI"/><use transform="matrix(0.05,0,0,0.05,47.900000000000006,0)" xlink:href="#aJ"/><use transform="matrix(0.05,0,0,0.05,53.85,0)" xlink:href="#aK"/><use transform="matrix(0.05,0,0,0.05,63.85,0)" xlink:href="#aL"/><use transform="matrix(0.05,0,0,0.05,72.85000000000001,0)" xlink:href="#aG"/><use transform="matrix(0.05,0,0,0.05,82.85000000000001,0)" xlink:href="#aG"/><path fill="#333" d="M-.9 1.25h94.65v1.32H-.9z"/></g><g id="ap"><use transform="matrix(0.05,0,0,0.05,0,0)" xlink:href="#aM"/><use transform="matrix(0.05,0,0,0.05,10.950000000000001,0)" xlink:href="#aE"/><path fill="#333" d="M22.05 1.25h1.8v1.32h-1.8z"/></g><g id="ar"><use transform="matrix(0.05,0,0,0.05,0,0)" xlink:href="#aD"/><use transform="matrix(0.05,0,0,0.05,12,0)" xlink:href="#bp"/><use transform="matrix(0.05,0,0,0.05,22,0)" xlink:href="#aO"/><use transform="matrix(0.05,0,0,0.05,25.950000000000003,0)" xlink:href="#bq"/><use transform="matrix(0.05,0,0,0.05,34.95,0)" xlink:href="#aG"/><use transform="matrix(0.05,0,0,0.05,44.95,0)" xlink:href="#aJ"/><use transform="matrix(0.05,0,0,0.05,50.900000000000006,0)" xlink:href="#aO"/><use transform="matrix(0.05,0,0,0.05,54.85,0)" xlink:href="#bw"/><use transform="matrix(0.05,0,0,0.05,64.85000000000001,0)" xlink:href="#aK"/><use transform="matrix(0.05,0,0,0.05,74.85000000000001,0)" xlink:href="#aP"/></g><g id="as"><use transform="matrix(0.05,0,0,0.05,0,0)" xlink:href="#br"/><use transform="matrix(0.05,0,0,0.05,12.950000000000001,0)" xlink:href="#aG"/><use transform="matrix(0.05,0,0,0.05,22.950000000000003,0)" xlink:href="#aP"/><use transform="matrix(0.05,0,0,0.05,32.95,0)" xlink:href="#aQ"/><use transform="matrix(0.05,0,0,0.05,37.95,0)" xlink:href="#aO"/><use transform="matrix(0.05,0,0,0.05,41.900000000000006,0)" xlink:href="#aP"/><use transform="matrix(0.05,0,0,0.05,51.900000000000006,0)" xlink:href="#aK"/><use transform="matrix(0.05,0,0,0.05,61.900000000000006,0)" xlink:href="#aP"/><use transform="matrix(0.05,0,0,0.05,71.9,0)" xlink:href="#aQ"/><use transform="matrix(0.05,0,0,0.05,76.9,0)" xlink:href="#aK"/></g></defs></g></svg>